<svg xmlns="http://www.w3.org/2000/svg" viewBox="0 0 960 520" role="img" aria-labelledby="title desc">
  <title id="title">SPY QQQ Sector Rotation Drawdowns</title>
  <desc id="desc">Peak-to-trough drawdown by strategy variant</desc>
  <style>
    text { font-family: Inter, Arial, sans-serif; fill: #0f172a; }
    .title { font-size: 20px; font-weight: 700; }
    .subtitle { font-size: 13px; fill: #64748b; }
    .axis { font-size: 12px; fill: #64748b; }
    .legend { font-size: 13px; fill: #0f172a; }
    .bar-label { font-size: 13px; fill: #0f172a; font-weight: 600; }
  </style>
  <rect width="960" height="520" fill="#ffffff" />
  <text x="78" y="28" class="title">SPY QQQ Sector Rotation Drawdowns</text>
  <text x="78" y="48" class="subtitle">Peak-to-trough drawdown by strategy variant</text>
  <rect x="78" y="62" width="804" height="340" fill="#ffffff" stroke="#e2e8f0" />
<line x1="78" x2="882" y1="402.0" y2="402.0" stroke="#e2e8f0" />
<text x="68" y="406.0" text-anchor="end" class="axis">-70%</text>
<line x1="78" x2="882" y1="353.4" y2="353.4" stroke="#e2e8f0" />
<text x="68" y="357.4" text-anchor="end" class="axis">-60%</text>
<line x1="78" x2="882" y1="304.9" y2="304.9" stroke="#e2e8f0" />
<text x="68" y="308.9" text-anchor="end" class="axis">-50%</text>
<line x1="78" x2="882" y1="256.3" y2="256.3" stroke="#e2e8f0" />
<text x="68" y="260.3" text-anchor="end" class="axis">-40%</text>
<line x1="78" x2="882" y1="207.7" y2="207.7" stroke="#e2e8f0" />
<text x="68" y="211.7" text-anchor="end" class="axis">-30%</text>
<line x1="78" x2="882" y1="159.1" y2="159.1" stroke="#e2e8f0" />
<text x="68" y="163.1" text-anchor="end" class="axis">-20%</text>
<line x1="78" x2="882" y1="110.6" y2="110.6" stroke="#e2e8f0" />
<text x="68" y="114.6" text-anchor="end" class="axis">-10%</text>
<line x1="78" x2="882" y1="62.0" y2="62.0" stroke="#e2e8f0" />
<text x="68" y="66.0" text-anchor="end" class="axis">0%</text>
<line x1="87.4" x2="87.4" y1="62" y2="402" stroke="#e2e8f0" />
<text x="87.4" y="430" text-anchor="middle" class="axis">2000</text>
<line x1="237.3" x2="237.3" y1="62" y2="402" stroke="#e2e8f0" />
<text x="237.3" y="430" text-anchor="middle" class="axis">2005</text>
<line x1="387.2" x2="387.2" y1="62" y2="402" stroke="#e2e8f0" />
<text x="387.2" y="430" text-anchor="middle" class="axis">2010</text>
<line x1="537.0" x2="537.0" y1="62" y2="402" stroke="#e2e8f0" />
<text x="537.0" y="430" text-anchor="middle" class="axis">2015</text>
<line x1="686.8" x2="686.8" y1="62" y2="402" stroke="#e2e8f0" />
<text x="686.8" y="430" text-anchor="middle" class="axis">2020</text>
<line x1="836.7" x2="836.7" y1="62" y2="402" stroke="#e2e8f0" />
<text x="836.7" y="430" text-anchor="middle" class="axis">2025</text>
<line x1="78" x2="100" y1="438" y2="438" stroke="#0f766e" stroke-width="2.3" />
<text x="108" y="442" class="legend">Top 1 momentum</text>
<line x1="293" x2="315" y1="438" y2="438" stroke="#2563eb" stroke-width="2.2" />
<text x="323" y="442" class="legend">Top 3 momentum</text>
<line x1="508" x2="530" y1="438" y2="438" stroke="#334155" stroke-width="1.8" stroke-dasharray="7 5" />
<text x="538" y="442" class="legend">SPY buy and hold</text>
<line x1="78" x2="882" y1="62.0" y2="62.0" stroke="#64748b" />
<polyline fill="none" stroke="#0f766e" stroke-width="2.3" points="78.0,62.0 78.7,62.0 79.3,62.0 80.1,62.0 80.8,72.1 81.4,101.2 82.1,86.0 82.8,66.9 83.6,62.9 84.2,67.2 85.0,63.3 85.6,62.0 86.5,62.0 87.2,62.0 87.8,137.1 88.5,69.0 89.4,78.4 90.1,79.0 90.7,63.8 91.4,81.8 92.3,62.0 92.9,65.0 93.6,88.4 94.2,62.0 95.1,123.1 95.7,144.5 96.4,179.8 97.1,156.9 97.9,185.2 98.6,173.1 99.3,219.8 100.0,219.9 100.8,209.3 101.5,213.7 102.1,220.4 102.9,230.9 103.7,231.9 104.3,245.0 105.0,235.0 105.7,217.5 106.3,216.4 107.1,213.3 107.9,203.9 108.5,196.2 109.2,208.6 110.0,195.9 110.7,199.7 111.3,201.0 112.0,202.2 112.6,181.4 113.4,176.3 114.1,184.4 114.8,177.8 115.5,186.5 116.3,181.5 117.1,184.1 117.8,188.7 118.7,192.3 119.4,187.7 120.0,183.6 120.7,187.7 121.6,202.0 122.2,208.6 122.9,208.2 123.5,226.5 124.4,228.5 125.0,219.1 125.7,189.4 126.4,183.0 127.2,178.5 127.9,172.2 128.5,142.6 129.2,162.5 130.1,156.8 130.8,165.2 131.4,174.2 132.1,179.1 133.0,188.7 133.6,161.5 134.3,163.5 134.9,166.3 135.6,166.6 136.4,166.6 137.1,160.5 137.8,175.6 139.0,241.7 139.6,212.3 140.4,208.5 141.1,209.2 141.8,207.2 142.4,207.0 143.1,208.2 143.9,203.4 144.6,206.1 145.3,204.1 145.9,216.8 146.8,202.2 147.6,207.2 148.2,211.3 149.1,212.2 149.8,201.3 150.4,212.6 151.1,200.1 152.0,190.6 152.7,191.2 153.3,188.2 154.0,189.5 154.9,202.6 155.5,186.6 156.2,191.1 156.8,196.7 157.7,203.8 158.3,193.7 159.0,198.2 159.7,195.2 160.5,200.6 161.2,208.2 161.9,222.5 162.6,224.2 163.4,250.9 164.1,285.9 164.7,257.8 165.4,254.1 166.0,254.2 166.9,244.2 167.6,258.8 168.3,262.8 168.9,270.8 169.7,273.4 170.4,267.2 171.0,249.8 171.7,257.5 172.4,254.5 173.2,251.7 173.8,249.4 174.5,247.3 175.2,266.4 176.0,271.5 176.7,278.1 177.5,278.7 178.3,278.9 179.1,285.8 179.7,294.5 180.4,296.3 181.3,281.1 182.0,292.0 182.6,289.1 183.3,276.1 184.1,272.7 184.7,279.0 185.4,278.9 186.1,264.5 187.0,257.5 187.6,259.0 188.3,254.0 188.9,242.1 189.8,226.1 190.5,226.4 191.1,218.2 191.8,221.8 192.7,204.0 193.4,200.0 194.0,207.1 194.7,204.9 195.3,223.6 196.2,203.1 196.8,197.0 197.5,179.5 198.2,183.2 199.0,182.1 199.7,198.3 200.3,176.6 201.0,165.5 201.6,179.1 202.5,162.3 203.1,169.8 203.8,179.0 204.5,166.4 205.3,167.9 206.0,172.1 206.7,160.6 207.6,148.9 208.3,162.8 209.0,166.4 209.7,172.3 210.5,171.0 211.2,161.2 211.9,154.9 212.6,147.1 213.4,157.4 214.0,162.7 214.7,155.5 215.4,152.8 216.3,140.3 216.9,134.6 217.6,137.9 218.2,153.3 218.9,158.5 219.8,144.5 220.4,148.5 221.2,128.7 222.0,130.7 222.7,119.4 223.4,114.7 224.0,120.3 224.9,112.7 225.5,127.5 226.2,131.6 226.8,126.6 227.5,106.9 228.4,98.1 229.1,82.1 229.7,77.0 230.4,65.2 231.2,85.2 231.8,69.1 232.5,79.7 233.2,78.9 233.8,62.7 234.7,63.9 235.4,89.9 236.0,81.0 236.9,83.4 237.6,86.7 238.2,89.2 239.0,84.5 239.8,68.1 240.5,62.0 241.1,62.0 241.9,64.1 242.7,65.4 243.3,88.1 244.0,91.4 244.7,71.1 245.5,80.8 246.2,98.6 246.9,104.5 247.5,100.5 248.2,126.8 249.0,110.4 249.7,87.0 250.4,73.6 251.0,62.0 251.9,64.8 252.6,70.7 253.3,76.4 253.9,62.0 254.7,62.0 255.4,63.1 256.0,89.0 256.7,78.6 257.4,71.4 258.3,76.0 258.9,62.0 259.6,62.0 260.2,106.5 261.1,111.7 261.7,114.3 262.4,101.6 263.0,128.2 263.7,110.8 264.6,108.0 265.2,88.4 265.9,80.2 266.5,89.9 267.5,86.5 268.2,95.4 269.1,95.2 269.7,77.1 270.4,107.8 271.1,118.5 272.0,118.0 272.6,122.1 273.3,103.8 273.9,105.4 274.6,101.5 275.4,95.3 276.1,73.5 276.8,87.7 277.5,69.9 278.3,87.7 278.9,111.6 279.7,103.5 280.3,126.7 281.2,138.7 281.8,114.9 282.5,87.7 283.2,84.9 284.0,98.5 284.7,72.9 285.3,76.5 286.0,77.1 286.7,72.2 287.6,65.4 288.2,65.8 288.9,66.3 289.5,67.9 290.3,66.6 291.0,62.0 291.7,62.0 292.3,65.0 293.0,64.0 293.8,63.9 294.5,62.0 295.2,64.9 295.8,62.4 296.7,64.9 297.6,73.4 298.5,75.1 299.1,69.9 299.8,65.8 300.4,67.5 301.3,62.0 302.0,85.1 302.7,89.8 303.3,86.4 304.1,69.2 304.8,69.7 305.5,65.4 306.2,65.9 307.0,73.2 307.7,62.0 308.3,62.0 309.0,67.9 309.9,64.9 310.5,84.4 311.2,68.1 311.8,74.3 312.7,62.0 313.4,74.5 314.1,68.9 314.7,101.2 315.4,105.3 316.2,107.7 316.8,111.6 317.6,78.7 318.2,74.1 319.1,62.9 319.7,69.6 320.4,62.0 321.0,62.0 321.7,69.2 322.5,79.8 323.2,91.5 323.8,99.0 324.6,90.8 325.4,80.3 326.0,103.9 326.8,85.8 327.7,104.4 328.3,123.3 329.1,146.0 329.7,144.5 330.5,149.3 331.3,148.4 331.9,141.8 332.6,161.8 333.4,170.2 334.2,157.6 334.8,155.8 335.5,160.5 336.3,157.0 336.9,155.8 337.6,155.7 338.3,143.7 338.9,141.6 339.8,149.2 340.5,138.6 341.1,140.2 341.8,135.9 342.7,163.5 343.3,185.0 344.0,200.3 344.7,196.6 345.5,212.8 346.1,205.9 346.8,187.4 347.5,216.1 348.4,226.5 349.0,237.8 349.7,248.7 350.3,296.0 351.0,286.2 351.8,308.7 352.5,280.4 353.1,297.4 353.8,311.7 354.7,303.1 355.3,296.2 356.0,294.5 356.7,294.7 357.6,287.9 358.3,302.1 359.0,303.1 359.8,306.1 360.5,305.9 361.2,308.6 361.9,337.4 362.7,347.4 363.4,328.2 364.0,323.7 364.7,316.9 365.6,313.3 366.2,313.8 366.9,306.8 367.6,302.7 368.2,318.3 369.1,305.8 369.8,301.9 370.4,298.6 371.1,302.7 371.9,300.8 372.6,312.5 373.3,294.6 374.0,283.1 374.8,273.9 375.4,265.3 376.1,262.2 376.7,245.4 377.4,255.9 378.3,245.0 379.0,238.3 379.6,253.7 380.3,234.0 381.1,232.9 381.7,247.1 382.4,259.3 383.1,245.3 383.7,247.1 384.6,245.7 385.3,253.1 385.9,258.2 386.8,248.5 387.6,246.6 388.2,245.4 389.1,256.4 389.8,249.4 390.4,259.3 391.2,243.7 392.0,239.5 392.7,231.3 393.3,223.9 394.0,219.6 394.9,214.3 395.5,207.5 396.2,198.9 396.8,193.4 397.5,227.1 398.3,216.4 399.0,230.6 399.7,221.0 400.4,226.4 401.2,225.8 401.8,253.0 402.6,247.0 403.2,250.1 404.1,223.7 404.7,221.9 405.4,233.3 406.0,236.8 406.7,243.0 407.6,242.8 408.2,244.1 408.9,244.6 409.6,238.8 410.4,235.8 411.0,234.8 411.7,238.4 412.4,228.6 413.0,235.5 413.8,233.1 414.6,229.1 415.2,223.9 415.9,221.1 416.8,213.5 417.4,208.5 418.1,207.1 419.0,214.4 419.7,204.3 420.3,208.8 421.0,193.4 421.9,184.9 422.5,191.4 423.2,207.1 423.8,186.3 424.5,177.0 425.3,185.5 426.0,191.7 426.7,180.2 427.4,201.1 428.2,208.3 428.8,202.4 429.6,199.0 430.2,207.9 431.1,213.4 431.7,206.3 432.5,193.5 433.1,200.9 433.9,200.6 434.6,224.3 435.2,252.5 435.9,241.1 436.6,230.0 437.5,226.3 438.1,222.5 438.8,223.5 439.4,218.2 440.2,214.0 440.9,213.7 441.6,209.7 442.2,203.3 442.9,201.1 443.7,212.4 444.4,202.6 445.1,209.0 445.7,205.4 446.6,190.0 447.4,198.7 448.0,201.9 448.9,206.1 449.6,201.0 450.3,202.8 450.9,200.1 451.8,198.6 452.5,203.3 453.1,188.6 453.8,187.4 454.6,183.0 455.3,199.2 456.0,197.9 456.7,192.1 457.5,200.1 458.1,210.5 458.8,213.6 459.5,226.7 460.3,217.4 461.0,201.0 461.7,206.3 462.4,198.2 463.2,203.3 463.9,204.6 464.5,196.7 465.2,194.8 465.8,192.2 466.7,194.7 467.4,196.1 468.1,188.0 468.7,182.9 469.5,181.4 470.2,178.8 470.9,172.6 471.5,180.3 472.5,182.8 473.1,196.0 473.9,184.5 474.7,184.2 475.4,175.7 476.0,166.4 476.8,170.8 477.7,152.6 478.3,148.4 479.1,140.7 479.9,142.1 480.5,132.6 481.3,139.5 481.9,136.7 482.7,119.5 483.4,123.0 484.1,123.2 484.8,126.2 485.6,125.1 486.3,116.9 486.9,113.3 487.6,97.3 488.2,87.5 489.1,89.1 489.8,110.2 490.5,100.1 491.1,113.9 491.9,103.8 492.7,89.7 493.3,81.7 494.0,82.5 494.8,81.7 495.5,85.3 496.1,99.4 496.8,98.8 497.7,88.8 498.3,77.9 499.0,86.8 499.7,88.3 500.3,85.4 501.1,74.7 501.8,64.3 502.4,62.0 503.1,62.0 503.8,62.0 504.7,65.6 505.3,68.6 506.0,64.5 506.9,63.9 507.6,68.6 508.3,64.2 509.2,84.8 509.8,91.0 510.5,69.1 511.2,64.0 512.0,66.6 512.7,66.4 513.4,67.3 514.0,78.1 514.7,77.4 515.5,93.6 516.2,78.2 516.9,75.0 517.5,87.4 518.4,95.7 519.1,86.5 519.8,76.8 520.4,84.2 521.2,71.8 521.9,66.8 522.6,74.1 523.3,78.7 524.1,75.5 524.8,101.6 525.4,97.5 526.1,90.7 526.7,85.6 527.6,102.4 528.3,103.9 528.9,120.5 529.6,124.5 530.4,147.0 531.1,130.1 531.7,117.5 532.4,108.3 533.0,111.2 533.9,102.0 534.6,91.3 535.3,94.3 535.9,89.0 536.8,97.7 537.6,98.3 538.2,89.5 539.1,84.2 539.8,94.2 540.4,115.4 541.3,114.1 542.0,121.9 542.6,129.1 543.3,108.1 544.0,115.9 544.9,120.5 545.5,110.4 546.2,106.5 546.8,118.3 547.6,118.8 548.3,115.5 549.0,115.6 549.7,122.5 550.5,121.4 551.2,108.9 551.8,116.1 552.6,115.6 553.4,104.5 554.0,110.7 554.7,112.9 555.4,119.0 556.0,140.6 556.8,137.2 557.6,138.5 558.2,126.3 558.9,137.2 559.7,124.6 560.4,120.9 561.0,117.9 561.7,103.7 562.3,100.3 563.2,115.4 563.8,100.6 564.6,109.9 565.2,118.8 566.0,118.9 566.8,112.1 567.5,129.4 568.4,130.6 569.1,127.4 569.7,105.5 570.4,113.7 571.3,102.0 571.9,106.5 572.6,89.5 573.2,80.9 574.2,73.1 574.8,81.1 575.5,81.0 576.1,93.2 576.9,79.2 577.6,75.8 578.3,89.9 578.9,79.8 579.8,67.7 580.5,62.0 581.1,65.5 581.8,62.0 582.7,66.4 583.3,70.4 584.0,74.6 584.7,71.1 585.3,73.0 586.1,68.1 586.8,66.8 587.5,62.0 588.2,88.9 589.0,89.7 589.7,72.7 590.3,69.6 591.0,69.2 591.6,77.9 592.4,85.8 593.1,90.8 593.8,79.7 594.5,80.2 595.3,66.7 596.0,62.0 596.7,71.4 597.6,68.6 598.4,73.5 599.0,62.0 599.7,62.4 600.5,62.0 601.2,62.0 601.9,69.5 602.5,70.7 603.4,79.4 604.0,88.7 604.7,94.5 605.3,105.5 606.2,90.4 606.9,91.0 607.5,87.9 608.2,100.6 608.9,91.7 609.8,94.2 610.4,104.0 611.1,99.8 611.7,109.5 612.6,105.1 613.3,89.4 613.9,89.4 614.6,94.5 615.4,96.5 616.1,95.6 616.7,92.0 617.5,91.0 618.3,83.4 619.0,89.3 619.6,79.4 620.3,72.1 620.9,65.1 621.7,62.0 622.4,62.0 623.1,70.6 623.8,62.0 624.6,62.0 625.3,62.0 625.9,65.5 626.7,65.8 627.6,63.2 628.3,62.0 629.0,62.0 629.8,100.5 630.4,92.6 631.2,78.1 631.8,73.8 632.7,62.0 633.3,77.9 634.0,105.8 634.7,100.2 635.5,94.5 636.2,96.3 636.8,89.3 637.5,82.5 638.1,81.6 639.1,79.7 639.7,78.9 640.4,76.3 641.0,80.4 641.8,75.3 642.6,66.0 643.2,63.4 643.9,67.8 644.7,64.9 645.4,66.4 646.0,70.7 646.7,69.3 647.6,75.7 648.2,71.9 648.9,70.5 649.6,73.5 650.2,90.3 651.0,91.8 651.7,102.8 652.3,90.9 653.0,95.3 653.9,103.8 654.6,105.3 655.3,111.0 656.0,153.8 656.9,141.7 657.6,130.7 658.3,118.5 659.2,126.8 659.8,116.4 660.5,110.0 661.4,101.0 662.0,97.2 662.7,87.3 663.3,86.6 664.0,85.8 664.8,89.6 665.5,91.3 666.2,87.1 666.9,81.2 667.7,114.0 668.3,104.1 669.1,115.1 669.7,96.9 670.6,97.1 671.2,90.4 671.9,72.1 672.6,65.9 673.4,63.1 674.1,66.3 674.7,92.9 675.4,96.8 676.1,94.8 677.0,78.7 677.6,78.1 678.3,80.2 678.9,75.5 679.7,75.3 680.4,84.1 681.1,74.7 681.7,77.3 682.4,95.6 683.2,86.6 683.9,86.4 684.6,93.6 685.2,79.6 686.1,69.0 686.9,62.0 687.5,63.1 688.4,62.2 689.1,65.5 689.8,62.0 690.4,62.0 691.3,111.7 692.0,104.5 692.6,191.7 693.3,210.2 694.1,158.7 694.8,154.3 695.5,120.6 696.2,119.4 697.0,116.6 697.6,102.8 698.3,84.3 699.0,80.3 699.9,63.9 700.5,68.6 701.2,72.0 701.8,62.0 702.7,72.0 703.4,67.1 704.0,74.8 704.7,62.0 705.3,66.4 706.2,62.0 706.8,62.0 707.6,110.8 708.2,119.6 709.0,103.0 709.7,101.0 710.4,82.1 711.0,88.2 711.7,114.6 712.5,86.4 713.1,78.7 713.8,69.4 714.5,65.4 715.4,74.0 716.0,72.5 716.8,67.0 717.7,62.0 718.4,70.8 719.1,91.6 719.7,70.8 720.6,62.0 721.3,62.0 721.9,62.0 722.6,62.0 723.4,102.9 724.1,95.1 724.8,103.2 725.5,104.2 726.3,109.2 726.9,82.4 727.6,72.2 728.2,85.8 728.9,84.4 729.8,62.0 730.5,64.6 731.1,67.0 731.8,70.1 732.7,90.4 733.3,117.6 734.0,109.4 734.6,115.4 735.5,124.1 736.1,125.1 736.8,125.4 737.5,131.4 738.3,142.0 739.0,146.8 739.6,145.3 740.3,135.9 741.0,125.9 741.8,118.3 742.4,102.3 743.1,99.4 743.8,105.8 744.6,103.9 745.3,96.5 746.0,88.9 746.7,83.9 747.5,105.0 748.3,122.2 748.9,143.9 749.6,96.5 750.4,97.5 751.1,104.8 751.8,68.9 752.4,66.3 753.3,66.3 753.9,75.3 754.6,76.5 755.2,62.0 756.1,106.0 756.8,77.2 757.4,92.1 758.1,76.2 758.8,62.0 759.7,62.0 760.3,114.1 761.1,166.7 762.0,176.7 762.6,181.6 763.3,165.9 763.9,130.3 764.8,156.7 765.4,139.2 766.1,105.0 766.7,129.8 767.6,110.8 768.3,132.9 768.9,157.1 769.6,104.1 770.2,115.8 771.1,77.8 771.7,62.0 772.4,85.7 773.0,70.9 773.9,86.4 774.6,88.2 775.3,81.1 775.9,93.5 776.9,108.1 777.6,88.6 778.3,76.4 779.1,83.4 779.8,87.5 780.4,86.9 781.2,106.8 782.0,108.6 782.6,154.3 783.3,165.2 784.0,158.1 784.9,159.5 785.5,157.8 786.2,167.0 786.8,163.3 787.5,154.4 788.3,136.6 789.0,119.6 789.7,117.3 790.4,96.4 791.3,101.9 792.0,98.7 792.6,88.2 793.5,87.0 794.1,81.2 794.8,108.7 795.4,117.6 796.1,107.2 797.0,89.4 797.7,94.1 798.3,113.3 799.0,112.8 799.8,102.7 800.4,100.7 801.1,122.4 801.8,106.5 802.4,88.3 803.2,73.3 804.0,74.5 804.6,75.6 805.3,64.8 806.2,63.0 806.9,64.2 807.6,67.0 808.5,62.0 809.1,67.9 809.8,62.0 810.5,74.3 811.4,67.1 812.0,70.2 812.7,67.2 813.3,63.8 814.2,70.8 814.9,75.7 815.5,94.5 816.2,87.0 817.0,87.7 817.7,78.7 818.3,78.0 819.1,81.3 819.9,93.8 820.5,104.3 821.3,102.6 822.2,92.0 822.8,94.0 823.5,128.2 824.2,115.3 824.8,118.1 825.6,110.4 826.3,108.2 827.0,100.4 827.7,89.4 828.5,75.7 829.2,69.3 829.8,84.7 830.5,69.0 831.1,75.4 831.9,94.1 832.6,86.5 833.3,74.8 834.0,62.0 834.8,63.5 835.5,62.0 836.2,72.9 837.1,86.8 837.9,85.8 838.6,80.2 839.4,82.1 840.1,92.9 840.8,91.9 841.5,108.8 842.3,144.2 842.9,135.7 843.6,123.7 844.3,145.5 844.9,154.1 845.8,150.0 846.5,136.5 847.1,127.2 847.8,112.6 848.7,118.2 849.3,110.4 850.0,106.3 850.9,107.5 851.6,89.9 852.3,81.4 853.0,79.2 853.8,69.8 854.4,82.7 855.1,68.0 855.7,84.8 856.4,78.5 857.3,73.3 858.0,65.4 858.6,70.0 859.3,64.4 860.1,71.2 860.7,65.9 861.4,62.0 862.1,85.9 862.7,87.5 863.5,101.0 864.3,84.6 864.9,75.1 865.6,85.8 866.5,82.6 867.2,77.7 867.9,84.8 868.8,85.7 869.4,84.0 870.1,84.1 871.0,76.5 871.7,66.9 872.3,63.0 873.0,62.0 873.6,62.0 874.5,80.6 875.2,114.8 875.8,105.3 876.5,90.8 877.3,103.8 878.0,71.9 878.7,105.6 879.4,135.6 880.2,109.3 880.9,128.8 881.6,134.5 882.0,137.7" />
<polyline fill="none" stroke="#2563eb" stroke-width="2.2" points="78.0,62.0 78.7,62.0 79.3,62.0 80.1,62.0 80.8,68.2 81.4,80.8 82.1,70.6 82.8,62.0 83.6,63.8 84.2,67.6 85.0,62.0 85.6,63.8 86.5,62.0 87.2,62.0 87.8,111.4 88.5,69.4 89.4,75.2 90.1,75.2 90.7,65.0 91.4,90.2 92.3,71.4 92.9,68.6 93.6,67.7 94.2,62.0 95.1,100.0 95.7,110.9 96.4,139.6 97.1,124.8 97.9,150.4 98.6,137.9 99.3,174.1 100.0,147.9 100.8,150.8 101.5,148.9 102.1,151.9 102.9,155.7 103.7,152.4 104.3,166.7 105.0,165.1 105.7,146.1 106.3,140.1 107.1,132.3 107.9,124.7 108.5,125.7 109.2,141.5 110.0,127.6 110.7,138.9 111.3,142.2 112.0,134.5 112.6,116.6 113.4,118.4 114.1,123.0 114.8,115.1 115.5,112.0 116.3,110.1 117.1,101.3 117.8,123.7 118.7,126.5 119.4,122.8 120.0,118.5 120.7,122.5 121.6,127.2 122.2,133.9 122.9,126.7 123.5,157.8 124.4,162.0 125.0,158.9 125.7,143.9 126.4,133.0 127.2,125.3 127.9,126.6 128.5,107.3 129.2,114.3 130.1,116.2 130.8,119.4 131.4,125.6 132.1,127.2 133.0,133.5 133.6,121.5 134.3,128.0 134.9,121.8 135.6,128.0 136.4,133.6 137.1,133.7 137.8,150.8 139.0,219.9 139.6,193.3 140.4,192.2 141.1,189.3 141.8,195.8 142.4,195.1 143.1,185.6 143.9,174.3 144.6,178.7 145.3,170.9 145.9,186.2 146.8,173.9 147.6,173.1 148.2,179.7 149.1,184.1 149.8,174.4 150.4,180.1 151.1,165.9 152.0,158.2 152.7,152.7 153.3,152.7 154.0,153.0 154.9,159.4 155.5,148.3 156.2,150.3 156.8,159.1 157.7,162.6 158.3,148.2 159.0,152.8 159.7,154.4 160.5,167.0 161.2,167.5 161.9,176.4 162.6,176.0 163.4,212.0 164.1,251.8 164.7,206.0 165.4,203.7 166.0,203.5 166.9,194.7 167.6,211.2 168.3,215.6 168.9,230.4 169.7,238.5 170.4,235.7 171.0,221.4 171.7,219.0 172.4,217.3 173.2,224.2 173.8,218.6 174.5,206.5 175.2,221.9 176.0,227.1 176.7,232.3 177.5,226.9 178.3,216.3 179.1,237.0 179.7,246.0 180.4,250.5 181.3,237.7 182.0,244.6 182.6,243.0 183.3,237.7 184.1,232.5 184.7,235.3 185.4,235.9 186.1,226.1 187.0,217.4 187.6,211.8 188.3,209.5 188.9,207.6 189.8,192.5 190.5,188.9 191.1,184.6 191.8,189.2 192.7,182.3 193.4,186.4 194.0,191.7 194.7,191.3 195.3,202.5 196.2,185.6 196.8,181.0 197.5,163.5 198.2,171.4 199.0,168.9 199.7,184.3 200.3,164.7 201.0,155.1 201.6,166.7 202.5,151.4 203.1,158.2 203.8,163.5 204.5,151.2 205.3,145.1 206.0,146.6 206.7,136.8 207.6,124.5 208.3,126.8 209.0,124.1 209.7,132.7 210.5,133.4 211.2,127.4 211.9,130.3 212.6,125.5 213.4,144.9 214.0,146.6 214.7,136.2 215.4,133.5 216.3,131.8 216.9,131.9 217.6,140.1 218.2,151.6 218.9,155.6 219.8,146.4 220.4,147.1 221.2,138.3 222.0,139.0 222.7,139.4 223.4,137.1 224.0,146.6 224.9,142.2 225.5,153.9 226.2,150.3 226.8,144.8 227.5,137.7 228.4,134.4 229.1,128.9 229.7,126.5 230.4,121.2 231.2,131.9 231.8,126.7 232.5,123.0 233.2,110.9 233.8,106.6 234.7,98.4 235.4,112.6 236.0,102.4 236.9,98.8 237.6,110.1 238.2,107.1 239.0,104.6 239.8,93.3 240.5,81.5 241.1,69.8 241.9,63.6 242.7,63.7 243.3,75.1 244.0,85.8 244.7,75.4 245.5,76.9 246.2,92.3 246.9,97.1 247.5,90.7 248.2,104.4 249.0,93.5 249.7,82.9 250.4,78.3 251.0,64.7 251.9,66.7 252.6,68.7 253.3,67.8 253.9,62.5 254.7,64.3 255.4,67.8 256.0,75.0 256.7,69.4 257.4,65.2 258.3,70.5 258.9,66.7 259.6,62.0 260.2,88.1 261.1,95.6 261.7,93.2 262.4,85.5 263.0,85.3 263.7,74.7 264.6,71.1 265.2,65.0 265.9,63.9 266.5,67.6 267.5,62.0 268.2,66.2 269.1,64.9 269.7,63.3 270.4,79.8 271.1,75.0 272.0,74.0 272.6,79.0 273.3,64.7 273.9,64.3 274.6,64.1 275.4,67.6 276.1,62.0 276.8,65.8 277.5,62.0 278.3,83.8 278.9,101.9 279.7,90.1 280.3,113.5 281.2,118.4 281.8,106.9 282.5,87.6 283.2,100.9 284.0,105.6 284.7,98.3 285.3,100.3 286.0,93.7 286.7,92.1 287.6,87.7 288.2,86.8 288.9,86.9 289.5,83.4 290.3,79.8 291.0,76.9 291.7,67.1 292.3,70.7 293.0,72.0 293.8,66.1 294.5,65.0 295.2,65.5 295.8,62.8 296.7,66.7 297.6,67.7 298.5,62.0 299.1,62.0 299.8,62.0 300.4,66.0 301.3,62.0 302.0,79.4 302.7,82.5 303.3,83.1 304.1,66.0 304.8,62.9 305.5,62.0 306.2,62.0 307.0,70.2 307.7,62.6 308.3,62.0 309.0,74.5 309.9,62.0 310.5,83.0 311.2,73.0 311.8,75.5 312.7,62.0 313.4,63.6 314.1,75.0 314.7,94.1 315.4,104.9 316.2,109.8 316.8,110.3 317.6,88.7 318.2,89.5 319.1,73.3 319.7,67.8 320.4,62.0 321.0,62.0 321.7,66.8 322.5,70.7 323.2,93.8 323.8,105.6 324.6,92.7 325.4,80.4 326.0,94.8 326.8,78.5 327.7,92.2 328.3,104.5 329.1,132.7 329.7,122.4 330.5,130.5 331.3,123.9 331.9,122.1 332.6,142.4 333.4,145.3 334.2,132.1 334.8,119.7 335.5,121.0 336.3,99.5 336.9,112.2 337.6,105.8 338.3,91.1 338.9,97.4 339.8,98.7 340.5,104.8 341.1,100.9 341.8,119.1 342.7,138.4 343.3,148.4 344.0,159.6 344.7,156.1 345.5,159.8 346.1,157.0 346.8,148.6 347.5,165.3 348.4,172.1 349.0,184.6 349.7,188.9 350.3,254.4 351.0,244.1 351.8,272.7 352.5,231.1 353.1,253.6 353.8,269.8 354.7,259.2 355.3,249.7 356.0,245.3 356.7,245.3 357.6,230.2 358.3,253.7 359.0,253.4 359.8,256.3 360.5,258.7 361.2,266.4 361.9,288.5 362.7,305.6 363.4,282.4 364.0,274.9 364.7,268.4 365.6,263.6 366.2,265.4 366.9,258.3 367.6,253.9 368.2,264.1 369.1,250.9 369.8,241.8 370.4,237.6 371.1,249.9 371.9,248.6 372.6,265.8 373.3,242.0 374.0,224.2 374.8,213.3 375.4,213.4 376.1,213.1 376.7,201.3 377.4,205.1 378.3,186.6 379.0,184.0 379.6,200.6 380.3,185.0 381.1,177.2 381.7,192.9 382.4,203.1 383.1,188.7 383.7,188.4 384.6,184.9 385.3,187.2 385.9,190.6 386.8,174.0 387.6,166.1 388.2,163.7 389.1,182.6 389.8,183.0 390.4,195.5 391.2,180.8 392.0,174.9 392.7,164.5 393.3,155.6 394.0,151.8 394.9,145.0 395.5,139.3 396.2,130.8 396.8,125.0 397.5,165.9 398.3,152.4 399.0,173.8 399.7,160.8 400.4,169.0 401.2,161.1 401.8,191.1 402.6,182.7 403.2,184.2 404.1,161.9 404.7,162.5 405.4,171.6 406.0,175.7 406.7,181.3 407.6,175.6 408.2,169.4 408.9,168.5 409.6,163.1 410.4,156.3 411.0,154.1 411.7,148.4 412.4,139.9 413.0,148.4 413.8,147.4 414.6,143.7 415.2,136.2 415.9,130.4 416.8,124.1 417.4,120.1 418.1,114.4 419.0,114.6 419.7,97.9 420.3,97.2 421.0,83.6 421.9,87.5 422.5,91.1 423.2,113.5 423.8,90.3 424.5,79.8 425.3,87.4 426.0,92.9 426.7,76.7 427.4,92.8 428.2,101.3 428.8,103.1 429.6,98.9 430.2,111.3 431.1,108.7 431.7,101.7 432.5,86.0 433.1,93.0 433.9,85.2 434.6,111.9 435.2,155.7 435.9,142.0 436.6,131.8 437.5,127.8 438.1,124.0 438.8,133.1 439.4,128.6 440.2,118.7 440.9,117.3 441.6,110.6 442.2,106.8 442.9,105.0 443.7,123.1 444.4,107.4 445.1,111.1 445.7,112.3 446.6,96.9 447.4,99.7 448.0,101.4 448.9,98.5 449.6,94.1 450.3,91.7 450.9,89.8 451.8,89.1 452.5,96.4 453.1,76.7 453.8,78.7 454.6,72.3 455.3,87.5 456.0,86.6 456.7,76.3 457.5,90.9 458.1,102.0 458.8,106.7 459.5,122.9 460.3,112.1 461.0,93.6 461.7,102.6 462.4,95.7 463.2,98.1 463.9,103.6 464.5,91.9 465.2,87.2 465.8,84.0 466.7,87.4 467.4,89.9 468.1,81.0 468.7,76.3 469.5,79.7 470.2,76.4 470.9,70.3 471.5,80.2 472.5,85.3 473.1,102.2 473.9,91.8 474.7,86.1 475.4,76.2 476.0,72.0 476.8,83.3 477.7,65.5 478.3,62.0 479.1,62.0 479.9,67.2 480.5,62.0 481.3,72.8 481.9,65.3 482.7,62.0 483.4,68.2 484.1,62.0 484.8,65.5 485.6,74.6 486.3,66.8 486.9,69.0 487.6,62.7 488.2,62.0 489.1,62.6 489.8,80.5 490.5,69.1 491.1,81.4 491.9,71.8 492.7,62.0 493.3,62.0 494.0,62.8 494.8,62.9 495.5,68.3 496.1,83.6 496.8,85.2 497.7,74.9 498.3,65.7 499.0,69.9 499.7,70.7 500.3,65.8 501.1,62.0 501.8,62.0 502.4,62.0 503.1,62.0 503.8,62.0 504.7,67.0 505.3,68.5 506.0,62.4 506.9,63.0 507.6,67.3 508.3,62.6 509.2,82.2 509.8,87.3 510.5,67.5 511.2,62.3 512.0,65.5 512.7,65.0 513.4,67.7 514.0,77.0 514.7,74.3 515.5,84.5 516.2,73.3 516.9,70.2 517.5,75.2 518.4,75.3 519.1,68.6 519.8,62.0 520.4,66.1 521.2,62.2 521.9,62.0 522.6,66.3 523.3,68.3 524.1,64.9 524.8,83.2 525.4,76.7 526.1,66.8 526.7,62.9 527.6,70.5 528.3,69.4 528.9,81.1 529.6,78.8 530.4,101.9 531.1,86.6 531.7,72.0 532.4,62.0 533.0,62.0 533.9,62.0 534.6,62.5 535.3,70.0 535.9,64.6 536.8,66.7 537.6,62.0 538.2,62.0 539.1,66.3 539.8,73.4 540.4,76.0 541.3,70.9 542.0,72.3 542.6,86.2 543.3,72.3 544.0,76.1 544.9,74.3 545.5,69.3 546.2,67.6 546.8,73.0 547.6,72.5 548.3,65.5 549.0,64.2 549.7,68.6 550.5,70.4 551.2,62.0 551.8,70.6 552.6,70.1 553.4,62.0 554.0,69.0 554.7,64.1 555.4,73.2 556.0,99.9 556.8,98.4 557.6,105.2 558.2,89.3 558.9,103.4 559.7,91.7 560.4,87.8 561.0,82.3 561.7,79.9 562.3,80.1 563.2,91.6 563.8,79.7 564.6,86.0 565.2,91.0 566.0,87.8 566.8,78.8 567.5,100.3 568.4,101.6 569.1,101.9 569.7,89.0 570.4,95.8 571.3,83.8 571.9,77.2 572.6,69.3 573.2,63.0 574.2,62.0 574.8,67.8 575.5,64.5 576.1,71.1 576.9,69.2 577.6,67.6 578.3,80.7 578.9,69.4 579.8,62.0 580.5,66.5 581.1,63.8 581.8,62.0 582.7,62.0 583.3,63.3 584.0,73.9 584.7,71.7 585.3,65.8 586.1,65.4 586.8,65.1 587.5,62.0 588.2,76.9 589.0,76.1 589.7,67.8 590.3,68.5 591.0,68.3 591.6,71.9 592.4,73.7 593.1,62.0 593.8,62.3 594.5,63.3 595.3,63.4 596.0,63.7 596.7,69.9 597.6,65.4 598.4,65.8 599.0,62.0 599.7,65.0 600.5,62.0 601.2,65.2 601.9,67.3 602.5,67.6 603.4,69.0 604.0,74.1 604.7,76.7 605.3,84.7 606.2,69.6 606.9,66.3 607.5,63.5 608.2,72.7 608.9,62.0 609.8,63.7 610.4,70.9 611.1,68.8 611.7,80.0 612.6,76.8 613.3,62.8 613.9,66.0 614.6,66.2 615.4,65.5 616.1,66.3 616.7,62.0 617.5,65.4 618.3,65.1 619.0,71.5 619.6,64.4 620.3,62.9 620.9,62.0 621.7,63.0 622.4,64.5 623.1,70.7 623.8,62.8 624.6,62.3 625.3,62.0 625.9,64.2 626.7,64.3 627.6,62.0 628.3,62.0 629.0,62.0 629.8,97.3 630.4,91.9 631.2,81.8 631.8,83.5 632.7,64.8 633.3,77.0 634.0,101.5 634.7,102.0 635.5,88.0 636.2,97.2 636.8,90.6 637.5,74.9 638.1,73.6 639.1,79.2 639.7,63.5 640.4,62.0 641.0,65.9 641.8,68.0 642.6,63.8 643.2,64.4 643.9,73.1 644.7,66.2 645.4,65.9 646.0,65.0 646.7,62.7 647.6,72.6 648.2,65.8 648.9,63.1 649.6,72.7 650.2,91.7 651.0,95.0 651.7,109.4 652.3,89.5 653.0,96.6 653.9,99.4 654.6,88.6 655.3,88.4 656.0,123.8 656.9,123.5 657.6,112.9 658.3,106.8 659.2,110.4 659.8,98.1 660.5,93.9 661.4,88.0 662.0,88.4 662.7,82.5 663.3,79.3 664.0,77.2 664.8,74.8 665.5,71.4 666.2,66.6 666.9,64.2 667.7,91.9 668.3,83.3 669.1,95.7 669.7,82.5 670.6,78.7 671.2,73.7 671.9,62.0 672.6,62.0 673.4,65.9 674.1,66.6 674.7,86.8 675.4,87.9 676.1,87.3 677.0,73.6 677.6,69.1 678.3,67.2 678.9,65.9 679.7,65.9 680.4,66.2 681.1,63.6 681.7,62.0 682.4,66.2 683.2,62.0 683.9,62.0 684.6,68.3 685.2,62.0 686.1,62.0 686.9,62.0 687.5,64.0 688.4,63.5 689.1,68.1 689.8,62.0 690.4,62.0 691.3,98.5 692.0,96.1 692.6,176.9 693.3,196.1 694.1,147.8 694.8,140.6 695.5,108.3 696.2,104.7 697.0,105.0 697.6,92.0 698.3,78.3 699.0,71.7 699.9,62.0 700.5,70.6 701.2,73.2 701.8,62.0 702.7,70.7 703.4,65.1 704.0,69.5 704.7,62.0 705.3,62.3 706.2,62.0 706.8,62.0 707.6,103.5 708.2,111.1 709.0,96.1 709.7,97.2 710.4,73.4 711.0,84.2 711.7,111.1 712.5,76.6 713.1,70.5 713.8,62.5 714.5,62.0 715.4,70.9 716.0,65.4 716.8,62.0 717.7,62.8 718.4,69.2 719.1,89.5 719.7,73.7 720.6,62.4 721.3,64.7 721.9,66.5 722.6,62.0 723.4,81.0 724.1,70.7 724.8,69.8 725.5,65.0 726.3,66.1 726.9,62.0 727.6,76.1 728.2,76.0 728.9,68.3 729.8,64.5 730.5,74.3 731.1,80.2 731.8,77.7 732.7,86.5 733.3,94.7 734.0,90.9 734.6,88.6 735.5,86.6 736.1,89.9 736.8,88.5 737.5,94.6 738.3,104.4 739.0,112.2 739.6,114.0 740.3,106.2 741.0,94.6 741.8,81.5 742.4,71.0 743.1,73.9 743.8,83.0 744.6,89.1 745.3,88.4 746.0,81.7 746.7,75.3 747.5,90.9 748.3,105.9 748.9,128.8 749.6,96.2 750.4,99.7 751.1,107.4 751.8,89.9 752.4,88.9 753.3,80.7 753.9,68.4 754.6,64.3 755.2,62.1 756.1,91.5 756.8,91.4 757.4,92.4 758.1,95.7 758.8,65.0 759.7,62.0 760.3,107.2 761.1,111.8 762.0,114.8 762.6,116.3 763.3,112.3 763.9,83.6 764.8,93.6 765.4,77.6 766.1,72.4 766.7,88.4 767.6,74.3 768.3,95.8 768.9,117.2 769.6,111.4 770.2,121.7 771.1,99.8 771.7,81.7 772.4,85.1 773.0,71.5 773.9,71.8 774.6,72.4 775.3,65.2 775.9,76.0 776.9,81.0 777.6,62.0 778.3,70.0 779.1,70.7 779.8,67.4 780.4,69.3 781.2,84.3 782.0,77.0 782.6,108.6 783.3,119.3 784.0,106.4 784.9,107.4 785.5,100.0 786.2,115.2 786.8,111.8 787.5,103.7 788.3,89.4 789.0,83.0 789.7,71.1 790.4,64.6 791.3,67.3 792.0,67.2 792.6,62.0 793.5,73.4 794.1,69.0 794.8,86.4 795.4,99.6 796.1,92.3 797.0,74.4 797.7,78.2 798.3,100.1 799.0,101.5 799.8,101.2 800.4,95.1 801.1,119.3 801.8,106.9 802.4,100.0 803.2,87.6 804.0,89.8 804.6,94.9 805.3,78.0 806.2,71.2 806.9,86.7 807.6,74.8 808.5,62.0 809.1,70.9 809.8,62.0 810.5,66.3 811.4,62.0 812.0,65.9 812.7,65.5 813.3,63.6 814.2,66.9 814.9,72.6 815.5,88.3 816.2,79.1 817.0,74.6 817.7,68.1 818.3,64.1 819.1,69.3 819.9,75.8 820.5,79.0 821.3,80.1 822.2,67.0 822.8,66.0 823.5,95.5 824.2,90.8 824.8,96.0 825.6,81.6 826.3,78.5 827.0,74.2 827.7,70.4 828.5,62.5 829.2,63.0 829.8,68.2 830.5,64.2 831.1,69.2 831.9,80.4 832.6,64.6 833.3,64.2 834.0,62.0 834.8,66.1 835.5,66.6 836.2,71.1 837.1,79.9 837.9,75.0 838.6,63.1 839.4,68.8 840.1,68.7 840.8,66.6 841.5,78.9 842.3,114.9 842.9,114.9 843.6,99.8 844.3,127.0 844.9,147.3 845.8,138.7 846.5,134.0 847.1,129.7 847.8,120.0 848.7,122.2 849.3,121.1 850.0,118.6 850.9,119.1 851.6,112.3 852.3,108.4 853.0,106.0 853.8,101.8 854.4,104.1 855.1,97.7 855.7,106.2 856.4,105.1 857.3,102.7 858.0,96.0 858.6,90.4 859.3,82.5 860.1,85.2 860.7,77.5 861.4,62.8 862.1,79.3 862.7,80.2 863.5,86.4 864.3,75.5 864.9,73.3 865.6,77.5 866.5,74.2 867.2,72.7 867.9,73.4 868.8,68.5 869.4,62.0 870.1,67.6 871.0,62.0 871.7,69.3 872.3,78.4 873.0,85.1 873.6,74.2 874.5,72.9 875.2,79.3 875.8,76.1 876.5,74.2 877.3,73.8 878.0,78.4 878.7,77.9 879.4,93.3 880.2,80.9 880.9,98.8 881.6,97.5 882.0,95.9" />
<polyline fill="none" stroke="#334155" stroke-width="1.8" stroke-dasharray="7 5" points="78.0,62.0 78.7,74.2 79.3,89.8 80.1,79.0 80.8,76.0 81.4,88.0 82.1,65.3 82.8,62.0 83.6,62.0 84.2,66.8 85.0,66.7 85.6,68.6 86.5,68.2 87.2,62.0 87.8,92.2 88.5,62.0 89.4,78.7 90.1,81.6 90.7,80.0 91.4,100.6 92.3,93.6 92.9,95.5 93.6,64.2 94.2,62.0 95.1,69.3 95.7,72.0 96.4,95.0 97.1,88.8 97.9,97.1 98.6,83.7 99.3,104.1 100.0,80.1 100.8,89.5 101.5,78.7 102.1,86.2 102.9,78.2 103.7,69.0 104.3,80.7 105.0,89.3 105.7,82.6 106.3,73.1 107.1,66.6 107.9,73.5 108.5,73.3 109.2,86.0 110.0,90.5 110.7,110.1 111.3,121.0 112.0,113.3 112.6,93.9 113.4,116.8 114.1,117.4 114.8,127.3 115.5,121.9 116.3,124.6 117.1,122.7 117.8,135.8 118.7,124.2 119.4,112.9 120.0,108.0 120.7,127.4 121.6,138.4 122.2,152.5 122.9,142.4 123.5,180.1 124.4,177.1 125.0,194.8 125.7,174.6 126.4,149.7 127.2,142.8 127.9,144.4 128.5,135.5 129.2,133.3 130.1,140.6 130.8,145.3 131.4,155.2 132.1,156.1 133.0,164.0 133.6,157.1 134.3,165.9 134.9,154.6 135.6,165.3 136.4,170.0 137.1,174.0 137.8,192.6 139.0,231.3 139.6,211.6 140.4,204.9 141.1,193.8 141.8,198.2 142.4,198.5 143.1,185.0 143.9,175.2 144.6,183.0 145.3,170.1 145.9,183.7 146.8,177.3 147.6,170.4 148.2,176.6 149.1,184.9 149.8,186.5 150.4,198.9 151.1,189.7 152.0,188.6 152.7,170.7 153.3,173.5 154.0,175.2 154.9,178.8 155.5,180.5 156.2,183.5 156.8,200.0 157.7,206.2 158.3,190.8 159.0,194.9 159.7,200.5 160.5,211.8 161.2,207.8 161.9,230.2 162.6,225.0 163.4,247.7 164.1,287.9 164.7,251.5 165.4,252.2 166.0,244.8 166.9,238.2 167.6,256.8 168.3,257.0 168.9,272.4 169.7,280.7 170.4,285.4 171.0,265.2 171.7,259.3 172.4,253.1 173.2,259.6 173.8,252.8 174.5,240.0 175.2,247.3 176.0,248.6 176.7,254.6 177.5,248.1 178.3,242.6 179.1,258.5 179.7,270.8 180.4,274.1 181.3,266.8 182.0,274.7 182.6,276.3 183.3,271.8 184.1,262.2 184.7,264.4 185.4,261.1 186.1,252.8 187.0,245.4 187.6,238.4 188.3,236.5 188.9,239.6 189.8,227.1 190.5,220.9 191.1,213.2 191.8,221.2 192.7,214.9 193.4,215.5 194.0,219.7 194.7,219.2 195.3,222.9 196.2,215.6 196.8,216.8 197.5,205.9 198.2,209.1 199.0,207.5 199.7,216.1 200.3,202.7 201.0,198.0 201.6,204.0 202.5,196.0 203.1,198.8 203.8,200.3 204.5,194.5 205.3,190.8 206.0,188.8 206.7,182.3 207.6,172.9 208.3,172.5 209.0,165.0 209.7,169.4 210.5,166.1 211.2,162.2 211.9,164.6 212.6,159.8 213.4,177.0 214.0,181.5 214.7,169.4 215.4,165.1 216.3,166.9 216.9,165.3 217.6,170.4 218.2,179.8 218.9,180.4 219.8,170.7 220.4,167.1 221.2,166.2 222.0,166.8 222.7,170.9 223.4,175.7 224.0,181.9 224.9,174.8 225.5,183.8 226.2,178.3 226.8,174.7 227.5,171.3 228.4,166.1 229.1,171.6 229.7,170.9 230.4,168.4 231.2,171.2 231.8,171.7 232.5,160.1 233.2,150.4 233.8,150.7 234.7,149.1 235.4,146.0 236.0,139.2 236.9,138.3 237.6,144.0 238.2,144.9 239.0,151.0 239.8,146.3 240.5,139.3 241.1,135.9 241.9,135.2 242.7,130.5 243.3,139.5 244.0,148.7 244.7,147.2 245.5,144.9 246.2,154.1 246.9,153.3 247.5,147.1 248.2,153.0 249.0,139.2 249.7,136.7 250.4,136.8 251.0,132.1 251.9,139.7 252.6,138.6 253.3,126.8 253.9,124.6 254.7,124.3 255.4,125.2 256.0,129.2 256.7,131.3 257.4,129.0 258.3,124.2 258.9,131.9 259.6,125.9 260.2,136.4 261.1,138.1 261.7,136.0 262.4,129.0 263.0,123.5 263.7,117.4 264.6,114.1 265.2,114.1 265.9,109.4 266.5,109.5 267.5,107.6 268.2,102.4 269.1,110.6 269.7,106.9 270.4,109.9 271.1,101.2 272.0,100.1 272.6,105.3 273.3,95.6 273.9,96.1 274.6,97.1 275.4,97.4 276.1,93.2 276.8,92.9 277.5,87.7 278.3,98.2 278.9,113.2 279.7,100.9 280.3,112.6 281.2,116.5 281.8,115.7 282.5,103.4 283.2,117.1 284.0,107.7 284.7,104.2 285.3,105.0 286.0,94.4 286.7,95.1 287.6,88.7 288.2,86.7 288.9,85.9 289.5,79.9 290.3,74.7 291.0,70.0 291.7,63.2 292.3,69.0 293.0,64.3 293.8,62.0 294.5,63.6 295.2,64.5 295.8,62.0 296.7,64.6 297.6,68.7 298.5,62.9 299.1,62.0 299.8,62.0 300.4,66.2 301.3,62.0 302.0,79.0 302.7,79.6 303.3,85.2 304.1,69.6 304.8,67.9 305.5,64.7 306.2,62.0 307.0,66.4 307.7,62.6 308.3,62.0 309.0,67.0 309.9,62.0 310.5,76.0 311.2,69.3 311.8,71.7 312.7,63.1 313.4,62.3 314.1,72.8 314.7,85.4 315.4,94.4 316.2,94.7 316.8,97.6 317.6,83.7 318.2,81.3 319.1,70.3 319.7,62.8 320.4,62.8 321.0,70.7 321.7,70.9 322.5,82.0 323.2,88.1 323.8,107.9 324.6,86.3 325.4,75.7 326.0,94.9 326.8,86.9 327.7,107.1 328.3,116.6 329.1,126.5 329.7,112.2 330.5,130.4 331.3,123.6 331.9,120.6 332.6,143.0 333.4,147.4 334.2,130.0 334.8,118.0 335.5,129.4 336.3,113.2 336.9,111.6 337.6,110.2 338.3,100.8 338.9,116.1 339.8,114.7 340.5,127.7 341.1,126.2 341.8,145.8 342.7,146.7 343.3,157.0 344.0,152.2 344.7,150.1 345.5,135.8 346.1,147.5 346.8,142.3 347.5,155.6 348.4,169.2 349.0,171.9 349.7,179.8 350.3,260.2 351.0,252.3 351.8,281.6 352.5,229.4 353.1,275.7 353.8,308.5 354.7,287.4 355.3,264.0 356.0,259.3 356.7,269.2 357.6,249.0 358.3,278.1 359.0,282.1 359.8,283.8 360.5,282.1 361.2,297.9 361.9,311.5 362.7,330.1 363.4,297.9 364.0,285.6 364.7,279.2 365.6,271.5 366.2,274.0 366.9,266.5 367.6,255.3 368.2,262.2 369.1,253.9 369.8,246.3 370.4,242.5 371.1,249.8 371.9,247.7 372.6,262.9 373.3,246.4 374.0,230.3 374.8,222.6 375.4,224.9 376.1,224.2 376.7,213.0 377.4,217.4 378.3,205.5 379.0,202.4 379.6,212.9 380.3,198.9 381.1,190.7 381.7,201.6 382.4,206.5 383.1,193.1 383.7,191.8 384.6,185.8 385.3,189.9 385.9,189.4 386.8,179.2 387.6,175.9 388.2,171.9 389.1,188.8 389.8,186.8 390.4,197.8 391.2,184.3 392.0,181.9 392.7,173.5 393.3,164.8 394.0,164.7 394.9,157.8 395.5,154.3 396.2,151.6 396.8,150.9 397.5,182.4 398.3,173.6 399.0,193.7 399.7,184.3 400.4,187.6 401.2,180.2 401.8,204.0 402.6,194.2 403.2,195.9 404.1,179.7 404.7,177.5 405.4,187.2 406.0,191.9 406.7,195.2 407.6,186.1 408.2,174.7 408.9,174.6 409.6,167.6 410.4,160.9 411.0,160.6 411.7,155.1 412.4,142.3 413.0,149.1 413.8,149.1 414.6,146.4 415.2,137.3 415.9,133.3 416.8,128.2 417.4,122.2 418.1,119.8 419.0,117.3 419.7,111.9 420.3,106.8 421.0,100.2 421.9,103.8 422.5,105.7 423.2,127.1 423.8,109.4 424.5,101.9 425.3,104.2 426.0,108.1 426.7,92.0 427.4,98.4 428.2,101.8 428.8,105.9 429.6,106.7 430.2,120.5 431.1,118.0 431.7,111.6 432.5,92.3 433.1,104.6 433.9,97.4 434.6,125.5 435.2,169.9 435.9,162.4 436.6,150.8 437.5,154.1 438.1,146.1 438.8,166.0 439.4,165.0 440.2,143.3 440.9,133.1 441.6,127.3 442.2,120.7 442.9,119.3 443.7,143.0 444.4,125.0 445.1,128.5 445.7,133.9 446.6,117.2 447.4,111.9 448.0,109.2 448.9,100.3 449.6,96.8 450.3,87.0 450.9,83.4 451.8,79.5 452.5,85.9 453.1,68.7 453.8,70.3 454.6,62.8 455.3,79.4 456.0,76.9 456.7,67.8 457.5,79.0 458.1,91.9 458.8,95.5 459.5,109.6 460.3,98.5 461.0,81.4 461.7,90.1 462.4,82.1 463.2,82.3 463.9,87.5 464.5,74.9 465.2,64.5 465.8,62.0 466.7,64.2 467.4,66.4 468.1,62.0 468.7,64.0 469.5,69.0 470.2,69.5 470.9,62.9 471.5,78.7 472.5,73.6 473.1,96.9 473.9,78.9 474.7,78.6 475.4,72.0 476.0,69.2 476.8,80.0 477.7,64.7 478.3,62.1 479.1,62.0 479.9,67.5 480.5,62.0 481.3,71.0 481.9,65.6 482.7,62.0 483.4,66.4 484.1,62.0 484.8,67.1 485.6,74.4 486.3,66.3 486.9,66.3 487.6,63.4 488.2,62.0 489.1,64.5 489.8,79.1 490.5,70.6 491.1,83.1 491.9,76.4 492.7,65.2 493.3,62.0 494.0,63.1 494.8,62.7 495.5,65.8 496.1,80.2 496.8,81.3 497.7,71.4 498.3,62.0 499.0,70.9 499.7,74.9 500.3,67.5 501.1,62.0 501.8,62.0 502.4,62.0 503.1,62.0 503.8,62.0 504.7,65.7 505.3,69.2 506.0,62.6 506.9,62.1 507.6,65.1 508.3,62.7 509.2,79.6 509.8,86.5 510.5,68.9 511.2,64.1 512.0,65.4 512.7,64.7 513.4,66.1 514.0,69.4 514.7,68.4 515.5,77.3 516.2,65.7 516.9,63.4 517.5,64.4 518.4,65.1 519.1,62.4 519.8,62.0 520.4,65.7 521.2,62.1 521.9,62.0 522.6,66.6 523.3,63.2 524.1,64.1 524.8,78.2 525.4,71.3 526.1,62.0 526.7,62.0 527.6,66.3 528.3,62.9 528.9,73.0 529.6,72.5 530.4,94.6 531.1,78.5 531.7,68.7 532.4,62.0 533.0,62.0 533.9,62.0 534.6,62.0 535.3,70.9 535.9,62.8 536.8,64.6 537.6,68.6 538.2,78.5 539.1,75.9 539.8,72.8 540.4,62.0 541.3,62.1 542.0,64.0 542.6,79.2 543.3,67.7 544.0,74.2 544.9,70.7 545.5,63.4 546.2,62.0 546.8,64.1 547.6,64.4 548.3,62.2 549.0,64.4 549.7,70.5 550.5,72.0 551.2,63.0 551.8,73.4 552.6,73.4 553.4,62.0 554.0,69.4 554.7,67.8 555.4,71.0 556.0,95.7 556.8,96.1 557.6,102.7 558.2,91.4 558.9,104.8 559.7,91.9 560.4,87.8 561.0,84.1 561.7,68.1 562.3,65.3 563.2,75.5 563.8,66.9 564.6,75.5 565.2,84.1 566.0,81.8 566.8,72.0 567.5,104.3 568.4,113.2 569.1,113.1 569.7,105.1 570.4,116.5 571.3,103.4 571.9,88.0 572.6,86.7 573.2,73.1 574.2,71.4 574.8,68.4 575.5,64.7 576.1,64.6 576.9,66.9 577.6,65.8 578.3,74.0 578.9,63.8 579.8,62.0 580.5,71.9 581.1,69.3 581.8,66.1 582.7,62.0 583.3,62.5 584.0,63.6 584.7,63.9 585.3,62.4 586.1,63.2 586.8,64.4 587.5,63.3 588.2,72.3 589.0,70.4 589.7,69.4 590.3,71.5 591.0,71.2 591.6,74.1 592.4,72.8 593.1,62.0 593.8,62.0 594.5,66.0 595.3,62.6 596.0,62.1 596.7,66.5 597.6,63.6 598.4,63.0 599.0,62.5 599.7,62.5 600.5,62.0 601.2,62.4 601.9,65.1 602.5,66.2 603.4,66.0 604.0,69.0 604.7,70.1 605.3,74.7 606.2,65.2 606.9,62.0 607.5,62.0 608.2,69.1 608.9,62.1 609.8,63.9 610.4,62.6 611.1,65.6 611.7,67.7 612.6,66.9 613.3,62.0 613.9,62.5 614.6,62.1 615.4,64.6 616.1,66.8 616.7,65.6 617.5,64.5 618.3,62.0 619.0,63.9 619.6,62.0 620.3,62.7 620.9,62.0 621.7,63.8 622.4,62.3 623.1,67.0 623.8,62.0 624.6,63.6 625.3,62.0 625.9,64.1 626.7,64.4 627.6,62.0 628.3,62.8 629.0,62.0 629.8,100.4 630.4,96.9 631.2,89.4 631.8,91.7 632.7,75.7 633.3,86.7 634.0,105.6 634.7,105.8 635.5,92.8 636.2,100.2 636.8,99.8 637.5,84.8 638.1,86.0 639.1,89.9 639.7,75.7 640.4,73.4 641.0,78.1 641.8,83.0 642.6,74.5 643.2,69.1 643.9,66.7 644.7,62.0 645.4,64.9 646.0,62.3 646.7,64.0 647.6,67.6 648.2,62.9 648.9,66.0 649.6,66.7 650.2,89.1 651.0,90.7 651.7,102.7 652.3,80.7 653.0,94.0 653.9,103.1 654.6,98.6 655.3,106.7 656.0,145.3 656.9,129.5 657.6,115.0 658.3,102.3 659.2,107.4 659.8,91.8 660.5,89.0 661.4,80.5 662.0,81.3 662.7,77.4 663.3,69.6 664.0,73.4 664.8,62.8 665.5,62.0 666.2,63.4 666.9,62.0 667.7,83.8 668.3,74.4 669.1,86.8 669.7,72.5 670.6,69.7 671.2,68.1 671.9,62.0 672.6,62.0 673.4,66.6 674.1,64.1 674.7,84.6 675.4,89.9 676.1,89.6 677.0,80.1 677.6,64.8 678.3,63.5 678.9,70.4 679.7,74.2 680.4,64.8 681.1,63.2 681.7,63.3 682.4,62.0 683.2,62.0 683.9,62.0 684.6,67.3 685.2,62.0 686.1,62.0 686.9,62.0 687.5,63.4 688.4,63.0 689.1,69.8 689.8,62.0 690.4,62.0 691.3,98.9 692.0,98.6 692.6,191.5 693.3,217.3 694.1,169.9 694.8,164.9 695.5,144.7 696.2,139.1 697.0,138.2 697.6,133.8 698.3,118.9 699.0,108.3 699.9,81.0 700.5,95.8 701.2,106.7 701.8,94.9 702.7,91.1 703.4,76.3 704.0,76.2 704.7,62.8 705.3,62.9 706.2,62.0 706.8,62.0 707.6,94.3 708.2,96.9 709.0,92.1 709.7,91.1 710.4,73.4 711.0,77.9 711.7,102.5 712.5,64.3 713.1,64.6 713.8,62.7 714.5,62.0 715.4,69.2 716.0,66.5 716.8,62.0 717.7,65.3 718.4,62.0 719.1,70.5 719.7,62.0 720.6,62.4 721.3,63.1 721.9,81.7 722.6,62.0 723.4,66.1 724.1,63.5 724.8,62.0 725.5,62.0 726.3,62.0 726.9,67.1 727.6,81.2 728.2,69.9 728.9,64.4 729.8,62.4 730.5,65.6 731.1,62.0 731.8,62.0 732.7,63.7 733.3,64.8 734.0,62.4 734.6,62.0 735.5,62.0 736.1,62.0 736.8,62.5 737.5,70.3 738.3,81.0 739.0,81.4 739.6,80.1 740.3,71.9 741.0,62.5 741.8,62.0 742.4,63.6 743.1,63.2 743.8,73.1 744.6,73.3 745.3,69.6 746.0,63.5 746.7,64.6 747.5,74.4 748.3,88.4 748.9,109.2 749.6,91.5 750.4,101.3 751.1,118.7 751.8,104.7 752.4,120.6 753.3,94.5 753.9,77.0 754.6,92.3 755.2,101.2 756.1,110.7 756.8,123.0 757.4,147.1 758.1,150.5 758.8,124.2 759.7,123.7 760.3,161.0 761.1,148.1 762.0,156.5 762.6,159.7 763.3,139.2 763.9,125.7 764.8,124.7 765.4,107.6 766.1,124.0 766.7,141.7 767.6,126.7 768.3,152.7 768.9,166.6 769.6,163.9 770.2,179.9 771.1,158.0 771.7,152.2 772.4,162.9 773.0,142.2 773.9,140.5 774.6,142.6 775.3,136.9 775.9,154.3 776.9,154.2 777.6,139.0 778.3,138.7 779.1,133.8 779.8,118.7 780.4,120.0 781.2,138.2 782.0,129.8 782.6,143.0 783.3,141.0 784.0,129.0 784.9,122.9 785.5,118.1 786.2,128.3 786.8,127.5 787.5,120.8 788.3,113.3 789.0,114.3 789.7,102.6 790.4,90.2 791.3,93.6 792.0,90.0 792.6,80.0 793.5,74.9 794.1,72.5 794.8,83.7 795.4,93.5 796.1,89.7 797.0,80.0 797.7,82.9 798.3,97.0 799.0,101.1 799.8,96.1 800.4,92.2 801.1,111.5 801.8,97.7 802.4,87.4 803.2,73.1 804.0,72.8 804.6,69.0 805.3,62.8 806.2,62.0 806.9,71.6 807.6,62.0 808.5,62.0 809.1,70.3 809.8,62.0 810.5,64.4 811.4,62.9 812.0,64.9 812.7,63.7 813.3,62.9 814.2,66.0 814.9,70.4 815.5,84.0 816.2,75.8 817.0,68.1 817.7,62.0 818.3,63.4 819.1,65.6 819.9,62.0 820.5,62.0 821.3,62.3 822.2,62.0 822.8,62.0 823.5,82.3 824.2,80.8 824.8,89.4 825.6,66.5 826.3,64.8 827.0,75.1 827.7,64.5 828.5,62.0 829.2,66.4 829.8,62.0 830.5,63.6 831.1,66.6 831.9,74.3 832.6,63.5 833.3,68.7 834.0,62.0 834.8,64.5 835.5,64.8 836.2,65.6 837.1,70.3 837.9,72.4 838.6,63.4 839.4,71.5 840.1,65.5 840.8,64.0 841.5,76.9 842.3,103.5 842.9,103.1 843.6,95.8 844.3,121.1 844.9,123.3 845.8,128.6 846.5,106.9 847.1,98.6 847.8,75.4 848.7,77.9 849.3,74.1 850.0,67.8 850.9,69.3 851.6,62.2 852.3,62.0 853.0,62.4 853.8,62.1 854.4,69.0 855.1,62.0 855.7,69.1 856.4,64.9 857.3,62.0 858.0,63.3 858.6,68.4 859.3,62.0 860.1,69.3 860.7,63.3 861.4,62.0 862.1,74.1 862.7,72.9 863.5,75.2 864.3,64.5 864.9,62.0 865.6,66.6 866.5,64.4 867.2,63.6 867.9,64.4 868.8,62.0 869.4,68.5 870.1,71.9 871.0,71.1 871.7,72.6 872.3,75.4 873.0,86.9 873.6,103.7 874.5,86.1 875.2,62.0 875.8,63.9 876.5,62.0 877.3,62.0 878.0,71.4 878.7,62.0 879.4,76.1 880.2,65.0 880.9,77.6 881.6,70.2 882.0,68.4" />
</svg>
