<svg xmlns="http://www.w3.org/2000/svg" viewBox="0 0 960 520" role="img" aria-labelledby="title desc">
  <title id="title">SPY QQQ Sector Momentum Rotation</title>
  <desc id="desc">Equity curve, $10,000 initial capital</desc>
  <style>
    text { font-family: Inter, Arial, sans-serif; fill: #0f172a; }
    .title { font-size: 20px; font-weight: 700; }
    .subtitle { font-size: 13px; fill: #64748b; }
    .axis { font-size: 12px; fill: #64748b; }
    .legend { font-size: 13px; fill: #0f172a; }
    .bar-label { font-size: 13px; fill: #0f172a; font-weight: 600; }
  </style>
  <rect width="960" height="520" fill="#ffffff" />
  <text x="78" y="28" class="title">SPY QQQ Sector Momentum Rotation</text>
  <text x="78" y="48" class="subtitle">Equity curve, $10,000 initial capital</text>
  <rect x="78" y="62" width="804" height="340" fill="#ffffff" stroke="#e2e8f0" />
<line x1="78" x2="882" y1="341.9" y2="341.9" stroke="#e2e8f0" />
<text x="68" y="345.9" text-anchor="end" class="axis">$10K</text>
<line x1="78" x2="882" y1="273.5" y2="273.5" stroke="#e2e8f0" />
<text x="68" y="277.5" text-anchor="end" class="axis">$20K</text>
<line x1="78" x2="882" y1="183.0" y2="183.0" stroke="#e2e8f0" />
<text x="68" y="187.0" text-anchor="end" class="axis">$50K</text>
<line x1="78" x2="882" y1="114.6" y2="114.6" stroke="#e2e8f0" />
<text x="68" y="118.6" text-anchor="end" class="axis">$100K</text>
<line x1="87.4" x2="87.4" y1="62" y2="402" stroke="#e2e8f0" />
<text x="87.4" y="430" text-anchor="middle" class="axis">2000</text>
<line x1="237.3" x2="237.3" y1="62" y2="402" stroke="#e2e8f0" />
<text x="237.3" y="430" text-anchor="middle" class="axis">2005</text>
<line x1="387.2" x2="387.2" y1="62" y2="402" stroke="#e2e8f0" />
<text x="387.2" y="430" text-anchor="middle" class="axis">2010</text>
<line x1="537.0" x2="537.0" y1="62" y2="402" stroke="#e2e8f0" />
<text x="537.0" y="430" text-anchor="middle" class="axis">2015</text>
<line x1="686.8" x2="686.8" y1="62" y2="402" stroke="#e2e8f0" />
<text x="686.8" y="430" text-anchor="middle" class="axis">2020</text>
<line x1="836.7" x2="836.7" y1="62" y2="402" stroke="#e2e8f0" />
<text x="836.7" y="430" text-anchor="middle" class="axis">2025</text>
<line x1="78" x2="100" y1="438" y2="438" stroke="#0f766e" stroke-width="2.4" />
<text x="108" y="442" class="legend">Top 1 momentum</text>
<line x1="293" x2="315" y1="438" y2="438" stroke="#2563eb" stroke-width="2.3" />
<text x="323" y="442" class="legend">Top 3 momentum</text>
<line x1="508" x2="530" y1="438" y2="438" stroke="#334155" stroke-width="1.8" stroke-dasharray="7 5" />
<text x="538" y="442" class="legend">SPY buy and hold</text>
<polyline fill="none" stroke="#0f766e" stroke-width="2.4" points="78.0,341.9 78.7,341.9 79.3,341.9 80.1,341.6 80.8,341.7 81.4,347.9 82.1,344.6 82.8,340.6 83.6,335.2 84.2,331.3 85.0,328.0 85.6,325.0 86.5,319.0 87.2,310.5 87.8,324.7 88.5,309.6 89.4,310.0 90.1,310.1 90.7,300.6 91.4,304.4 92.3,296.4 92.9,292.3 93.6,294.5 94.2,286.8 95.1,300.0 95.7,305.1 96.4,314.1 97.1,308.1 97.9,315.6 98.6,312.3 99.3,325.5 100.0,325.5 100.8,322.4 101.5,323.6 102.1,325.6 102.9,328.8 103.7,329.2 104.3,333.4 105.0,330.1 105.7,324.8 106.3,324.4 107.1,323.5 107.9,320.8 108.5,318.6 109.2,322.1 110.0,318.5 110.7,319.6 111.3,320.0 112.0,320.3 112.6,314.5 113.4,313.2 114.1,315.4 114.8,313.6 115.5,315.9 116.3,314.6 117.1,315.3 117.8,316.5 118.7,317.5 119.4,316.2 120.0,315.1 120.7,316.2 121.6,320.3 122.2,322.1 122.9,322.0 123.5,327.5 124.4,328.1 125.0,325.3 125.7,316.7 126.4,315.0 127.2,313.8 127.9,312.1 128.5,304.6 129.2,309.6 130.1,308.1 130.8,310.2 131.4,312.6 132.1,313.9 133.0,316.5 133.6,309.3 134.3,309.8 134.9,310.5 135.6,310.6 136.4,310.6 137.1,309.0 137.8,313.0 139.0,332.3 139.6,323.2 140.4,322.1 141.1,322.3 141.8,321.7 142.4,321.7 143.1,322.0 143.9,320.7 144.6,321.4 145.3,320.8 145.9,324.6 146.8,320.3 147.6,321.8 148.2,322.9 149.1,323.2 149.8,320.0 150.4,323.3 151.1,319.7 152.0,317.0 152.7,317.2 153.3,316.4 154.0,316.7 154.9,320.4 155.5,315.9 156.2,317.2 156.8,318.7 157.7,320.8 158.3,317.9 159.0,319.2 159.7,318.3 160.5,319.8 161.2,322.0 161.9,326.3 162.6,326.8 163.4,335.3 164.1,347.7 164.7,337.6 165.4,336.4 166.0,336.4 166.9,333.1 167.6,338.0 168.3,339.4 168.9,342.2 169.7,343.1 170.4,340.9 171.0,335.0 171.7,337.5 172.4,336.5 173.2,335.6 173.8,334.8 174.5,334.1 175.2,340.6 176.0,342.4 176.7,344.8 177.5,345.0 178.3,345.1 179.1,347.6 179.7,351.0 180.4,351.7 181.3,345.9 182.0,350.0 182.6,348.9 183.3,344.1 184.1,342.8 184.7,345.1 185.4,345.1 186.1,339.9 187.0,337.5 187.6,338.0 188.3,336.3 188.9,332.4 189.8,327.4 190.5,327.5 191.1,325.0 191.8,326.1 192.7,320.8 193.4,319.7 194.0,321.7 194.7,321.1 195.3,326.6 196.2,320.6 196.8,318.8 197.5,314.0 198.2,315.0 199.0,314.7 199.7,319.2 200.3,313.2 201.0,310.3 201.6,313.9 202.5,309.5 203.1,311.5 203.8,313.9 204.5,310.6 205.3,310.9 206.0,312.0 206.7,309.1 207.6,306.1 208.3,309.6 209.0,310.6 209.7,312.1 210.5,311.8 211.2,309.2 211.9,307.6 212.6,305.7 213.4,308.3 214.0,309.6 214.7,307.8 215.4,307.1 216.3,304.0 216.9,302.7 217.6,303.5 218.2,307.2 218.9,308.6 219.8,305.1 220.4,306.0 221.2,301.3 222.0,301.7 222.7,299.1 223.4,298.0 224.0,299.3 224.9,297.6 225.5,301.0 226.2,302.0 226.8,300.8 227.5,296.3 228.4,294.3 229.1,290.9 229.7,289.8 230.4,286.3 231.2,290.5 231.8,287.1 232.5,289.3 233.2,289.1 233.8,285.8 234.7,282.7 235.4,288.2 236.0,286.3 236.9,286.8 237.6,287.5 238.2,288.0 239.0,287.0 239.8,283.6 240.5,281.0 241.1,280.4 241.9,280.8 242.7,279.9 243.3,284.7 244.0,285.4 244.7,281.1 245.5,283.1 246.2,286.9 246.9,288.3 247.5,287.4 248.2,293.4 249.0,289.6 249.7,284.4 250.4,281.6 251.0,276.6 251.9,277.0 252.6,276.3 253.3,277.1 253.9,273.3 254.7,271.8 255.4,270.0 256.0,273.1 256.7,270.9 257.4,266.2 258.3,265.5 258.9,260.3 259.6,259.2 260.2,268.7 261.1,269.8 261.7,270.4 262.4,267.6 263.0,273.6 263.7,269.6 264.6,269.0 265.2,264.7 265.9,262.9 266.5,265.0 267.5,264.3 268.2,266.2 269.1,266.2 269.7,262.3 270.4,269.0 271.1,271.4 272.0,271.3 272.6,272.2 273.3,268.1 273.9,268.4 274.6,267.6 275.4,266.2 276.1,261.6 276.8,264.6 277.5,260.8 278.3,264.6 278.9,269.8 279.7,268.0 280.3,273.3 281.2,276.2 281.8,270.6 282.5,264.6 283.2,264.0 284.0,266.9 284.7,261.4 285.3,262.2 286.0,262.3 286.7,261.3 287.6,259.9 288.2,260.0 288.9,259.8 289.5,260.1 290.3,259.6 291.0,257.7 291.7,254.4 292.3,255.0 293.0,254.8 293.8,254.8 294.5,253.2 295.2,252.2 295.8,251.1 296.7,251.6 297.6,253.3 298.5,253.7 299.1,252.6 299.8,251.8 300.4,252.1 301.3,250.3 302.0,255.1 302.7,256.1 303.3,255.4 304.1,251.8 304.8,251.9 305.5,251.0 306.2,250.3 307.0,251.5 307.7,248.1 308.3,247.6 309.0,248.4 309.9,245.0 310.5,249.1 311.2,245.7 311.8,246.9 312.7,241.9 313.4,242.1 314.1,240.4 314.7,247.3 315.4,248.3 316.2,248.8 316.8,249.7 317.6,242.5 318.2,241.5 319.1,237.2 319.7,238.0 320.4,235.5 321.0,233.9 321.7,235.4 322.5,237.6 323.2,240.1 323.8,241.7 324.6,240.0 325.4,237.7 326.0,242.8 326.8,238.9 327.7,242.9 328.3,247.2 329.1,252.7 329.7,252.3 330.5,253.5 331.3,253.3 331.9,251.6 332.6,256.6 333.4,258.8 334.2,255.6 334.8,255.1 335.5,256.3 336.3,255.4 336.9,255.1 337.6,255.1 338.3,252.1 338.9,251.6 339.8,253.5 340.5,250.9 341.1,251.3 341.8,250.2 342.7,257.1 343.3,262.8 344.0,267.0 344.7,266.0 345.5,270.6 346.1,268.6 346.8,263.4 347.5,271.6 348.4,274.8 349.0,278.3 349.7,281.8 350.3,298.8 351.0,295.1 351.8,303.9 352.5,292.9 353.1,299.4 353.8,305.2 354.7,301.6 355.3,298.9 356.0,298.2 356.7,298.3 357.6,295.7 358.3,301.2 359.0,301.6 359.8,302.9 360.5,302.8 361.2,303.9 361.9,316.6 362.7,321.4 363.4,312.3 364.0,310.3 364.7,307.4 365.6,305.9 366.2,306.0 366.9,303.1 367.6,301.5 368.2,308.0 369.1,302.7 369.8,301.1 370.4,299.8 371.1,301.5 371.9,300.7 372.6,305.5 373.3,298.3 374.0,293.9 374.8,290.5 375.4,287.5 376.1,286.4 376.7,280.7 377.4,284.2 378.3,280.6 379.0,278.4 379.6,283.5 380.3,277.1 381.1,276.7 381.7,281.3 382.4,285.4 383.1,280.7 383.7,281.3 384.6,280.8 385.3,283.3 385.9,285.0 386.8,281.7 387.6,281.1 388.2,280.7 389.1,284.4 389.8,282.1 390.4,285.4 391.2,280.2 392.0,278.8 392.7,276.2 393.3,273.9 394.0,272.7 394.9,271.1 395.5,269.1 396.2,266.6 396.8,265.1 397.5,274.9 398.3,271.7 399.0,276.0 399.7,273.1 400.4,274.7 401.2,274.5 401.8,283.2 402.6,281.3 403.2,282.3 404.1,273.9 404.7,273.3 405.4,276.9 406.0,278.0 406.7,279.9 407.6,279.9 408.2,280.3 408.9,280.5 409.6,278.6 410.4,277.6 411.0,277.3 411.7,278.5 412.4,275.4 413.0,277.5 413.8,276.8 414.6,275.5 415.2,273.9 415.9,273.1 416.8,270.8 417.4,269.4 418.1,269.0 419.0,271.1 419.7,268.2 420.3,269.5 421.0,265.1 421.9,262.7 422.5,264.5 423.2,268.9 423.8,263.1 424.5,260.6 425.3,262.9 426.0,264.6 426.7,261.5 427.4,267.2 428.2,269.3 428.8,267.6 429.6,266.6 430.2,269.2 431.1,270.8 431.7,268.7 432.5,265.1 433.1,267.2 433.9,267.1 434.6,274.1 435.2,283.1 435.9,279.3 436.6,275.8 437.5,274.7 438.1,273.5 438.8,273.8 439.4,272.2 440.2,271.0 440.9,270.9 441.6,269.7 442.2,267.9 442.9,267.2 443.7,270.5 444.4,267.7 445.1,269.5 445.7,268.5 446.6,264.1 447.4,266.6 448.0,267.5 448.9,268.7 449.6,267.2 450.3,267.7 450.9,266.9 451.8,266.5 452.5,267.9 453.1,263.7 453.8,263.4 454.6,262.2 455.3,266.7 456.0,266.3 456.7,264.7 457.5,267.0 458.1,270.0 458.8,270.9 459.5,274.8 460.3,272.0 461.0,267.2 461.7,268.7 462.4,266.4 463.2,267.8 463.9,268.2 464.5,266.0 465.2,265.5 465.8,264.7 466.7,265.4 467.4,265.8 468.1,263.6 468.7,262.2 469.5,261.8 470.2,261.1 470.9,259.4 471.5,261.5 472.5,262.2 473.1,265.8 473.9,262.6 474.7,262.5 475.4,260.2 476.0,257.8 476.8,259.0 477.7,254.3 478.3,253.3 479.1,251.4 479.9,251.7 480.5,249.4 481.3,251.1 481.9,250.4 482.7,246.4 483.4,247.2 484.1,247.2 484.8,247.9 485.6,247.7 486.3,245.8 486.9,245.0 487.6,241.4 488.2,239.3 489.1,239.6 489.8,244.3 490.5,242.0 491.1,245.1 491.9,242.8 492.7,239.7 493.3,238.0 494.0,238.2 494.8,238.0 495.5,238.8 496.1,241.8 496.8,241.7 497.7,239.5 498.3,237.2 499.0,239.1 499.7,239.4 500.3,238.8 501.1,236.5 501.8,234.4 502.4,233.5 503.1,232.3 503.8,231.3 504.7,231.6 505.3,231.9 506.0,231.1 506.9,229.1 507.6,229.8 508.3,228.9 509.2,233.2 509.8,234.5 510.5,229.9 511.2,228.8 512.0,228.8 512.7,227.8 513.4,228.0 514.0,230.3 514.7,230.1 515.5,233.6 516.2,230.3 516.9,229.6 517.5,232.2 518.4,234.1 519.1,232.1 519.8,230.0 520.4,231.6 521.2,229.0 521.9,227.8 522.6,229.3 523.3,230.3 524.1,229.6 524.8,235.2 525.4,234.3 526.1,232.8 526.7,231.8 527.6,235.4 528.3,235.7 528.9,239.5 529.6,240.4 530.4,245.8 531.1,241.8 531.7,238.8 532.4,236.7 533.0,237.4 533.9,235.3 534.6,233.0 535.3,233.6 535.9,232.5 536.8,234.4 537.6,234.5 538.2,232.6 539.1,231.5 539.8,233.6 540.4,238.3 541.3,238.1 542.0,239.8 542.6,241.5 543.3,236.7 544.0,238.5 544.9,239.5 545.5,237.2 546.2,236.3 546.8,239.0 547.6,239.1 548.3,238.4 549.0,238.4 549.7,240.0 550.5,239.7 551.2,236.9 551.8,238.5 552.6,238.4 553.4,235.9 554.0,237.3 554.7,237.8 555.4,239.2 556.0,244.3 556.8,243.5 557.6,243.8 558.2,240.9 558.9,243.4 559.7,240.5 560.4,239.6 561.0,238.9 561.7,235.7 562.3,234.9 563.2,238.3 563.8,235.0 564.6,237.1 565.2,239.1 566.0,239.1 566.8,237.6 567.5,241.6 568.4,241.9 569.1,241.1 569.7,236.1 570.4,237.9 571.3,235.3 571.9,236.3 572.6,232.6 573.2,230.8 574.2,229.1 574.8,230.8 575.5,230.8 576.1,233.4 576.9,230.4 577.6,229.7 578.3,232.7 578.9,230.5 579.8,228.0 580.5,226.5 581.1,226.8 581.8,222.5 582.7,222.4 583.3,223.2 584.0,224.1 584.7,223.4 585.3,223.8 586.1,222.8 586.8,222.5 587.5,218.9 588.2,224.5 589.0,224.7 589.7,221.1 590.3,220.0 591.0,219.9 591.6,221.8 592.4,223.4 593.1,224.5 593.8,222.1 594.5,222.2 595.3,218.5 596.0,217.5 596.7,219.4 597.6,218.7 598.4,219.7 599.0,217.2 599.7,217.2 600.5,215.9 601.2,213.6 601.9,212.6 602.5,212.9 603.4,214.7 604.0,216.7 604.7,217.9 605.3,220.4 606.2,217.1 606.9,217.2 607.5,216.5 608.2,219.3 608.9,217.3 609.8,217.9 610.4,220.0 611.1,219.1 611.7,221.3 612.6,220.3 613.3,216.8 613.9,216.8 614.6,218.0 615.4,218.4 616.1,218.2 616.7,217.4 617.5,217.2 618.3,215.5 619.0,216.8 619.6,214.7 620.3,213.2 620.9,211.7 621.7,209.2 622.4,207.7 623.1,208.9 623.8,206.4 624.6,205.8 625.3,205.0 625.9,205.7 626.7,205.7 627.6,202.1 628.3,200.2 629.0,198.0 629.8,206.1 630.4,204.4 631.2,201.3 631.8,200.2 632.7,195.8 633.3,199.1 634.0,205.1 634.7,203.9 635.5,202.6 636.2,203.0 636.8,201.5 637.5,200.1 638.1,199.9 639.1,199.5 639.7,199.3 640.4,198.8 641.0,199.6 641.8,198.5 642.6,196.6 643.2,195.7 643.9,196.6 644.7,196.0 645.4,196.3 646.0,195.6 646.7,195.3 647.6,196.7 648.2,195.9 648.9,195.6 649.6,196.2 650.2,199.8 651.0,200.1 651.7,202.5 652.3,199.9 653.0,200.8 653.9,202.7 654.6,203.0 655.3,204.3 656.0,214.5 656.9,211.5 657.6,208.9 658.3,206.0 659.2,208.0 659.8,205.6 660.5,204.1 661.4,202.1 662.0,201.3 662.7,199.1 663.3,199.0 664.0,198.8 664.8,199.6 665.5,200.0 666.2,199.1 666.9,197.8 667.7,205.0 668.3,202.8 669.1,205.3 669.7,201.2 670.6,201.2 671.2,199.8 671.9,195.9 672.6,194.6 673.4,194.1 674.1,193.6 674.7,199.2 675.4,200.0 676.1,199.6 677.0,196.1 677.6,196.0 678.3,196.5 678.9,195.5 679.7,195.4 680.4,197.3 681.1,195.3 681.7,195.9 682.4,199.8 683.2,197.8 683.9,197.8 684.6,199.3 685.2,196.3 686.1,194.1 686.9,191.8 687.5,190.8 688.4,188.0 689.1,187.9 689.8,184.5 690.4,183.1 691.3,193.0 692.0,191.4 692.6,213.0 693.3,218.3 694.1,204.2 694.8,203.2 695.5,195.0 696.2,194.8 697.0,194.1 697.6,191.0 698.3,187.0 699.0,186.1 699.9,182.7 700.5,182.2 701.2,181.7 701.8,178.3 702.7,175.8 703.4,173.8 704.0,175.4 704.7,169.9 705.3,170.8 706.2,166.7 706.8,161.2 707.6,170.7 708.2,172.7 709.0,169.0 709.7,168.5 710.4,164.4 711.0,165.7 711.7,171.6 712.5,165.3 713.1,163.7 713.8,161.8 714.5,160.9 715.4,162.7 716.0,162.4 716.8,161.3 717.7,156.3 718.4,156.8 719.1,161.2 719.7,156.8 720.6,153.1 721.3,148.6 721.9,146.7 722.6,141.9 723.4,150.6 724.1,148.8 724.8,150.6 725.5,150.9 726.3,152.0 726.9,146.1 727.6,142.8 728.2,143.7 728.9,143.4 729.8,136.5 730.5,136.7 731.1,137.2 731.8,137.8 732.7,142.1 733.3,148.1 734.0,146.3 734.6,147.6 735.5,149.6 736.1,149.9 736.8,149.9 737.5,151.4 738.3,153.9 739.0,155.1 739.6,154.7 740.3,152.4 741.0,150.1 741.8,148.3 742.4,144.7 743.1,144.0 743.8,145.5 744.6,145.0 745.3,143.4 746.0,141.8 746.7,140.7 747.5,145.3 748.3,149.2 748.9,154.4 749.6,143.4 750.4,143.6 751.1,145.2 751.8,137.5 752.4,132.6 753.3,132.6 753.9,132.0 754.6,132.3 755.2,127.9 756.1,135.9 756.8,129.6 757.4,130.5 758.1,126.0 758.8,117.7 759.7,113.8 760.3,124.8 761.1,137.6 762.0,140.2 762.6,141.5 763.3,137.4 763.9,128.6 764.8,135.0 765.4,130.7 766.1,122.8 766.7,128.5 767.6,124.1 768.3,129.2 768.9,135.1 769.6,122.6 770.2,125.2 771.1,116.9 771.7,113.0 772.4,115.6 773.0,111.4 773.9,114.6 774.6,115.0 775.3,113.5 775.9,116.2 776.9,119.4 777.6,115.1 778.3,112.5 779.1,114.0 779.8,114.9 780.4,114.7 781.2,119.1 782.0,119.5 782.6,130.4 783.3,133.1 784.0,131.3 784.9,131.7 785.5,131.2 786.2,133.6 786.8,132.6 787.5,130.4 788.3,126.0 789.0,122.0 789.7,121.5 790.4,116.8 791.3,118.0 792.0,117.3 792.6,115.0 793.5,114.8 794.1,113.5 794.8,119.5 795.4,121.6 796.1,119.2 797.0,115.3 797.7,116.3 798.3,120.6 799.0,120.5 799.8,118.2 800.4,117.8 801.1,122.7 801.8,119.0 802.4,115.1 803.2,111.9 804.0,112.1 804.6,112.4 805.3,108.6 806.2,107.7 806.9,107.4 807.6,107.4 808.5,105.9 809.1,104.4 809.8,100.9 810.5,102.1 811.4,100.6 812.0,99.9 812.7,99.1 813.3,98.4 814.2,99.9 814.9,100.9 815.5,104.9 816.2,103.3 817.0,103.4 817.7,101.5 818.3,101.4 819.1,102.1 819.9,104.8 820.5,107.1 821.3,106.7 822.2,104.4 822.8,104.8 823.5,112.5 824.2,109.5 824.8,110.2 825.6,108.4 826.3,107.9 827.0,106.2 827.7,103.8 828.5,100.9 829.2,99.6 829.8,102.8 830.5,99.5 831.1,100.8 831.9,104.8 832.6,103.2 833.3,100.7 834.0,97.8 834.8,93.6 835.5,90.5 836.2,92.8 837.1,95.7 837.9,95.5 838.6,94.3 839.4,94.7 840.1,97.0 840.8,96.8 841.5,100.5 842.3,108.8 842.9,106.8 843.6,103.9 844.3,109.1 844.9,111.3 845.8,110.2 846.5,107.0 847.1,104.8 847.8,101.4 848.7,102.7 849.3,100.9 850.0,100.0 850.9,100.2 851.6,96.4 852.3,94.6 853.0,94.1 853.8,92.1 854.4,94.8 855.1,91.8 855.7,95.3 856.4,93.9 857.3,92.9 858.0,90.6 858.6,88.1 859.3,85.8 860.1,85.6 860.7,84.5 861.4,79.3 862.1,84.2 862.7,84.6 863.5,87.5 864.3,84.0 864.9,82.0 865.6,84.2 866.5,83.5 867.2,82.5 867.9,84.0 868.8,84.2 869.4,83.8 870.1,83.8 871.0,82.2 871.7,80.3 872.3,79.5 873.0,75.4 873.6,69.6 874.5,73.5 875.2,81.0 875.8,78.8 876.5,75.6 877.3,78.5 878.0,71.6 878.7,78.9 879.4,85.8 880.2,79.7 880.9,84.2 881.6,85.5 882.0,86.3" />
<polyline fill="none" stroke="#2563eb" stroke-width="2.3" points="78.0,341.9 78.7,341.9 79.3,341.9 80.1,341.5 80.8,341.2 81.4,343.8 82.1,341.7 82.8,338.4 83.6,335.8 84.2,333.6 85.0,331.2 85.6,329.1 86.5,325.5 87.2,320.2 87.8,329.5 88.5,320.4 89.4,321.6 90.1,321.6 90.7,316.7 91.4,322.0 92.3,318.0 92.9,315.6 93.6,313.8 94.2,306.6 95.1,314.6 95.7,317.1 96.4,323.8 97.1,320.2 97.9,326.4 98.6,323.3 99.3,332.5 100.0,325.8 100.8,326.5 101.5,326.0 102.1,326.8 102.9,327.7 103.7,326.9 104.3,330.5 105.0,330.1 105.7,325.3 106.3,323.9 107.1,322.0 107.9,320.2 108.5,320.5 109.2,324.2 110.0,320.9 110.7,323.6 111.3,324.4 112.0,322.5 112.6,318.3 113.4,318.8 114.1,319.8 114.8,318.0 115.5,317.3 116.3,316.9 117.1,314.9 117.8,320.0 118.7,320.7 119.4,319.8 120.0,318.8 120.7,319.7 121.6,320.8 122.2,322.4 122.9,320.7 123.5,328.3 124.4,329.3 125.0,328.5 125.7,324.8 126.4,322.2 127.2,320.4 127.9,320.7 128.5,316.3 129.2,317.8 130.1,318.3 130.8,319.0 131.4,320.4 132.1,320.8 133.0,322.3 133.6,319.5 134.3,321.0 134.9,319.5 135.6,321.0 136.4,322.3 137.1,322.3 137.8,326.5 139.0,345.4 139.6,337.7 140.4,337.4 141.1,336.6 141.8,338.4 142.4,338.2 143.1,335.6 143.9,332.5 144.6,333.7 145.3,331.6 145.9,335.7 146.8,332.4 147.6,332.2 148.2,334.0 149.1,335.2 149.8,332.6 150.4,334.1 151.1,330.3 152.0,328.4 152.7,327.0 153.3,327.0 154.0,327.1 154.9,328.7 155.5,325.9 156.2,326.4 156.8,328.6 157.7,329.5 158.3,325.9 159.0,327.0 159.7,327.4 160.5,330.6 161.2,330.8 161.9,333.1 162.6,333.0 163.4,343.0 164.1,355.5 164.7,341.3 165.4,340.6 166.0,340.6 166.9,338.1 167.6,342.8 168.3,344.1 168.9,348.6 169.7,351.2 170.4,350.3 171.0,345.8 171.7,345.1 172.4,344.6 173.2,346.7 173.8,345.0 174.5,341.4 175.2,346.0 176.0,347.6 176.7,349.2 177.5,347.5 178.3,344.3 179.1,350.7 179.7,353.6 180.4,355.1 181.3,350.9 182.0,353.1 182.6,352.6 183.3,350.9 184.1,349.3 184.7,350.1 185.4,350.3 186.1,347.3 187.0,344.6 187.6,343.0 188.3,342.3 188.9,341.8 189.8,337.5 190.5,336.5 191.1,335.3 191.8,336.6 192.7,334.7 193.4,335.8 194.0,337.2 194.7,337.1 195.3,340.3 196.2,335.6 196.8,334.3 197.5,329.7 198.2,331.8 199.0,331.1 199.7,335.2 200.3,330.0 201.0,327.6 201.6,330.5 202.5,326.7 203.1,328.4 203.8,329.7 204.5,326.6 205.3,325.1 206.0,325.5 206.7,323.1 207.6,320.2 208.3,320.7 209.0,320.1 209.7,322.1 210.5,322.3 211.2,320.8 211.9,321.5 212.6,320.4 213.4,325.1 214.0,325.5 214.7,322.9 215.4,322.3 216.3,321.9 216.9,321.9 217.6,323.9 218.2,326.7 218.9,327.7 219.8,325.4 220.4,325.6 221.2,323.5 222.0,323.6 222.7,323.7 223.4,323.2 224.0,325.5 224.9,324.4 225.5,327.3 226.2,326.4 226.8,325.0 227.5,323.3 228.4,322.5 229.1,321.2 229.7,320.6 230.4,319.4 231.2,321.9 231.8,320.7 232.5,319.8 233.2,317.1 233.8,316.1 234.7,314.3 235.4,317.4 236.0,315.2 236.9,314.4 237.6,316.9 238.2,316.2 239.0,315.6 239.8,313.2 240.5,310.6 241.1,308.2 241.9,306.9 242.7,305.4 243.3,307.8 244.0,310.0 244.7,307.8 245.5,308.1 246.2,311.4 246.9,312.5 247.5,311.1 248.2,314.1 249.0,311.7 249.7,309.4 250.4,308.4 251.0,305.6 251.9,306.0 252.6,305.8 253.3,304.8 253.9,303.8 254.7,302.7 255.4,302.5 256.0,303.9 256.7,302.8 257.4,299.9 258.3,299.2 258.9,298.0 259.6,296.8 260.2,302.3 261.1,303.9 261.7,303.4 262.4,301.7 263.0,301.7 263.7,299.4 264.6,298.7 265.2,297.4 265.9,296.3 266.5,297.1 267.5,295.5 268.2,294.5 269.1,293.9 269.7,291.7 270.4,295.1 271.1,294.1 272.0,293.9 272.6,294.9 273.3,292.0 273.9,291.9 274.6,291.9 275.4,291.3 276.1,288.4 276.8,289.0 277.5,285.5 278.3,289.3 278.9,293.2 279.7,290.7 280.3,295.8 281.2,296.9 281.8,294.3 282.5,290.1 283.2,293.0 284.0,294.0 284.7,292.4 285.3,292.9 286.0,291.4 286.7,291.1 287.6,290.1 288.2,289.9 288.9,289.9 289.5,289.2 290.3,288.4 291.0,287.8 291.7,285.8 292.3,286.5 293.0,286.8 293.8,285.6 294.5,285.4 295.2,284.7 295.8,283.5 296.7,284.3 297.6,284.5 298.5,283.0 299.1,282.9 299.8,282.4 300.4,282.7 301.3,280.3 302.0,283.8 302.7,284.4 303.3,284.5 304.1,281.0 304.8,280.3 305.5,279.1 306.2,278.1 307.0,278.3 307.7,275.8 308.3,275.0 309.0,276.0 309.9,273.0 310.5,277.4 311.2,275.1 311.8,275.7 312.7,271.8 313.4,269.9 314.1,271.1 314.7,275.2 315.4,277.6 316.2,278.7 316.8,278.8 317.6,274.1 318.2,274.2 319.1,270.8 319.7,269.7 320.4,267.7 321.0,267.3 321.7,268.3 322.5,269.1 323.2,274.0 323.8,276.6 324.6,273.8 325.4,271.2 326.0,274.3 326.8,270.8 327.7,273.7 328.3,276.4 329.1,282.9 329.7,280.5 330.5,282.4 331.3,280.8 331.9,280.4 332.6,285.2 333.4,285.9 334.2,282.7 334.8,279.8 335.5,280.1 336.3,275.3 336.9,278.1 337.6,276.7 338.3,273.4 338.9,274.8 339.8,275.1 340.5,276.4 341.1,275.6 341.8,279.7 342.7,284.2 343.3,286.7 344.0,289.5 344.7,288.6 345.5,289.5 346.1,288.8 346.8,286.7 347.5,291.0 348.4,292.7 349.0,296.1 349.7,297.2 350.3,317.1 351.0,313.7 351.8,323.5 352.5,309.6 353.1,316.9 353.8,322.5 354.7,318.8 355.3,315.6 356.0,314.1 356.7,314.1 357.6,309.3 358.3,316.9 359.0,316.8 359.8,317.8 360.5,318.6 361.2,321.3 361.9,329.3 362.7,336.1 363.4,327.0 364.0,324.3 364.7,322.0 365.6,320.3 366.2,320.9 366.9,318.5 367.6,317.0 368.2,320.5 369.1,316.0 369.8,313.0 370.4,311.6 371.1,315.6 371.9,315.2 372.6,321.0 373.3,313.1 374.0,307.5 374.8,304.2 375.4,304.2 376.1,304.1 376.7,300.7 377.4,301.8 378.3,296.6 379.0,295.9 379.6,300.5 380.3,296.2 381.1,294.1 381.7,298.3 382.4,301.2 383.1,297.2 383.7,297.1 384.6,296.1 385.3,296.8 385.9,297.7 386.8,293.2 387.6,291.2 388.2,290.5 389.1,295.5 389.8,295.6 390.4,299.1 391.2,295.0 392.0,293.5 392.7,290.8 393.3,288.5 394.0,287.5 394.9,285.8 395.5,284.5 396.2,282.4 396.8,281.0 397.5,291.1 398.3,287.7 399.0,293.2 399.7,289.8 400.4,291.9 401.2,289.9 401.8,297.8 402.6,295.6 403.2,295.9 404.1,290.1 404.7,290.2 405.4,292.6 406.0,293.7 406.7,295.2 407.6,293.6 408.2,292.0 408.9,291.8 409.6,290.4 410.4,288.7 411.0,288.1 411.7,286.7 412.4,284.6 413.0,286.7 413.8,286.4 414.6,285.5 415.2,283.7 415.9,282.3 416.8,280.8 417.4,279.9 418.1,278.6 419.0,278.7 419.7,274.9 420.3,274.8 421.0,271.8 421.9,272.7 422.5,273.4 423.2,278.4 423.8,273.3 424.5,271.0 425.3,272.7 426.0,273.8 426.7,270.4 427.4,273.8 428.2,275.7 428.8,276.1 429.6,275.1 430.2,277.9 431.1,277.3 431.7,275.8 432.5,272.4 433.1,273.8 433.9,272.2 434.6,278.1 435.2,288.5 435.9,285.1 436.6,282.7 437.5,281.7 438.1,280.8 438.8,283.0 439.4,281.9 440.2,279.6 440.9,279.3 441.6,277.7 442.2,276.9 442.9,276.5 443.7,280.6 444.4,277.0 445.1,277.9 445.7,278.1 446.6,274.7 447.4,275.3 448.0,275.7 448.9,275.1 449.6,274.1 450.3,273.6 450.9,273.2 451.8,273.0 452.5,274.6 453.1,270.4 453.8,270.8 454.6,269.5 455.3,272.7 456.0,272.5 456.7,270.3 457.5,273.4 458.1,275.8 458.8,276.9 459.5,280.6 460.3,278.1 461.0,274.0 461.7,276.0 462.4,274.5 463.2,275.0 463.9,276.2 464.5,273.6 465.2,272.6 465.8,271.9 466.7,272.7 467.4,273.2 468.1,271.3 468.7,270.3 469.5,271.0 470.2,270.3 470.9,269.0 471.5,271.1 472.5,272.2 473.1,275.9 473.9,273.6 474.7,272.4 475.4,270.3 476.0,269.4 476.8,271.8 477.7,267.7 478.3,266.3 479.1,263.4 479.9,264.1 480.5,262.2 481.3,263.5 481.9,261.9 482.7,258.7 483.4,259.6 484.1,258.2 484.8,258.3 485.6,258.2 486.3,256.6 486.9,257.0 487.6,254.0 488.2,251.1 489.1,250.9 489.8,254.6 490.5,252.2 491.1,254.8 491.9,252.7 492.7,250.0 493.3,247.7 494.0,247.1 494.8,246.2 495.5,247.3 496.1,250.5 496.8,250.8 497.7,248.7 498.3,246.8 499.0,247.4 499.7,247.6 500.3,246.6 501.1,243.8 501.8,242.1 502.4,241.8 503.1,240.6 503.8,240.1 504.7,240.0 505.3,240.3 506.0,238.5 506.9,236.5 507.6,237.0 508.3,236.1 509.2,240.2 509.8,241.2 510.5,237.1 511.2,235.8 512.0,235.4 512.7,234.5 513.4,235.0 514.0,237.0 514.7,236.4 515.5,238.5 516.2,236.2 516.9,235.5 517.5,236.6 518.4,236.6 519.1,235.2 519.8,233.7 520.4,234.3 521.2,232.7 521.9,231.9 522.6,232.8 523.3,233.2 524.1,232.5 524.8,236.3 525.4,234.9 526.1,232.9 526.7,232.1 527.6,233.6 528.3,233.4 528.9,235.9 529.6,235.4 530.4,240.4 531.1,237.0 531.7,233.9 532.4,231.6 533.0,230.6 533.9,229.3 534.6,228.0 535.3,229.5 535.9,228.4 536.8,228.8 537.6,227.8 538.2,227.5 539.1,227.0 539.8,228.5 540.4,229.0 541.3,228.0 542.0,228.3 542.6,231.2 543.3,228.3 544.0,229.0 544.9,228.7 545.5,227.6 546.2,227.3 546.8,228.4 547.6,228.3 548.3,226.9 549.0,226.6 549.7,227.5 550.5,227.9 551.2,225.1 551.8,226.9 552.6,226.8 553.4,223.4 554.0,224.9 554.7,223.9 555.4,225.7 556.0,231.5 556.8,231.1 557.6,232.6 558.2,229.2 558.9,232.2 559.7,229.7 560.4,228.8 561.0,227.6 561.7,227.1 562.3,227.2 563.2,229.6 563.8,227.1 564.6,228.4 565.2,229.5 566.0,228.8 566.8,226.9 567.5,231.5 568.4,231.8 569.1,231.9 569.7,229.1 570.4,230.6 571.3,228.0 571.9,226.6 572.6,224.9 573.2,222.7 574.2,221.5 574.8,221.7 575.5,221.1 576.1,221.7 576.9,221.3 577.6,221.0 578.3,223.7 578.9,221.4 579.8,219.5 580.5,219.7 581.1,219.1 581.8,217.5 582.7,217.4 583.3,217.2 584.0,219.4 584.7,218.9 585.3,217.7 586.1,216.7 586.8,216.7 587.5,215.7 588.2,218.8 589.0,218.6 589.7,216.9 590.3,216.8 591.0,216.7 591.6,217.5 592.4,217.9 593.1,214.8 593.8,213.1 594.5,212.8 595.3,210.1 596.0,210.1 596.7,211.3 597.6,210.4 598.4,210.4 599.0,208.2 599.7,208.8 600.5,207.4 601.2,207.2 601.9,206.6 602.5,206.6 603.4,206.9 604.0,208.0 604.7,208.5 605.3,210.2 606.2,207.1 606.9,206.4 607.5,205.8 608.2,207.7 608.9,205.1 609.8,204.8 610.4,206.2 611.1,205.8 611.7,208.2 612.6,207.5 613.3,204.6 613.9,204.9 614.6,205.0 615.4,204.8 616.1,205.0 616.7,204.1 617.5,203.7 618.3,203.2 619.0,204.5 619.6,203.0 620.3,202.3 620.9,201.1 621.7,200.6 622.4,200.6 623.1,201.9 623.8,200.2 624.6,198.6 625.3,197.6 625.9,197.0 626.7,197.1 627.6,193.7 628.3,191.5 629.0,188.9 629.8,196.3 630.4,195.1 631.2,193.0 631.8,193.3 632.7,189.5 633.3,192.0 634.0,197.3 634.7,197.4 635.5,194.3 636.2,196.3 636.8,194.9 637.5,191.5 638.1,191.3 639.1,192.4 639.7,189.2 640.4,187.8 641.0,188.6 641.8,189.0 642.6,187.1 643.2,185.8 643.9,186.7 644.7,185.2 645.4,185.2 646.0,185.0 646.7,183.0 647.6,185.0 648.2,183.6 648.9,182.5 649.6,184.3 650.2,188.3 651.0,189.0 651.7,192.2 652.3,187.9 653.0,189.4 653.9,190.0 654.6,187.7 655.3,187.6 656.0,195.5 656.9,195.5 657.6,193.0 658.3,191.6 659.2,192.5 659.8,189.7 660.5,188.8 661.4,187.5 662.0,187.6 662.7,186.4 663.3,185.7 664.0,185.3 664.8,184.8 665.5,184.0 666.2,183.1 666.9,182.5 667.7,188.3 668.3,186.4 669.1,189.1 669.7,186.3 670.6,185.5 671.2,184.4 671.9,181.9 672.6,180.5 673.4,180.9 674.1,180.6 674.7,184.8 675.4,185.0 676.1,184.9 677.0,182.0 677.6,181.1 678.3,180.7 678.9,180.4 679.7,180.4 680.4,180.5 681.1,180.0 681.7,179.0 682.4,179.6 683.2,177.9 683.9,177.6 684.6,178.6 685.2,176.1 686.1,174.5 686.9,172.5 687.5,172.3 688.4,170.5 689.1,171.3 689.8,169.3 690.4,167.5 691.3,174.7 692.0,174.2 692.6,193.6 693.3,198.9 694.1,186.2 694.8,184.4 695.5,176.9 696.2,176.1 697.0,176.1 697.6,173.3 698.3,170.3 699.0,169.0 699.9,166.2 700.5,167.1 701.2,167.5 701.8,164.3 702.7,162.7 703.4,160.1 704.0,161.0 704.7,155.8 705.3,155.7 706.2,151.9 706.8,147.4 707.6,155.2 708.2,156.9 709.0,153.6 709.7,153.8 710.4,148.7 711.0,151.0 711.7,156.9 712.5,149.4 713.1,148.1 713.8,146.5 714.5,145.0 715.4,146.5 716.0,145.1 716.8,143.7 717.7,139.8 718.4,140.2 719.1,144.5 719.7,141.1 720.6,138.8 721.3,139.3 721.9,139.6 722.6,134.5 723.4,138.4 724.1,136.3 724.8,136.1 725.5,135.1 726.3,135.3 726.9,131.6 727.6,131.1 728.2,130.6 728.9,128.9 729.8,126.6 730.5,128.7 731.1,129.9 731.8,129.4 732.7,131.3 733.3,133.0 734.0,132.2 734.6,131.7 735.5,131.3 736.1,132.0 736.8,131.7 737.5,133.0 738.3,135.2 739.0,136.9 739.6,137.3 740.3,135.6 741.0,133.0 741.8,130.2 742.4,128.0 743.1,128.6 743.8,130.5 744.6,131.8 745.3,131.7 746.0,130.2 746.7,128.9 747.5,132.2 748.3,135.5 748.9,140.8 749.6,133.3 750.4,134.1 751.1,135.8 751.8,132.0 752.4,131.8 753.3,130.0 753.9,127.5 754.6,126.6 755.2,124.9 756.1,129.9 756.8,129.8 757.4,130.1 758.1,130.8 758.8,124.3 759.7,123.4 760.3,133.0 761.1,134.1 762.0,134.8 762.6,135.1 763.3,134.2 763.9,127.9 764.8,130.0 765.4,126.6 766.1,125.5 766.7,128.9 767.6,125.9 768.3,130.5 768.9,135.3 769.6,134.0 770.2,136.3 771.1,131.4 771.7,127.5 772.4,128.2 773.0,125.4 773.9,125.4 774.6,125.1 775.3,123.6 775.9,125.9 776.9,126.9 777.6,122.9 778.3,123.4 779.1,122.9 779.8,122.2 780.4,122.6 781.2,125.7 782.0,124.2 782.6,131.0 783.3,133.5 784.0,130.5 784.9,130.8 785.5,129.1 786.2,132.5 786.8,131.8 787.5,129.9 788.3,126.8 789.0,125.4 789.7,123.0 790.4,118.8 791.3,119.4 792.0,118.4 792.6,115.5 793.5,116.2 794.1,115.3 794.8,118.9 795.4,121.8 796.1,120.2 797.0,116.4 797.7,117.2 798.3,121.9 799.0,122.2 799.8,122.1 800.4,120.8 801.1,126.2 801.8,123.4 802.4,121.9 803.2,119.2 804.0,119.7 804.6,120.8 805.3,117.1 806.2,115.7 806.9,119.0 807.6,116.5 808.5,113.3 809.1,114.0 809.8,111.3 810.5,111.3 811.4,109.8 812.0,109.2 812.7,108.7 813.3,107.3 814.2,108.0 814.9,109.1 815.5,112.4 816.2,110.5 817.0,109.6 817.7,108.2 818.3,107.4 819.1,108.4 819.9,109.8 820.5,110.5 821.3,110.7 822.2,108.0 822.8,107.6 823.5,113.8 824.2,112.8 824.8,114.0 825.6,110.9 826.3,110.2 827.0,109.3 827.7,108.5 828.5,106.9 829.2,107.0 829.8,108.1 830.5,106.5 831.1,107.5 831.9,109.8 832.6,105.1 833.3,105.0 834.0,102.4 834.8,103.2 835.5,103.3 836.2,104.2 837.1,106.1 837.9,105.0 838.6,102.6 839.4,103.4 840.1,103.4 840.8,102.8 841.5,105.4 842.3,113.3 842.9,113.3 843.6,109.9 844.3,116.1 844.9,120.9 845.8,118.8 846.5,117.7 847.1,116.7 847.8,114.4 848.7,115.0 849.3,114.7 850.0,114.1 850.9,114.2 851.6,112.7 852.3,111.8 853.0,111.3 853.8,110.3 854.4,110.8 855.1,109.4 855.7,111.3 856.4,111.1 857.3,110.5 858.0,109.1 858.6,107.8 859.3,106.1 860.1,106.7 860.7,105.1 861.4,102.0 862.1,105.5 862.7,105.7 863.5,107.0 864.3,104.7 864.9,104.2 865.6,105.1 866.5,104.4 867.2,104.1 867.9,104.2 868.8,103.2 869.4,101.7 870.1,100.4 871.0,99.1 871.7,99.3 872.3,101.2 873.0,102.6 873.6,100.3 874.5,100.0 875.2,101.4 875.8,100.7 876.5,100.3 877.3,100.2 878.0,101.2 878.7,101.1 879.4,104.4 880.2,101.7 880.9,105.6 881.6,105.3 882.0,104.9" />
<polyline fill="none" stroke="#334155" stroke-width="1.8" stroke-dasharray="7 5" points="78.0,341.9 78.7,343.6 79.3,346.9 80.1,344.6 80.8,344.0 81.4,346.5 82.1,341.8 82.8,339.4 83.6,337.8 84.2,337.0 85.0,337.0 85.6,336.6 86.5,336.5 87.2,332.9 87.8,339.2 88.5,332.8 89.4,336.3 90.1,336.9 90.7,336.5 91.4,341.0 92.3,339.5 92.9,339.9 93.6,333.3 94.2,328.3 95.1,329.8 95.7,330.3 96.4,335.2 97.1,333.9 97.9,335.7 98.6,332.8 99.3,337.2 100.0,332.0 100.8,334.0 101.5,331.7 102.1,333.3 102.9,331.6 103.7,329.7 104.3,332.1 105.0,334.0 105.7,332.5 106.3,330.6 107.1,329.2 107.9,330.6 108.5,330.6 109.2,333.3 110.0,334.2 110.7,338.6 111.3,341.0 112.0,339.3 112.6,335.0 113.4,340.1 114.1,340.2 114.8,342.5 115.5,341.3 116.3,341.9 117.1,341.4 117.8,344.5 118.7,341.8 119.4,339.2 120.0,338.1 120.7,342.5 121.6,345.2 122.2,348.6 122.9,346.1 123.5,355.8 124.4,355.0 125.0,359.8 125.7,354.3 126.4,347.9 127.2,346.2 127.9,346.6 128.5,344.5 129.2,343.9 130.1,345.7 130.8,346.8 131.4,349.3 132.1,349.5 133.0,351.5 133.6,349.8 134.3,352.0 134.9,349.2 135.6,351.9 136.4,353.1 137.1,354.1 137.8,359.2 139.0,370.6 139.6,364.6 140.4,362.7 141.1,359.5 141.8,360.7 142.4,360.8 143.1,357.1 143.9,354.4 144.6,356.5 145.3,353.1 145.9,356.7 146.8,355.0 147.6,353.2 148.2,354.8 149.1,357.1 149.8,357.5 150.4,361.0 151.1,358.4 152.0,358.1 152.7,353.3 153.3,354.0 154.0,354.5 154.9,355.4 155.5,355.9 156.2,356.7 156.8,361.2 157.7,363.0 158.3,358.7 159.0,359.8 159.7,361.4 160.5,364.7 161.2,363.5 161.9,370.2 162.6,368.6 163.4,375.8 164.1,390.0 164.7,377.1 165.4,377.3 166.0,374.9 166.9,372.7 167.6,378.8 168.3,378.9 168.9,384.3 169.7,387.3 170.4,389.1 171.0,381.8 171.7,379.7 172.4,377.6 173.2,379.8 173.8,377.5 174.5,373.3 175.2,375.7 176.0,376.1 176.7,378.1 177.5,375.9 178.3,374.1 179.1,379.4 179.7,383.7 180.4,384.9 181.3,382.3 182.0,385.1 182.6,385.7 183.3,384.1 184.1,380.7 184.7,381.5 185.4,380.3 186.1,377.5 187.0,375.1 187.6,372.8 188.3,372.2 188.9,373.2 189.8,369.3 190.5,367.4 191.1,365.1 191.8,367.5 192.7,365.6 193.4,365.8 194.0,367.0 194.7,366.9 195.3,368.0 196.2,365.8 196.8,366.2 197.5,363.0 198.2,363.9 199.0,363.4 199.7,365.9 200.3,362.0 201.0,360.7 201.6,362.4 202.5,360.1 203.1,360.9 203.8,361.3 204.5,359.7 205.3,358.7 206.0,358.1 206.7,356.3 207.6,353.8 208.3,353.7 209.0,351.8 209.7,352.9 210.5,352.1 211.2,351.1 211.9,351.7 212.6,350.4 213.4,354.9 214.0,356.1 214.7,352.9 215.4,351.8 216.3,352.3 216.9,351.9 217.6,353.2 218.2,355.7 218.9,355.8 219.8,353.3 220.4,352.3 221.2,352.1 222.0,352.3 222.7,353.3 223.4,354.6 224.0,356.2 224.9,354.3 225.5,356.8 226.2,355.3 226.8,354.3 227.5,353.4 228.4,352.1 229.1,353.5 229.7,353.3 230.4,352.7 231.2,353.4 231.8,353.5 232.5,350.5 233.2,348.1 233.8,348.2 234.7,347.8 235.4,347.0 236.0,345.3 236.9,345.1 237.6,346.5 238.2,346.7 239.0,348.2 239.8,347.1 240.5,345.4 241.1,344.6 241.9,344.4 242.7,343.3 243.3,345.4 244.0,347.7 244.7,347.3 245.5,346.7 246.2,349.0 246.9,348.8 247.5,347.3 248.2,348.7 249.0,345.3 249.7,344.7 250.4,344.8 251.0,343.6 251.9,345.5 252.6,345.2 253.3,342.4 253.9,341.9 254.7,341.8 255.4,342.0 256.0,343.0 256.7,343.5 257.4,342.9 258.3,341.8 258.9,343.6 259.6,342.2 260.2,344.7 261.1,345.1 261.7,344.6 262.4,342.9 263.0,341.6 263.7,340.2 264.6,339.5 265.2,339.5 265.9,338.4 266.5,338.4 267.5,338.0 268.2,336.8 269.1,338.7 269.7,337.8 270.4,338.5 271.1,336.6 272.0,336.3 272.6,337.5 273.3,335.3 273.9,335.4 274.6,335.7 275.4,335.7 276.1,334.8 276.8,334.7 277.5,333.6 278.3,335.9 278.9,339.3 279.7,336.5 280.3,339.1 281.2,340.0 281.8,339.8 282.5,337.1 283.2,340.1 284.0,338.0 284.7,337.2 285.3,337.4 286.0,335.1 286.7,335.2 287.6,333.8 288.2,333.4 288.9,333.2 289.5,332.0 290.3,330.9 291.0,329.9 291.7,328.5 292.3,329.6 293.0,328.6 293.8,327.0 294.5,327.0 295.2,326.5 295.8,325.2 296.7,325.7 297.6,326.4 298.5,324.7 299.1,324.0 299.8,323.6 300.4,324.1 301.3,322.6 302.0,326.1 302.7,326.3 303.3,327.4 304.1,324.2 304.8,323.8 305.5,323.2 306.2,320.5 307.0,320.7 307.7,319.1 308.3,318.5 309.0,318.9 309.9,316.9 310.5,319.8 311.2,318.4 311.8,318.9 312.7,317.1 313.4,316.1 314.1,318.1 314.7,320.8 315.4,322.7 316.2,322.8 316.8,323.4 317.6,320.4 318.2,319.9 319.1,317.6 319.7,316.0 320.4,314.7 321.0,316.3 321.7,316.3 322.5,318.7 323.2,320.0 323.8,324.3 324.6,319.6 325.4,317.3 326.0,321.5 326.8,319.7 327.7,324.2 328.3,326.3 329.1,328.6 329.7,325.3 330.5,329.5 331.3,327.9 331.9,327.2 332.6,332.5 333.4,333.6 334.2,329.4 334.8,326.6 335.5,329.3 336.3,325.5 336.9,325.2 337.6,324.8 338.3,322.7 338.9,326.2 339.8,325.9 340.5,328.9 341.1,328.5 341.8,333.2 342.7,333.4 343.3,336.0 344.0,334.8 344.7,334.3 345.5,330.8 346.1,333.6 346.8,332.4 347.5,335.7 348.4,339.2 349.0,339.9 349.7,342.0 350.3,366.3 351.0,363.6 351.8,373.9 352.5,356.3 353.1,371.8 353.8,384.5 354.7,376.1 355.3,367.6 356.0,366.0 356.7,369.4 357.6,362.5 358.3,372.6 359.0,374.1 359.8,374.8 360.5,374.1 361.2,380.2 361.9,385.7 362.7,393.8 363.4,380.2 364.0,375.4 364.7,373.0 365.6,370.2 366.2,371.1 366.9,368.5 367.6,364.6 368.2,367.0 369.1,364.1 369.8,361.6 370.4,360.4 371.1,362.8 371.9,362.1 372.6,367.2 373.3,361.6 374.0,356.5 374.8,354.2 375.4,354.9 376.1,354.6 376.7,351.3 377.4,352.6 378.3,349.1 379.0,348.2 379.6,351.2 380.3,347.2 381.1,344.9 381.7,348.0 382.4,349.4 383.1,345.6 383.7,345.2 384.6,343.6 385.3,344.7 385.9,344.6 386.8,341.8 387.6,340.9 388.2,339.9 389.1,344.4 389.8,343.8 390.4,346.9 391.2,343.2 392.0,342.5 392.7,340.3 393.3,338.0 394.0,338.0 394.9,336.2 395.5,335.3 396.2,334.7 396.8,334.5 397.5,342.7 398.3,340.3 399.0,345.8 399.7,343.1 400.4,344.1 401.2,342.1 401.8,348.7 402.6,345.9 403.2,346.4 404.1,341.9 404.7,341.3 405.4,343.9 406.0,345.2 406.7,346.2 407.6,343.6 408.2,340.6 408.9,340.6 409.6,338.7 410.4,337.0 411.0,336.9 411.7,335.5 412.4,332.4 413.0,334.0 413.8,334.0 414.6,333.4 415.2,331.2 415.9,330.2 416.8,329.0 417.4,327.6 418.1,327.0 419.0,326.5 419.7,325.2 420.3,324.1 421.0,322.6 421.9,323.4 422.5,323.8 423.2,328.7 423.8,324.7 424.5,323.0 425.3,323.5 426.0,324.4 426.7,320.8 427.4,322.2 428.2,323.0 428.8,323.9 429.6,324.0 430.2,327.2 431.1,326.6 431.7,325.2 432.5,320.9 433.1,323.6 433.9,322.0 434.6,328.3 435.2,339.3 435.9,337.4 436.6,334.4 437.5,335.3 438.1,333.3 438.8,338.3 439.4,338.1 440.2,332.6 440.9,330.2 441.6,328.8 442.2,327.2 442.9,326.9 443.7,332.5 444.4,328.2 445.1,329.1 445.7,330.3 446.6,326.4 447.4,325.2 448.0,324.6 448.9,322.6 449.6,321.9 450.3,319.7 450.9,319.0 451.8,318.1 452.5,319.5 453.1,315.9 453.8,316.2 454.6,314.7 455.3,318.1 456.0,317.6 456.7,315.7 457.5,318.0 458.1,320.8 458.8,321.6 459.5,324.7 460.3,322.2 461.0,318.6 461.7,320.4 462.4,318.7 463.2,318.7 463.9,319.8 464.5,317.2 465.2,315.0 465.8,313.9 466.7,314.4 467.4,314.8 468.1,310.9 468.7,310.9 469.5,311.9 470.2,312.0 470.9,310.7 471.5,313.9 472.5,312.9 473.1,317.9 473.9,314.0 474.7,313.9 475.4,312.5 476.0,312.0 476.8,314.2 477.7,310.4 478.3,309.4 479.1,307.3 479.9,307.7 480.5,306.1 481.3,307.2 481.9,306.1 482.7,303.5 483.4,304.0 484.1,303.0 484.8,303.7 485.6,303.7 486.3,302.0 486.9,301.7 487.6,298.9 488.2,296.4 489.1,296.8 489.8,299.8 490.5,298.1 491.1,300.7 491.9,299.3 492.7,297.0 493.3,294.8 494.0,294.6 494.8,293.7 495.5,294.3 496.1,297.3 496.8,297.6 497.7,295.5 498.3,293.5 499.0,294.2 499.7,295.0 500.3,293.5 501.1,291.1 501.8,289.6 502.4,289.6 503.1,288.4 503.8,287.6 504.7,288.1 505.3,288.7 506.0,287.2 506.9,285.4 507.6,285.6 508.3,285.1 509.2,288.6 509.8,290.0 510.5,286.3 511.2,285.4 512.0,284.8 512.7,283.6 513.4,283.9 514.0,284.6 514.7,283.6 515.5,285.4 516.2,283.0 516.9,282.6 517.5,282.8 518.4,282.3 519.1,281.0 519.8,279.4 520.4,279.6 521.2,278.2 521.9,277.6 522.6,278.0 523.3,277.3 524.1,277.2 524.8,280.2 525.4,278.7 526.1,276.4 526.7,275.8 527.6,276.5 528.3,275.8 528.9,277.5 529.6,277.4 530.4,282.1 531.1,278.7 531.7,276.6 532.4,274.2 533.0,273.6 533.9,272.2 534.6,271.9 535.3,273.7 535.9,272.0 536.8,271.5 537.6,272.3 538.2,274.4 539.1,273.8 539.8,273.2 540.4,270.8 541.3,269.8 542.0,269.8 542.6,273.0 543.3,270.6 544.0,271.9 544.9,271.2 545.5,269.7 546.2,269.4 546.8,269.6 547.6,269.6 548.3,268.5 549.0,268.7 549.7,270.0 550.5,270.3 551.2,268.5 551.8,270.6 552.6,270.6 553.4,268.2 554.0,269.7 554.7,269.4 555.4,270.1 556.0,275.3 556.8,275.4 557.6,276.8 558.2,274.4 558.9,277.3 559.7,274.5 560.4,273.6 561.0,272.8 561.7,269.5 562.3,268.9 563.2,271.0 563.8,269.2 564.6,271.0 565.2,272.8 566.0,272.3 566.8,270.3 567.5,277.2 568.4,279.2 569.1,279.2 569.7,277.4 570.4,280.0 571.3,277.0 571.9,273.6 572.6,273.4 573.2,270.5 574.2,270.1 574.8,269.5 575.5,268.8 576.1,268.3 576.9,268.8 577.6,268.5 578.3,270.2 578.9,268.1 579.8,267.2 580.5,268.7 581.1,268.2 581.8,267.5 582.7,265.7 583.3,264.4 584.0,264.3 584.7,264.3 585.3,263.4 586.1,263.4 586.8,263.6 587.5,263.4 588.2,265.2 589.0,264.8 589.7,264.6 590.3,265.1 591.0,265.0 591.6,265.6 592.4,265.3 593.1,263.0 593.8,261.9 594.5,262.4 595.3,259.4 596.0,258.8 596.7,259.7 597.6,258.8 598.4,258.6 599.0,257.5 599.7,257.5 600.5,256.1 601.2,254.6 601.9,253.8 602.5,254.0 603.4,254.0 604.0,254.6 604.7,254.8 605.3,255.7 606.2,253.8 606.9,253.1 607.5,252.7 608.2,254.0 608.9,251.9 609.8,251.3 610.4,250.9 611.1,251.0 611.7,251.4 612.6,251.2 613.3,249.3 613.9,249.2 614.6,249.1 615.4,249.5 616.1,249.9 616.7,249.7 617.5,249.5 618.3,247.7 619.0,248.0 619.6,246.4 620.3,245.8 620.9,244.8 621.7,245.0 622.4,244.2 623.1,245.1 623.8,243.6 624.6,242.2 625.3,241.2 625.9,240.6 626.7,240.7 627.6,237.9 628.3,236.2 629.0,233.6 629.8,241.8 630.4,241.0 631.2,239.4 631.8,239.9 632.7,236.4 633.3,238.8 634.0,242.9 634.7,243.0 635.5,240.1 636.2,241.7 636.8,241.6 637.5,238.4 638.1,238.6 639.1,239.5 639.7,236.5 640.4,236.0 641.0,237.0 641.8,238.0 642.6,236.2 643.2,235.1 643.9,234.6 644.7,233.5 645.4,233.7 646.0,232.9 646.7,231.5 647.6,232.3 648.2,231.3 648.9,231.2 649.6,231.4 650.2,236.1 651.0,236.4 651.7,239.0 652.3,234.3 653.0,237.1 653.9,239.1 654.6,238.1 655.3,239.9 656.0,249.0 656.9,245.2 657.6,241.8 658.3,239.0 659.2,240.1 659.8,236.7 660.5,236.1 661.4,234.2 662.0,234.4 662.7,233.6 663.3,232.0 664.0,232.8 664.8,230.6 665.5,230.1 666.2,229.5 666.9,228.8 667.7,233.3 668.3,231.4 669.1,234.0 669.7,231.0 670.6,230.4 671.2,229.4 671.9,226.7 672.6,226.1 673.4,227.0 674.1,226.1 674.7,230.4 675.4,231.5 676.1,231.5 677.0,229.4 677.6,226.3 678.3,226.0 678.9,227.4 679.7,228.2 680.4,226.3 681.1,225.9 681.7,224.8 682.4,223.0 683.2,222.0 683.9,221.4 684.6,222.0 685.2,220.3 686.1,218.7 686.9,217.5 687.5,217.3 688.4,215.6 689.1,217.0 689.8,214.8 690.4,213.7 691.3,221.3 692.0,221.3 692.6,244.2 693.3,251.6 694.1,238.3 694.8,237.0 695.5,232.0 696.2,230.6 697.0,230.4 697.6,229.3 698.3,225.8 699.0,223.4 699.9,217.5 700.5,220.6 701.2,223.1 701.8,220.4 702.7,219.6 703.4,216.5 704.0,216.5 704.7,213.7 705.3,213.0 706.2,211.2 706.8,208.4 707.6,213.8 708.2,214.4 709.0,213.3 709.7,213.1 710.4,209.4 711.0,210.3 711.7,215.6 712.5,207.5 713.1,205.8 713.8,205.3 714.5,203.3 715.4,204.7 716.0,203.6 716.8,201.8 717.7,200.6 718.4,199.2 719.1,200.9 719.7,198.3 720.6,197.1 721.3,197.2 721.9,201.1 722.6,196.7 723.4,196.7 724.1,196.2 724.8,192.8 725.5,190.7 726.3,190.6 726.9,191.1 727.6,193.5 728.2,191.2 728.9,190.0 729.8,189.5 730.5,189.5 731.1,188.5 731.8,186.5 732.7,186.1 733.3,186.4 734.0,185.0 734.6,184.6 735.5,183.6 736.1,183.4 736.8,182.5 737.5,183.9 738.3,186.2 739.0,186.2 739.6,186.0 740.3,184.2 741.0,181.9 741.8,180.4 742.4,178.8 743.1,178.7 743.8,180.6 744.6,180.7 745.3,179.7 746.0,178.4 746.7,176.9 747.5,178.9 748.3,181.9 748.9,186.4 749.6,182.5 750.4,184.7 751.1,188.6 751.8,185.4 752.4,189.0 753.3,183.2 753.9,179.4 754.6,182.7 755.2,184.7 756.1,186.8 756.8,189.6 757.4,195.4 758.1,196.2 758.8,189.9 759.7,189.8 760.3,198.8 761.1,195.6 762.0,197.7 762.6,198.5 763.3,193.4 763.9,190.2 764.8,190.0 765.4,186.1 766.1,189.8 766.7,194.0 767.6,190.5 768.3,196.7 768.9,200.3 769.6,199.6 770.2,203.8 771.1,198.1 771.7,196.6 772.4,199.3 773.0,194.2 773.9,193.7 774.6,194.3 775.3,192.9 775.9,197.2 776.9,197.1 777.6,193.4 778.3,193.3 779.1,192.1 779.8,188.6 780.4,188.9 781.2,193.2 782.0,191.2 782.6,194.3 783.3,193.9 784.0,191.0 784.9,189.6 785.5,188.5 786.2,190.8 786.8,190.6 787.5,189.1 788.3,187.4 789.0,187.6 789.7,185.0 790.4,182.3 791.3,183.0 792.0,182.2 792.6,180.1 793.5,179.0 794.1,178.5 794.8,180.8 795.4,183.0 796.1,182.1 797.0,180.1 797.7,180.7 798.3,183.7 799.0,184.6 799.8,183.5 800.4,182.7 801.1,187.0 801.8,183.9 802.4,181.6 803.2,178.6 804.0,178.6 804.6,177.8 805.3,175.0 806.2,173.7 806.9,175.4 807.6,173.5 808.5,171.8 809.1,172.2 809.8,169.1 810.5,168.9 811.4,167.4 812.0,166.9 812.7,165.9 813.3,164.4 814.2,164.8 814.9,165.7 815.5,168.6 816.2,166.8 817.0,165.2 817.7,164.0 818.3,162.7 819.1,163.2 819.9,161.7 820.5,159.3 821.3,159.4 822.2,157.8 822.8,156.1 823.5,160.3 824.2,160.0 824.8,161.8 825.6,157.0 826.3,156.7 827.0,158.8 827.7,156.6 828.5,155.0 829.2,155.1 829.8,153.7 830.5,152.8 831.1,153.3 831.9,154.9 832.6,150.4 833.3,151.4 834.0,149.4 834.8,149.1 835.5,149.1 836.2,149.3 837.1,150.3 837.9,150.7 838.6,148.2 839.4,149.9 840.1,148.6 840.8,147.8 841.5,150.5 842.3,156.2 842.9,156.1 843.6,154.5 844.3,160.2 844.9,160.7 845.8,162.0 846.5,157.0 847.1,155.1 847.8,150.2 848.7,150.7 849.3,149.9 850.0,148.6 850.9,148.9 851.6,146.1 852.3,144.8 853.0,144.5 853.8,143.0 854.4,144.4 855.1,141.8 855.7,143.2 856.4,141.8 857.3,141.0 858.0,139.6 858.6,139.5 859.3,137.9 860.1,138.8 860.7,137.6 861.4,135.2 862.1,137.7 862.7,137.5 863.5,137.9 864.3,135.7 864.9,135.0 865.6,135.9 866.5,135.0 867.2,134.6 867.9,134.3 868.8,133.8 869.4,135.1 870.1,135.8 871.0,135.7 871.7,136.0 872.3,136.5 873.0,139.0 873.6,142.6 874.5,138.8 875.2,132.9 875.8,131.7 876.5,130.0 877.3,127.5 878.0,128.2 878.7,125.5 879.4,127.7 880.2,125.4 880.9,128.0 881.6,126.5 882.0,126.1" />
<text x="78" y="484" class="subtitle">Log scale. Rotation variants use 5 bps base costs and one-day-lagged month-end weights.</text>
</svg>
