<svg xmlns="http://www.w3.org/2000/svg" viewBox="0 0 960 520" role="img">
<title>Multi-Asset ETF Rotation Drawdowns</title><desc>Common complete-universe sample; one-day-lagged weights</desc>
<style>text{font-family:Arial,sans-serif;fill:#0f172a}.a{font-size:12px;fill:#64748b}.l{font-size:13px}</style>
<rect width="960" height="520" fill="white"/><text x="70" y="30" font-size="20" font-weight="700">Multi-Asset ETF Rotation Drawdowns</text>
<text x="70" y="50" class="a">Common complete-universe sample; one-day-lagged weights</text><rect x="75" y="65" width="810" height="350" fill="white" stroke="#cbd5e1"/><line x1="75" x2="885" y1="65.0" y2="65.0" stroke="#e2e8f0"/><text x="67" y="69.0" text-anchor="end" class="a">0%</text><line x1="75" x2="885" y1="152.5" y2="152.5" stroke="#e2e8f0"/><text x="67" y="156.5" text-anchor="end" class="a">-14%</text><line x1="75" x2="885" y1="240.0" y2="240.0" stroke="#e2e8f0"/><text x="67" y="244.0" text-anchor="end" class="a">-28%</text><line x1="75" x2="885" y1="327.5" y2="327.5" stroke="#e2e8f0"/><text x="67" y="331.5" text-anchor="end" class="a">-41%</text><line x1="75" x2="885" y1="415.0" y2="415.0" stroke="#e2e8f0"/><text x="67" y="419.0" text-anchor="end" class="a">-55%</text><polyline fill="none" stroke="#334155" stroke-width="2.2" points="75.0,65.0 75.8,69.2 76.6,67.7 77.3,66.3 78.2,65.0 79.0,65.0 79.8,66.6 80.6,65.0 81.3,66.8 82.1,65.0 82.9,67.0 83.7,65.0 84.5,69.5 85.2,65.8 86.0,65.0 86.8,65.0 87.7,67.0 88.5,65.5 89.3,65.1 90.0,65.9 90.9,66.3 92.1,70.9 93.0,66.2 93.8,66.9 94.6,70.1 95.4,65.0 96.2,67.4 97.0,65.3 97.8,87.2 98.6,93.1 99.4,94.4 100.2,74.5 100.9,80.9 101.7,72.0 102.6,68.5 103.4,65.2 104.2,65.0 105.0,65.0 105.7,71.6 106.5,66.3 107.3,71.5 108.2,65.0 109.0,77.6 109.7,66.5 110.5,76.9 111.3,77.4 112.4,66.4 113.2,65.1 114.0,69.5 114.8,96.4 115.5,101.2 116.3,105.2 117.1,107.7 117.9,98.2 118.8,89.5 119.5,96.0 120.3,75.7 121.1,77.1 121.9,66.0 122.7,65.0 123.4,75.9 124.2,84.1 125.0,78.9 125.8,82.9 126.6,99.0 127.3,113.0 128.2,102.9 129.0,96.1 129.8,93.8 130.6,108.0 131.5,97.5 132.3,123.4 133.1,128.2 133.9,161.1 135.0,148.2 135.8,137.7 136.6,154.2 137.5,147.0 138.2,135.5 139.0,157.3 139.8,158.9 140.6,154.7 141.5,153.8 142.3,139.5 143.0,143.0 143.8,138.9 144.6,135.3 145.4,133.1 146.2,127.9 146.9,122.8 147.7,128.0 148.6,126.0 149.4,122.8 150.2,148.7 150.9,148.8 151.7,171.5 152.5,179.4 153.4,189.6 154.2,180.8 155.0,182.8 155.7,180.0 156.5,166.8 157.3,163.5 158.1,165.7 158.9,169.2 160.0,176.6 160.7,205.0 161.5,197.1 162.3,238.2 163.1,265.8 163.9,279.7 164.6,290.2 165.4,351.7 166.2,297.3 167.0,315.8 167.8,345.4 168.5,347.3 169.4,346.3 170.2,328.8 171.0,318.9 171.8,339.7 172.7,322.7 173.5,319.3 174.3,347.0 175.2,352.4 176.0,353.6 176.8,336.3 177.6,353.9 178.7,387.7 179.5,404.6 180.2,415.0 181.0,382.7 181.8,353.7 182.6,368.1 183.3,347.9 184.2,344.7 185.0,341.7 185.8,339.6 186.6,318.6 187.4,316.9 188.1,316.3 189.0,322.4 189.8,305.6 190.6,302.5 191.4,314.5 192.1,318.3 192.9,309.0 193.8,326.6 194.6,305.7 195.4,286.5 196.2,282.2 196.9,277.0 197.7,269.9 198.5,272.4 199.3,262.2 200.1,273.8 200.9,256.4 201.7,246.0 202.5,255.7 203.3,264.0 204.1,243.7 204.8,236.8 205.6,240.3 206.4,259.5 207.2,244.3 208.0,233.7 208.7,234.5 209.9,232.4 210.6,228.5 211.4,224.2 212.2,223.9 213.1,218.7 214.0,213.8 214.8,209.9 215.6,222.3 216.4,235.7 217.2,244.8 218.0,237.6 218.9,224.7 219.7,226.4 220.4,211.5 221.2,206.3 222.0,202.1 222.8,199.5 223.9,190.1 224.7,185.9 225.4,185.6 226.2,179.0 227.0,183.3 227.8,201.3 228.6,210.7 229.3,237.5 230.2,238.2 231.0,242.1 231.8,219.1 232.6,227.3 233.3,250.4 234.2,242.2 235.0,226.9 235.8,238.0 236.6,221.8 237.4,212.6 238.1,228.4 238.9,226.3 239.7,242.9 240.5,232.1 241.4,221.5 242.1,212.3 242.9,212.1 243.7,205.0 244.5,197.4 245.3,190.6 246.0,187.7 246.8,186.5 247.6,169.8 248.4,172.5 249.2,179.8 250.1,184.8 250.8,167.1 251.6,160.2 252.4,158.1 253.5,152.3 254.3,146.2 255.1,146.5 256.0,135.4 256.7,136.9 257.5,130.1 258.3,122.1 259.1,120.2 260.0,128.9 260.7,128.1 261.5,122.9 262.3,149.9 263.1,132.3 263.9,118.8 264.6,114.9 265.4,124.5 266.2,117.3 267.1,104.2 267.9,115.1 268.6,108.7 269.4,110.4 270.2,117.7 271.1,129.0 271.9,141.4 272.7,141.0 273.4,142.1 274.2,110.8 275.3,119.4 276.1,125.4 276.9,111.2 277.7,133.4 278.4,206.0 279.2,169.3 280.0,203.9 280.8,166.0 281.7,185.2 282.5,181.9 283.2,168.5 284.0,180.1 284.8,203.1 285.6,170.6 286.4,157.9 287.1,155.8 287.9,160.4 288.7,134.5 289.5,142.4 290.3,172.8 291.1,147.2 291.9,139.5 292.7,161.6 293.5,147.4 294.4,138.7 295.3,131.6 296.0,126.6 297.2,114.3 297.9,115.4 298.7,101.7 299.5,97.6 300.4,92.7 301.2,87.9 301.9,100.3 302.7,76.7 303.5,72.3 304.3,69.1 305.1,68.7 306.0,87.7 306.7,80.5 307.5,77.9 308.3,72.9 309.1,93.3 309.8,106.3 310.6,108.8 311.5,112.4 312.3,109.8 313.1,103.4 313.9,105.0 314.6,103.4 315.5,91.3 316.3,90.1 317.1,86.9 317.9,77.0 318.6,74.0 319.4,67.3 320.2,65.0 321.0,68.0 321.8,69.6 322.9,68.6 323.7,67.2 324.4,68.5 325.2,74.1 326.0,68.5 326.8,75.3 327.6,78.2 328.6,87.1 329.3,94.2 330.1,110.6 330.9,95.3 331.8,83.8 332.6,84.4 333.3,81.6 334.1,70.8 335.0,88.5 336.1,66.7 336.9,65.5 337.8,65.0 338.6,65.0 339.4,65.8 340.1,65.0 341.0,72.9 341.8,70.5 342.6,65.0 343.4,65.5 344.1,66.4 344.9,65.0 345.8,68.9 346.6,65.0 347.4,85.1 348.2,67.7 348.9,65.0 349.7,66.8 350.5,68.0 351.3,71.5 352.2,79.1 352.9,74.0 353.7,80.1 354.5,92.5 355.3,87.4 356.4,73.9 357.2,65.0 358.0,65.0 358.7,68.4 359.5,65.9 360.3,71.8 361.1,87.9 361.9,83.4 362.7,89.3 363.5,72.7 364.3,65.0 365.1,74.9 365.9,75.6 366.6,89.8 367.4,74.2 368.2,65.0 369.0,65.0 369.8,68.2 370.5,66.3 371.3,68.6 372.1,65.5 373.0,69.9 373.8,74.4 374.5,65.0 375.4,65.0 376.3,71.2 377.1,66.9 377.9,68.6 379.0,87.9 379.8,101.1 380.6,81.1 381.5,66.5 382.2,65.2 383.0,65.0 383.8,68.5 384.6,67.0 385.3,68.8 386.1,65.0 386.9,77.7 387.7,80.7 388.6,69.8 389.4,66.9 390.1,68.4 390.9,68.0 391.7,67.8 392.6,65.0 393.4,65.0 394.1,71.7 394.9,65.0 395.7,66.6 396.5,65.0 397.4,70.1 398.2,66.6 398.9,68.0 399.7,84.6 400.5,82.3 401.3,74.4 402.1,66.0 402.8,65.0 403.9,66.6 404.7,71.7 405.5,70.5 406.3,75.5 407.1,79.5 407.8,107.5 408.6,98.4 409.4,79.9 410.2,65.0 411.0,65.0 411.7,65.0 412.5,65.0 413.4,66.7 414.2,69.7 415.0,95.8 415.7,65.0 416.6,74.7 417.5,73.6 418.3,94.5 419.2,76.4 420.0,93.2 420.8,74.6 421.5,65.0 422.7,65.1 423.4,65.0 424.2,75.9 425.0,75.2 425.8,68.1 426.5,73.4 427.4,76.3 428.2,69.7 429.0,69.4 429.8,65.6 430.6,73.2 431.3,70.0 432.1,65.2 433.0,67.4 433.8,69.7 434.6,72.6 435.3,73.6 436.1,70.9 436.9,79.8 437.8,87.6 438.6,65.5 439.4,72.2 440.1,70.3 440.9,77.6 441.7,76.7 442.5,90.7 443.3,104.7 444.0,115.8 444.9,112.3 445.7,113.1 446.5,120.9 447.3,114.4 448.0,95.5 448.8,89.7 449.6,76.9 450.4,75.7 451.2,69.3 451.9,91.8 452.7,71.5 453.8,73.4 454.6,74.4 455.4,90.8 456.2,90.8 457.1,73.6 458.0,99.4 458.7,129.6 459.6,136.0 460.4,128.7 461.2,121.2 462.0,147.6 462.9,120.0 463.6,110.7 464.4,94.6 465.2,87.6 466.0,79.5 467.1,83.0 467.9,73.8 468.6,80.6 469.4,65.0 470.2,69.5 471.0,71.4 471.8,77.7 472.5,75.0 473.3,79.8 474.2,66.2 475.0,65.0 475.8,77.9 476.5,73.5 477.3,89.2 478.2,69.8 479.0,65.1 479.8,65.0 480.6,67.1 481.3,68.1 482.1,66.6 482.9,67.1 483.7,68.6 484.5,69.9 485.3,66.7 486.1,76.0 486.9,67.4 487.7,74.6 488.5,71.4 489.2,79.5 490.0,77.0 490.8,79.0 491.6,91.8 492.4,68.1 493.1,65.0 494.0,65.0 494.8,70.3 495.6,65.0 496.4,68.9 497.1,67.0 498.4,68.3 499.2,67.1 500.0,66.3 500.8,65.0 501.6,70.4 502.4,65.9 503.2,65.0 504.1,65.1 504.8,69.0 505.6,72.7 506.4,68.4 507.2,77.5 508.0,71.5 508.7,73.8 509.5,81.6 510.4,76.0 511.2,66.8 512.0,65.0 512.7,67.4 513.5,70.3 514.3,65.1 515.4,65.5 516.2,67.1 517.0,65.0 517.7,68.6 518.5,71.4 519.4,71.4 520.2,65.0 521.0,65.0 521.8,65.3 522.5,66.6 523.3,68.5 524.1,71.2 524.9,72.7 525.8,67.5 526.5,65.0 527.3,65.0 528.1,65.0 528.9,65.0 529.7,65.0 530.4,65.0 531.2,69.5 532.0,65.5 532.8,65.0 533.6,71.5 534.3,65.6 535.2,65.0 536.0,67.2 536.8,67.7 537.6,66.5 538.5,68.2 539.6,65.0 540.5,67.2 541.2,65.0 542.0,75.7 542.8,103.6 543.6,110.5 544.5,101.6 545.3,98.0 546.0,95.5 546.8,90.0 547.6,98.3 548.4,121.9 549.3,109.0 550.0,108.3 550.8,101.8 551.6,107.5 552.4,115.7 553.2,94.8 553.9,94.8 554.7,93.1 555.6,91.3 556.4,81.1 557.2,80.7 557.9,86.0 558.7,93.7 559.8,79.0 560.6,75.8 561.4,73.8 562.2,74.4 563.0,65.0 563.7,72.7 564.5,65.0 565.3,65.0 566.2,68.6 567.0,70.3 567.7,66.2 568.5,68.3 569.3,66.5 570.1,75.5 570.9,90.7 571.6,105.5 572.4,118.1 573.2,102.2 574.0,108.8 574.8,126.1 575.7,103.4 576.5,113.6 577.3,123.3 578.1,162.8 579.0,158.4 580.1,144.0 580.9,137.4 581.8,125.5 582.6,124.3 583.3,103.1 584.1,100.9 585.0,91.5 585.8,89.8 586.6,93.9 587.3,85.1 588.1,82.0 588.9,86.1 589.7,71.3 590.5,67.2 591.2,66.6 592.1,66.8 592.9,71.1 593.7,80.9 594.5,78.7 595.3,90.6 596.1,105.5 596.9,78.8 597.7,75.3 598.5,65.9 599.3,68.1 600.4,69.2 601.2,65.0 601.9,71.0 602.7,66.2 603.5,103.2 604.3,94.3 605.1,85.3 605.8,94.4 606.7,88.7 607.5,73.1 608.3,67.3 609.1,75.0 609.8,80.6 610.6,90.5 611.4,68.7 612.2,68.4 613.0,65.2 613.7,65.7 614.5,65.0 615.3,65.2 616.1,65.0 617.0,73.1 617.7,67.1 618.5,65.0 619.4,65.0 620.3,69.8 621.1,66.8 621.9,65.0 623.0,81.1 623.8,80.0 624.5,65.0 625.4,66.6 626.2,113.2 627.0,136.4 627.8,158.6 628.5,225.3 629.3,240.7 630.1,213.2 630.9,199.3 631.8,175.5 632.6,173.0 633.3,146.4 634.1,163.3 634.9,168.2 635.7,139.3 636.6,128.0 637.3,112.1 638.1,132.4 638.9,111.3 639.7,117.1 640.5,107.9 641.4,97.8 642.1,89.9 642.9,91.5 643.7,80.8 644.5,65.6 645.3,66.1 646.0,65.0 646.8,65.0 647.6,91.8 648.7,99.1 649.5,117.2 650.3,104.3 651.0,94.4 651.8,71.8 652.6,90.4 653.4,95.1 654.2,111.4 654.9,68.1 655.7,65.0 656.5,73.9 657.4,65.0 658.2,65.0 658.9,66.0 659.7,70.9 660.6,65.3 661.5,65.0 662.3,69.7 663.2,67.2 664.0,88.6 664.7,65.0 665.5,65.0 666.6,74.1 667.4,69.9 668.2,82.6 669.0,65.0 669.7,70.4 670.5,65.3 671.4,65.4 672.2,65.0 673.0,72.7 673.8,65.1 674.5,71.7 675.3,76.9 676.1,80.3 676.9,70.8 677.8,67.7 678.5,66.4 679.3,69.7 680.1,66.9 680.9,65.0 681.8,70.2 682.6,68.4 683.3,67.4 684.1,65.5 684.9,65.0 685.7,65.0 686.5,75.1 687.2,68.7 688.0,65.0 688.9,75.8 689.7,79.5 690.5,76.0 691.2,89.6 692.0,84.5 692.8,73.2 693.6,65.7 694.4,65.0 695.1,65.0 695.9,67.2 696.7,66.1 697.8,71.9 698.6,79.8 699.4,70.6 700.1,84.1 701.0,65.5 701.8,65.2 702.6,75.6 703.5,99.5 704.3,123.8 705.0,92.0 705.8,91.8 706.6,106.3 707.5,130.6 708.3,120.8 709.1,134.3 709.8,113.6 710.6,99.3 711.4,97.7 712.2,101.6 713.0,116.2 713.8,131.8 714.6,150.5 715.4,151.4 716.2,164.2 717.0,180.3 717.7,146.2 718.9,150.8 719.6,199.8 720.5,197.6 721.3,190.1 722.2,186.6 723.0,192.5 723.8,171.2 724.5,162.8 725.3,144.9 726.1,137.5 726.9,128.6 727.7,145.9 728.4,170.7 729.3,163.7 730.1,177.4 730.9,196.6 731.7,212.0 732.4,198.0 733.2,207.7 734.0,208.5 734.8,188.9 735.6,200.9 736.3,169.1 737.1,169.8 738.0,158.9 738.8,152.7 739.6,171.0 740.3,182.1 741.1,182.6 742.4,185.4 743.1,172.3 744.0,171.0 744.8,159.1 745.6,145.0 746.4,145.2 747.1,140.7 748.0,158.7 748.8,162.5 749.6,170.9 750.4,164.8 751.2,166.7 751.9,152.5 752.7,145.0 753.6,140.6 754.4,141.0 755.2,135.9 755.9,140.4 756.7,141.8 757.5,132.3 758.3,130.4 759.4,120.8 760.2,111.7 761.1,104.9 761.8,106.3 762.7,96.9 763.5,92.9 764.3,80.4 765.1,80.0 765.8,87.3 766.6,93.3 767.4,101.6 768.2,97.0 769.0,86.1 769.9,94.5 770.6,87.0 771.4,110.7 772.2,114.7 773.0,120.1 773.8,107.6 774.5,117.5 775.3,136.4 776.1,111.6 776.9,107.4 777.7,85.0 778.5,78.1 779.3,72.9 780.1,71.4 780.9,66.0 781.7,66.6 782.9,70.4 783.7,68.7 784.6,70.9 785.3,65.0 786.1,75.8 786.9,65.0 787.7,68.3 788.6,65.0 789.3,65.0 790.1,65.0 790.9,67.2 791.7,65.0 792.5,65.1 793.4,70.7 794.1,79.9 794.9,99.0 795.7,83.1 796.5,79.4 797.3,67.8 798.0,65.4 798.8,67.3 799.9,69.2 800.7,65.0 801.5,65.0 802.4,67.2 803.2,65.0 804.0,65.0 804.8,73.9 805.6,91.5 806.4,80.8 807.2,116.9 807.9,88.7 808.7,69.8 809.5,72.4 810.4,82.1 811.2,71.5 812.0,65.0 812.7,65.0 813.5,71.6 814.3,66.1 815.1,67.1 815.8,70.8 816.6,82.3 817.4,65.0 818.2,70.7 819.0,70.4 819.9,65.0 820.6,65.0 821.4,68.8 822.2,80.3 823.3,83.4 824.2,82.9 825.1,78.6 826.0,65.0 826.8,69.9 827.5,68.6 828.3,65.0 829.2,78.4 830.0,84.4 830.8,103.3 831.5,116.9 832.3,113.9 833.1,122.5 833.9,174.8 834.7,145.1 835.8,165.9 836.6,127.5 837.3,114.4 838.1,94.2 838.9,81.9 839.8,85.7 840.6,80.6 841.3,73.3 842.1,79.1 843.0,67.3 843.8,65.0 844.7,65.0 845.5,65.0 846.2,65.0 847.0,70.0 847.8,69.8 848.6,65.0 849.4,74.2 850.1,65.0 851.0,66.8 851.8,65.2 852.6,65.0 853.4,69.8 854.2,65.0 854.9,83.9 855.7,73.2 856.5,65.0 857.3,69.9 858.1,80.1 858.8,79.3 859.6,91.2 860.7,71.6 861.5,68.5 862.3,72.8 863.1,67.1 864.0,68.1 864.8,67.0 865.6,69.4 866.5,70.6 867.3,66.3 868.1,81.3 868.9,78.0 869.7,70.5 870.5,73.7 871.3,86.1 872.1,95.3 872.9,106.2 873.6,119.4 874.8,96.7 875.5,71.9 876.3,66.3 877.1,65.0 877.9,67.3 878.7,65.0 879.4,73.1 880.3,65.0 881.1,65.0 881.9,83.8 882.7,72.7 883.6,85.4 884.3,74.9"/><polyline fill="none" stroke="#0f766e" stroke-width="2.2" points="75.0,65.0 75.8,65.0 76.6,65.0 77.3,65.0 78.2,65.0 79.0,65.0 79.8,65.0 80.6,72.3 81.3,65.0 82.1,65.3 82.9,67.1 83.7,68.3 84.5,65.0 85.2,89.8 86.0,75.0 86.8,65.0 87.7,71.7 88.5,73.4 89.3,79.8 90.0,86.7 90.9,85.6 92.1,100.2 93.0,93.4 93.8,78.5 94.6,87.4 95.4,70.6 96.2,76.6 97.0,75.2 97.8,106.9 98.6,132.4 99.4,123.8 100.2,110.0 100.9,128.4 101.7,102.5 102.6,91.3 103.4,93.9 104.2,83.3 105.0,78.7 105.7,88.3 106.5,71.6 107.3,83.2 108.2,65.0 109.0,84.6 109.7,65.0 110.5,73.4 111.3,72.5 112.4,65.0 113.2,71.2 114.0,65.0 114.8,103.3 115.5,126.6 116.3,132.0 117.1,159.8 117.9,119.7 118.8,99.4 119.5,105.1 120.3,70.0 121.1,67.4 121.9,65.0 122.7,65.0 123.4,84.4 124.2,72.8 125.0,77.0 125.8,86.0 126.6,109.9 127.3,127.4 128.2,111.2 129.0,94.4 129.8,100.2 130.6,136.2 131.5,116.9 132.3,103.6 133.1,79.5 133.9,87.6 135.0,65.0 135.8,85.4 136.6,70.0 137.5,68.3 138.2,65.0 139.0,78.4 139.8,76.2 140.6,82.1 141.5,99.3 142.3,107.7 143.0,81.2 143.8,68.8 144.6,72.7 145.4,86.7 146.2,65.0 146.9,82.5 147.7,65.0 148.6,96.0 149.4,84.9 150.2,65.1 150.9,79.8 151.7,65.0 152.5,65.3 153.4,72.0 154.2,124.9 155.0,150.1 155.7,153.6 156.5,192.7 157.3,192.3 158.1,173.4 158.9,183.5 160.0,165.1 160.7,208.0 161.5,202.1 162.3,219.2 163.1,172.5 163.9,194.3 164.6,188.8 165.4,181.2 166.2,188.8 167.0,182.9 167.8,174.2 168.5,163.7 169.4,139.8 170.2,138.7 171.0,124.1 171.8,120.0 172.7,121.8 173.5,129.8 174.3,120.4 175.2,135.3 176.0,144.3 176.8,149.4 177.6,143.5 178.7,139.3 179.5,159.0 180.2,161.1 181.0,159.8 181.8,152.2 182.6,164.6 183.3,172.9 184.2,166.2 185.0,170.5 185.8,174.4 186.6,139.6 187.4,135.0 188.1,116.1 189.0,122.5 189.8,101.3 190.6,89.6 191.4,124.0 192.1,127.7 192.9,98.4 193.8,126.4 194.6,90.9 195.4,65.0 196.2,66.8 196.9,81.2 197.7,77.6 198.5,88.1 199.3,80.5 200.1,129.1 200.9,82.7 201.7,66.9 202.5,108.4 203.3,130.6 204.1,100.8 204.8,109.7 205.6,107.3 206.4,126.4 207.2,108.6 208.0,93.9 208.7,105.1 209.9,104.6 210.6,88.7 211.4,75.0 212.2,68.0 213.1,74.5 214.0,88.6 214.8,81.1 215.6,98.5 216.4,114.9 217.2,131.1 218.0,128.6 218.9,90.8 219.7,85.8 220.4,78.6 221.2,94.7 222.0,92.8 222.8,91.1 223.9,73.1 224.7,73.4 225.4,93.8 226.2,65.0 227.0,65.0 227.8,84.7 228.6,100.1 229.3,144.6 230.2,130.2 231.0,146.7 231.8,91.9 232.6,120.4 233.3,142.5 234.2,166.9 235.0,164.3 235.8,175.4 236.6,184.7 237.4,161.4 238.1,183.0 238.9,177.7 239.7,189.4 240.5,167.4 241.4,166.2 242.1,154.8 242.9,168.9 243.7,161.1 244.5,151.3 245.3,132.9 246.0,155.1 246.8,147.7 247.6,127.6 248.4,120.7 249.2,144.1 250.1,139.8 250.8,100.7 251.6,107.7 252.4,110.1 253.5,104.7 254.3,87.2 255.1,92.3 256.0,80.2 256.7,93.9 257.5,65.0 258.3,70.2 259.1,78.1 260.0,65.0 260.7,65.0 261.5,70.8 262.3,101.9 263.1,71.0 263.9,73.1 264.6,65.0 265.4,84.7 266.2,73.7 267.1,72.0 267.9,129.2 268.6,123.2 269.4,121.4 270.2,104.9 271.1,98.2 271.9,97.6 272.7,118.4 273.4,137.7 274.2,114.5 275.3,109.4 276.1,116.3 276.9,100.6 277.7,118.1 278.4,83.4 279.2,75.1 280.0,65.0 280.8,101.8 281.7,70.8 282.5,85.8 283.2,95.3 284.0,147.3 284.8,154.5 285.6,167.2 286.4,166.6 287.1,163.6 287.9,164.1 288.7,144.4 289.5,145.0 290.3,170.7 291.1,155.3 291.9,157.6 292.7,210.4 293.5,196.7 294.4,218.5 295.3,216.4 296.0,213.3 297.2,220.0 297.9,211.4 298.7,213.1 299.5,214.7 300.4,217.8 301.2,213.0 301.9,223.5 302.7,204.7 303.5,201.2 304.3,198.6 305.1,198.8 306.0,215.8 306.7,203.7 307.5,189.6 308.3,181.3 309.1,186.7 309.8,199.9 310.6,208.3 311.5,209.2 312.3,207.5 313.1,202.5 313.9,201.7 314.6,195.1 315.5,175.4 316.3,171.9 317.1,177.3 317.9,173.5 318.6,168.8 319.4,180.1 320.2,175.1 321.0,175.6 321.8,171.9 322.9,168.1 323.7,157.5 324.4,175.4 325.2,181.1 326.0,181.8 326.8,192.9 327.6,195.2 328.6,197.5 329.3,198.5 330.1,196.6 330.9,195.3 331.8,196.4 332.6,196.7 333.3,193.0 334.1,178.5 335.0,186.3 336.1,175.2 336.9,167.0 337.8,166.4 338.6,157.6 339.4,162.1 340.1,161.1 341.0,163.1 341.8,165.5 342.6,158.1 343.4,157.3 344.1,155.3 344.9,161.6 345.8,158.5 346.6,144.6 347.4,162.3 348.2,140.3 348.9,133.4 349.7,128.5 350.5,118.8 351.3,136.0 352.2,166.4 352.9,162.5 353.7,167.8 354.5,178.5 355.3,174.0 356.4,162.5 357.2,148.7 358.0,144.3 358.7,147.3 359.5,140.4 360.3,145.6 361.1,159.8 361.9,155.8 362.7,161.0 363.5,146.4 364.3,139.2 365.1,141.5 365.9,144.1 366.6,156.6 367.4,142.3 368.2,120.8 369.0,123.8 369.8,128.1 370.5,125.8 371.3,119.1 372.1,113.8 373.0,124.8 373.8,128.0 374.5,122.0 375.4,108.4 376.3,110.6 377.1,103.2 377.9,103.2 379.0,123.3 379.8,145.1 380.6,126.5 381.5,113.0 382.2,111.1 383.0,102.4 383.8,103.5 384.6,102.1 385.3,103.8 386.1,97.6 386.9,107.7 387.7,110.6 388.6,100.2 389.4,97.4 390.1,98.8 390.9,95.0 391.7,94.8 392.6,84.5 393.4,69.9 394.1,88.0 394.9,78.6 395.7,80.3 396.5,78.8 397.4,71.3 398.2,65.0 398.9,70.2 399.7,76.8 400.5,81.7 401.3,70.4 402.1,70.6 402.8,72.2 403.9,72.5 404.7,96.5 405.5,107.2 406.3,124.3 407.1,127.0 407.8,152.9 408.6,144.5 409.4,127.4 410.2,106.8 411.0,107.6 411.7,113.4 412.5,108.5 413.4,98.0 414.2,93.5 415.0,106.9 415.7,80.9 416.6,88.8 417.5,65.0 418.3,65.0 419.2,66.8 420.0,80.0 420.8,89.7 421.5,90.7 422.7,89.0 423.4,99.3 424.2,119.7 425.0,103.8 425.8,77.4 426.5,87.0 427.4,93.2 428.2,104.8 429.0,108.6 429.8,106.5 430.6,131.3 431.3,124.0 432.1,116.3 433.0,120.8 433.8,123.1 434.6,128.1 435.3,136.0 436.1,125.1 436.9,141.6 437.8,155.9 438.6,128.5 439.4,135.5 440.1,137.3 440.9,134.4 441.7,141.6 442.5,164.1 443.3,171.2 444.0,174.2 444.9,174.5 445.7,171.5 446.5,173.1 447.3,165.2 448.0,169.5 448.8,166.6 449.6,169.3 450.4,171.6 451.2,183.1 451.9,194.8 452.7,176.5 453.8,175.4 454.6,178.8 455.4,184.4 456.2,175.4 457.1,159.2 458.0,163.5 458.7,188.9 459.6,201.8 460.4,194.5 461.2,181.5 462.0,172.9 462.9,177.4 463.6,177.8 464.4,169.2 465.2,174.1 466.0,172.4 467.1,186.5 467.9,183.8 468.6,187.4 469.4,182.6 470.2,190.5 471.0,196.8 471.8,207.3 472.5,202.6 473.3,212.5 474.2,226.0 475.0,214.8 475.8,198.7 476.5,206.5 477.3,188.3 478.2,168.3 479.0,176.0 479.8,188.0 480.6,177.2 481.3,184.2 482.1,182.8 482.9,191.1 483.7,195.4 484.5,193.7 485.3,174.0 486.1,191.0 486.9,172.2 487.7,183.6 488.5,174.7 489.2,173.7 490.0,173.0 490.8,173.3 491.6,195.8 492.4,210.8 493.1,217.3 494.0,210.4 494.8,212.2 495.6,197.6 496.4,211.8 497.1,218.4 498.4,204.9 499.2,202.2 500.0,201.6 500.8,195.4 501.6,195.0 502.4,198.8 503.2,195.3 504.1,201.0 504.8,198.0 505.6,201.0 506.4,197.6 507.2,204.8 508.0,200.0 508.7,201.8 509.5,208.0 510.4,203.6 511.2,196.3 512.0,192.8 512.7,194.4 513.5,195.8 514.3,188.6 515.4,183.6 516.2,189.7 517.0,185.0 517.7,187.8 518.5,185.7 519.4,182.9 520.2,164.5 521.0,160.8 521.8,157.3 522.5,153.3 523.3,163.7 524.1,152.5 524.9,148.0 525.8,145.9 526.5,141.7 527.3,136.2 528.1,152.4 528.9,137.7 529.7,128.6 530.4,125.6 531.2,134.4 532.0,125.4 532.8,122.2 533.6,136.2 534.3,109.5 535.2,130.6 536.0,141.0 536.8,142.4 537.6,132.2 538.5,115.3 539.6,91.0 540.5,88.7 541.2,68.2 542.0,83.1 542.8,104.1 543.6,120.6 544.5,104.7 545.3,114.4 546.0,112.6 546.8,107.2 547.6,115.3 548.4,138.2 549.3,134.7 550.0,134.3 550.8,136.6 551.6,147.0 552.4,147.9 553.2,135.0 553.9,130.0 554.7,125.3 555.6,137.2 556.4,139.1 557.2,157.3 557.9,152.2 558.7,144.4 559.8,148.2 560.6,176.1 561.4,165.7 562.2,154.8 563.0,151.6 563.7,160.7 564.5,144.0 565.3,150.6 566.2,151.1 567.0,150.0 567.7,151.4 568.5,162.6 569.3,158.3 570.1,166.0 570.9,179.0 571.6,191.6 572.4,202.4 573.2,189.4 574.0,182.5 574.8,186.4 575.7,179.2 576.5,166.3 577.3,181.5 578.1,210.3 579.0,217.2 580.1,216.8 580.9,216.8 581.8,218.3 582.6,216.6 583.3,215.6 584.1,217.2 585.0,207.0 585.8,214.0 586.6,225.9 587.3,217.3 588.1,215.9 588.9,218.0 589.7,222.3 590.5,220.6 591.2,236.2 592.1,229.2 592.9,228.6 593.7,249.8 594.5,257.3 595.3,269.4 596.1,260.8 596.9,250.5 597.7,247.1 598.5,244.4 599.3,254.4 600.4,241.5 601.2,244.3 601.9,254.7 602.7,248.7 603.5,268.0 604.3,261.5 605.1,255.0 605.8,261.6 606.7,249.1 607.5,266.3 608.3,261.9 609.1,252.9 609.8,268.0 610.6,260.9 611.4,268.1 612.2,266.2 613.0,266.1 613.7,267.3 614.5,274.8 615.3,270.9 616.1,273.8 617.0,277.8 617.7,273.8 618.5,266.8 619.4,260.1 620.3,260.8 621.1,256.3 621.9,247.8 623.0,259.3 623.8,258.5 624.5,244.1 625.4,241.3 626.2,274.1 627.0,290.8 627.8,309.0 628.5,363.4 629.3,372.3 630.1,360.2 630.9,361.9 631.8,358.9 632.6,358.6 633.3,358.8 634.1,359.6 634.9,354.0 635.7,347.5 636.6,353.7 637.3,354.7 638.1,352.3 638.9,352.6 639.7,345.0 640.5,342.5 641.4,337.8 642.1,335.8 642.9,317.4 643.7,303.1 644.5,291.6 645.3,309.2 646.0,310.3 646.8,305.3 647.6,311.2 648.7,306.4 649.5,315.7 650.3,321.7 651.0,315.7 651.8,301.4 652.6,313.2 653.4,316.1 654.2,326.3 654.9,301.7 655.7,296.2 656.5,294.1 657.4,290.0 658.2,280.3 658.9,279.2 659.7,284.5 660.6,269.0 661.5,255.7 662.3,240.5 663.2,234.7 664.0,255.6 664.7,231.2 665.5,218.3 666.6,234.6 667.4,256.3 668.2,241.9 669.0,235.8 669.7,250.7 670.5,251.0 671.4,253.4 672.2,246.2 673.0,233.9 673.8,221.1 674.5,208.3 675.3,197.3 676.1,204.0 676.9,209.6 677.8,191.2 678.5,186.4 679.3,194.1 680.1,192.0 680.9,185.3 681.8,194.7 682.6,191.4 683.3,190.6 684.1,175.7 684.9,187.4 685.7,187.2 686.5,209.9 687.2,193.1 688.0,176.8 688.9,198.0 689.7,198.0 690.5,202.3 691.2,210.8 692.0,197.2 692.8,181.4 693.6,183.1 694.4,189.3 695.1,193.3 695.9,189.8 696.7,201.2 697.8,220.8 698.6,231.1 699.4,223.2 700.1,233.4 701.0,211.0 701.8,217.8 702.6,236.2 703.5,251.7 704.3,266.3 705.0,251.2 705.8,245.0 706.6,245.2 707.5,226.8 708.3,185.4 709.1,193.1 709.8,192.7 710.6,164.8 711.4,182.6 712.2,176.1 713.0,142.2 713.8,161.0 714.6,153.5 715.4,138.2 716.2,143.6 717.0,144.9 717.7,124.3 718.9,104.3 719.6,106.7 720.5,132.6 721.3,144.7 722.2,211.5 723.0,204.0 723.8,191.3 724.5,184.4 725.3,199.1 726.1,189.1 726.9,192.1 727.7,166.0 728.4,189.3 729.3,209.8 730.1,204.2 730.9,206.6 731.7,219.3 732.4,189.3 733.2,190.1 734.0,206.6 734.8,191.7 735.6,221.3 736.3,190.8 737.1,191.4 738.0,181.0 738.8,175.1 739.6,192.6 740.3,203.3 741.1,203.7 742.4,200.5 743.1,182.4 744.0,168.2 744.8,159.3 745.6,155.5 746.4,165.6 747.1,163.0 748.0,170.4 748.8,173.1 749.6,176.6 750.4,187.1 751.2,179.3 751.9,163.3 752.7,157.4 753.6,147.7 754.4,144.7 755.2,144.7 755.9,142.8 756.7,148.3 757.5,144.4 758.3,155.9 759.4,168.0 760.2,168.8 761.1,175.0 761.8,181.0 762.7,180.0 763.5,176.6 764.3,165.8 765.1,165.5 765.8,171.8 766.6,176.9 767.4,184.1 768.2,180.1 769.0,170.8 769.9,178.0 770.6,171.5 771.4,192.0 772.2,195.3 773.0,200.1 773.8,189.3 774.5,197.8 775.3,214.1 776.1,201.9 776.9,219.8 777.7,226.0 778.5,217.8 779.3,217.6 780.1,216.5 780.9,204.9 781.7,200.3 782.9,194.8 783.7,205.3 784.6,219.0 785.3,223.2 786.1,224.4 786.9,209.9 787.7,209.5 788.6,200.7 789.3,200.1 790.1,193.5 790.9,193.4 791.7,184.6 792.5,183.8 793.4,188.4 794.1,195.8 794.9,211.3 795.7,198.4 796.5,195.4 797.3,186.0 798.0,177.5 798.8,177.5 799.9,179.1 800.7,171.4 801.5,160.1 802.4,160.6 803.2,156.5 804.0,144.3 804.8,148.6 805.6,164.2 806.4,154.7 807.2,169.7 807.9,156.1 808.7,141.8 809.5,142.8 810.4,141.3 811.2,131.8 812.0,125.0 812.7,106.2 813.5,127.3 814.3,138.3 815.1,120.0 815.8,120.8 816.6,135.8 817.4,133.9 818.2,138.2 819.0,127.6 819.9,111.8 820.6,127.0 821.4,137.6 822.2,164.6 823.3,165.6 824.2,156.1 825.1,146.5 826.0,135.0 826.8,126.1 827.5,114.2 828.3,98.9 829.2,97.9 830.0,114.5 830.8,103.2 831.5,88.0 832.3,80.7 833.1,68.4 833.9,83.6 834.7,65.0 835.8,65.0 836.6,78.1 837.3,82.5 838.1,100.0 838.9,100.3 839.8,87.3 840.6,78.4 841.3,82.8 842.1,73.7 843.0,83.4 843.8,79.1 844.7,85.2 845.5,82.4 846.2,77.1 847.0,91.7 847.8,71.4 848.6,83.1 849.4,83.0 850.1,67.5 851.0,65.0 851.8,65.0 852.6,65.8 853.4,65.0 854.2,65.0 854.9,94.7 855.7,68.6 856.5,65.0 857.3,73.0 858.1,81.5 858.8,76.9 859.6,97.9 860.7,81.8 861.5,88.6 862.3,72.2 863.1,65.0 864.0,92.2 864.8,76.4 865.6,65.0 866.5,65.0 867.3,65.0 868.1,134.1 868.9,121.9 869.7,99.9 870.5,80.5 871.3,93.6 872.1,109.8 872.9,170.5 873.6,168.8 874.8,139.4 875.5,149.3 876.3,154.8 877.1,127.8 877.9,104.3 878.7,109.4 879.4,103.3 880.3,129.0 881.1,127.2 881.9,147.2 882.7,169.4 883.6,196.9 884.3,207.7"/><polyline fill="none" stroke="#2563eb" stroke-width="2.2" points="75.0,65.0 75.8,65.0 76.6,65.0 77.3,65.0 78.2,65.0 79.0,84.2 79.8,88.6 80.6,82.2 81.3,74.5 82.1,72.0 82.9,66.8 83.7,65.8 84.5,65.0 85.2,72.7 86.0,65.1 86.8,65.0 87.7,66.8 88.5,67.8 89.3,72.9 90.0,69.5 90.9,65.3 92.1,79.4 93.0,65.0 93.8,65.0 94.6,67.3 95.4,65.0 96.2,70.6 97.0,66.1 97.8,96.6 98.6,110.6 99.4,106.3 100.2,79.6 100.9,93.6 101.7,73.0 102.6,69.9 103.4,71.9 104.2,66.4 105.0,67.3 105.7,81.3 106.5,76.1 107.3,81.2 108.2,65.0 109.0,80.6 109.7,65.0 110.5,74.2 111.3,72.0 112.4,65.0 113.2,67.6 114.0,65.9 114.8,97.7 115.5,113.9 116.3,122.0 117.1,137.2 117.9,113.8 118.8,100.7 119.5,106.7 120.3,84.9 121.1,77.2 121.9,72.1 122.7,67.7 123.4,68.8 124.2,71.7 125.0,75.9 125.8,65.0 126.6,89.4 127.3,84.2 128.2,83.3 129.0,81.3 129.8,68.1 130.6,87.5 131.5,68.9 132.3,73.5 133.1,68.1 133.9,95.2 135.0,76.8 135.8,82.4 136.6,69.0 137.5,65.0 138.2,65.0 139.0,71.0 139.8,65.0 140.6,74.2 141.5,86.3 142.3,100.4 143.0,83.1 143.8,79.3 144.6,90.3 145.4,101.3 146.2,96.9 146.9,98.2 147.7,66.3 148.6,93.5 149.4,85.9 150.2,87.0 150.9,80.3 151.7,77.9 152.5,71.8 153.4,66.5 154.2,89.7 155.0,103.7 155.7,106.0 156.5,114.0 157.3,110.7 158.1,108.6 158.9,109.3 160.0,111.1 160.7,138.5 161.5,127.6 162.3,145.3 163.1,156.2 163.9,174.6 164.6,202.6 165.4,243.5 166.2,222.5 167.0,222.5 167.8,233.6 168.5,212.7 169.4,214.2 170.2,207.4 171.0,181.8 171.8,193.6 172.7,178.5 173.5,183.5 174.3,201.6 175.2,192.3 176.0,189.9 176.8,186.2 177.6,187.5 178.7,193.2 179.5,215.7 180.2,221.7 181.0,204.7 181.8,182.9 182.6,194.5 183.3,189.6 184.2,179.1 185.0,183.8 185.8,185.5 186.6,161.6 187.4,154.8 188.1,148.9 189.0,151.5 189.8,139.1 190.6,135.5 191.4,155.4 192.1,159.2 192.9,145.6 193.8,175.5 194.6,150.3 195.4,119.7 196.2,117.0 196.9,103.1 197.7,95.9 198.5,102.1 199.3,87.9 200.1,108.6 200.9,69.8 201.7,67.0 202.5,91.8 203.3,106.6 204.1,76.4 204.8,78.6 205.6,77.5 206.4,111.3 207.2,94.4 208.0,69.6 208.7,85.5 209.9,84.2 210.6,78.4 211.4,78.0 212.2,88.1 213.1,75.2 214.0,66.7 214.8,67.3 215.6,90.8 216.4,111.1 217.2,125.6 218.0,116.6 218.9,94.3 219.7,93.4 220.4,76.3 221.2,71.9 222.0,72.2 222.8,67.8 223.9,65.0 224.7,67.2 225.4,80.6 226.2,65.0 227.0,65.0 227.8,75.7 228.6,84.5 229.3,114.9 230.2,101.8 231.0,104.1 231.8,86.7 232.6,93.6 233.3,98.2 234.2,105.9 235.0,96.1 235.8,102.5 236.6,92.3 237.4,75.7 238.1,92.5 238.9,80.1 239.7,90.5 240.5,81.9 241.4,84.3 242.1,74.6 242.9,73.8 243.7,67.6 244.5,66.5 245.3,65.6 246.0,71.5 246.8,73.9 247.6,65.0 248.4,69.6 249.2,86.9 250.1,92.2 250.8,65.0 251.6,73.4 252.4,74.2 253.5,66.2 254.3,65.0 255.1,77.8 256.0,65.0 256.7,75.7 257.5,65.3 258.3,65.0 259.1,66.7 260.0,65.0 260.7,66.1 261.5,70.8 262.3,110.0 263.1,79.8 263.9,71.7 264.6,65.0 265.4,74.5 266.2,65.0 267.1,65.0 267.9,103.2 268.6,94.6 269.4,95.9 270.2,89.5 271.1,95.9 271.9,108.5 272.7,111.6 273.4,119.2 274.2,99.5 275.3,83.5 276.1,75.0 276.9,66.7 277.7,77.6 278.4,121.1 279.2,78.9 280.0,73.4 280.8,71.6 281.7,66.0 282.5,74.4 283.2,74.7 284.0,103.3 284.8,113.6 285.6,109.0 286.4,100.0 287.1,86.9 287.9,79.2 288.7,65.4 289.5,71.3 290.3,89.9 291.1,78.3 291.9,75.4 292.7,101.6 293.5,92.1 294.4,96.0 295.3,89.3 296.0,83.3 297.2,74.8 297.9,67.1 298.7,68.6 299.5,70.5 300.4,71.8 301.2,67.1 301.9,92.8 302.7,68.3 303.5,71.4 304.3,68.5 305.1,67.9 306.0,88.9 306.7,79.1 307.5,73.4 308.3,67.4 309.1,75.1 309.8,83.3 310.6,87.4 311.5,86.1 312.3,85.4 313.1,81.0 313.9,81.0 314.6,77.0 315.5,74.8 316.3,74.5 317.1,75.0 317.9,65.1 318.6,65.9 319.4,69.0 320.2,67.4 321.0,66.5 321.8,65.0 322.9,67.8 323.7,65.9 324.4,71.5 325.2,76.1 326.0,75.7 326.8,79.3 327.6,82.7 328.6,84.3 329.3,85.1 330.1,88.0 330.9,83.5 331.8,76.6 332.6,75.8 333.3,73.5 334.1,65.0 335.0,68.1 336.1,71.8 336.9,67.1 337.8,65.0 338.6,65.0 339.4,70.7 340.1,69.0 341.0,72.0 341.8,73.4 342.6,66.0 343.4,70.9 344.1,73.1 344.9,72.7 345.8,67.7 346.6,65.0 347.4,81.4 348.2,65.0 348.9,65.8 349.7,69.0 350.5,68.5 351.3,81.3 352.2,101.1 352.9,98.8 353.7,104.0 354.5,124.2 355.3,113.1 356.4,105.2 357.2,86.0 358.0,78.5 358.7,87.5 359.5,86.3 360.3,88.6 361.1,109.6 361.9,102.2 362.7,109.5 363.5,100.5 364.3,99.3 365.1,97.4 365.9,94.0 366.6,104.1 367.4,87.5 368.2,68.1 369.0,69.6 369.8,80.6 370.5,85.9 371.3,72.7 372.1,74.5 373.0,80.7 373.8,83.9 374.5,75.4 375.4,70.0 376.3,79.1 377.1,74.3 377.9,77.3 379.0,99.4 379.8,109.4 380.6,95.8 381.5,84.4 382.2,82.5 383.0,76.0 383.8,82.4 384.6,81.9 385.3,84.6 386.1,74.7 386.9,77.7 387.7,80.8 388.6,72.0 389.4,66.7 390.1,65.0 390.9,67.2 391.7,68.8 392.6,65.0 393.4,65.0 394.1,73.9 394.9,65.0 395.7,68.7 396.5,66.5 397.4,65.0 398.2,65.3 398.9,67.5 399.7,79.8 400.5,80.1 401.3,70.0 402.1,68.2 402.8,65.8 403.9,68.3 404.7,89.8 405.5,93.4 406.3,101.4 407.1,100.9 407.8,103.3 408.6,93.5 409.4,83.7 410.2,73.8 411.0,71.9 411.7,73.1 412.5,67.6 413.4,65.8 414.2,65.0 415.0,75.8 415.7,67.0 416.6,71.5 417.5,65.0 418.3,65.0 419.2,65.4 420.0,73.1 420.8,74.8 421.5,72.0 422.7,70.1 423.4,73.3 424.2,85.3 425.0,77.7 425.8,65.4 426.5,71.2 427.4,72.9 428.2,74.7 429.0,76.0 429.8,74.6 430.6,86.6 431.3,85.7 432.1,77.8 433.0,83.1 433.8,93.5 434.6,97.8 435.3,98.1 436.1,94.1 436.9,105.6 437.8,119.1 438.6,103.4 439.4,110.7 440.1,115.5 440.9,114.0 441.7,115.5 442.5,126.1 443.3,134.2 444.0,140.7 444.9,142.6 445.7,136.6 446.5,138.6 447.3,135.0 448.0,127.2 448.8,121.5 449.6,120.0 450.4,124.2 451.2,129.1 451.9,139.5 452.7,126.4 453.8,125.7 454.6,127.5 455.4,134.5 456.2,130.6 457.1,121.0 458.0,128.4 458.7,144.9 459.6,150.8 460.4,145.2 461.2,128.9 462.0,124.2 462.9,118.8 463.6,115.9 464.4,104.8 465.2,104.6 466.0,97.6 467.1,104.0 467.9,98.3 468.6,101.4 469.4,89.0 470.2,95.2 471.0,97.1 471.8,90.9 472.5,92.5 473.3,105.6 474.2,106.9 475.0,98.5 475.8,89.8 476.5,90.6 477.3,75.7 478.2,65.8 479.0,68.6 479.8,76.9 480.6,79.8 481.3,76.8 482.1,71.5 482.9,73.0 483.7,80.6 484.5,85.4 485.3,68.9 486.1,91.8 486.9,72.0 487.7,75.6 488.5,80.3 489.2,85.1 490.0,79.2 490.8,81.9 491.6,94.8 492.4,94.4 493.1,97.0 494.0,85.5 494.8,80.0 495.6,67.6 496.4,74.5 497.1,77.9 498.4,66.5 499.2,65.8 500.0,67.9 500.8,65.0 501.6,68.5 502.4,66.8 503.2,65.0 504.1,65.0 504.8,73.4 505.6,82.9 506.4,72.1 507.2,75.3 508.0,69.3 508.7,72.6 509.5,77.7 510.4,73.8 511.2,66.8 512.0,65.0 512.7,65.0 513.5,68.9 514.3,65.0 515.4,66.6 516.2,71.2 517.0,66.0 517.7,65.9 518.5,68.8 519.4,67.6 520.2,65.5 521.0,65.9 521.8,65.0 522.5,66.6 523.3,73.7 524.1,69.9 524.9,68.6 525.8,65.3 526.5,68.8 527.3,68.7 528.1,78.9 528.9,70.7 529.7,65.0 530.4,65.2 531.2,70.4 532.0,65.0 532.8,67.1 533.6,79.8 534.3,65.0 535.2,76.5 536.0,84.1 536.8,80.4 537.6,70.8 538.5,65.0 539.6,65.0 540.5,67.5 541.2,65.0 542.0,76.8 542.8,97.4 543.6,111.0 544.5,98.5 545.3,100.6 546.0,96.8 546.8,91.9 547.6,90.4 548.4,108.8 549.3,101.1 550.0,95.6 550.8,91.7 551.6,97.4 552.4,102.5 553.2,85.3 553.9,87.8 554.7,86.5 555.6,93.8 556.4,90.2 557.2,99.3 557.9,100.9 558.7,103.5 559.8,97.9 560.6,108.2 561.4,106.1 562.2,103.1 563.0,95.8 563.7,103.7 564.5,96.3 565.3,90.8 566.2,90.9 567.0,89.8 567.7,89.5 568.5,87.5 569.3,81.4 570.1,85.0 570.9,98.1 571.6,111.4 572.4,112.9 573.2,110.7 574.0,109.0 574.8,114.8 575.7,104.5 576.5,100.2 577.3,109.4 578.1,131.7 579.0,131.5 580.1,126.8 580.9,120.3 581.8,117.5 582.6,106.0 583.3,100.2 584.1,100.7 585.0,94.2 585.8,99.4 586.6,103.8 587.3,94.3 588.1,93.7 588.9,88.8 589.7,90.9 590.5,86.5 591.2,100.3 592.1,95.8 592.9,95.7 593.7,110.2 594.5,107.9 595.3,117.4 596.1,120.5 596.9,110.1 597.7,108.5 598.5,98.5 599.3,100.1 600.4,92.0 601.2,90.3 601.9,97.8 602.7,92.5 603.5,103.5 604.3,86.5 605.1,83.1 605.8,82.4 606.7,73.0 607.5,87.5 608.3,83.4 609.1,76.7 609.8,84.1 610.6,78.0 611.4,84.1 612.2,79.1 613.0,81.8 613.7,87.3 614.5,95.0 615.3,85.1 616.1,86.3 617.0,87.4 617.7,83.9 618.5,76.9 619.4,67.5 620.3,65.0 621.1,65.0 621.9,65.0 623.0,69.3 623.8,71.4 624.5,65.0 625.4,65.0 626.2,88.7 627.0,116.2 627.8,131.2 628.5,183.1 629.3,189.0 630.1,170.8 630.9,157.2 631.8,140.0 632.6,139.1 633.3,129.6 634.1,139.8 634.9,137.4 635.7,124.2 636.6,123.8 637.3,120.7 638.1,124.2 638.9,117.5 639.7,115.0 640.5,110.2 641.4,104.0 642.1,100.1 642.9,90.1 643.7,77.9 644.5,73.2 645.3,82.5 646.0,81.7 646.8,74.3 647.6,87.1 648.7,85.6 649.5,99.0 650.3,101.1 651.0,88.3 651.8,69.4 652.6,84.2 653.4,86.6 654.2,98.4 654.9,65.0 655.7,65.0 656.5,65.0 657.4,66.9 658.2,65.0 658.9,65.0 659.7,75.8 660.6,65.0 661.5,65.0 662.3,65.3 663.2,68.6 664.0,92.9 664.7,66.5 665.5,65.0 666.6,70.4 667.4,78.1 668.2,85.0 669.0,70.1 669.7,77.3 670.5,81.8 671.4,73.6 672.2,70.3 673.0,70.2 673.8,65.0 674.5,69.0 675.3,70.8 676.1,74.8 676.9,70.1 677.8,65.0 678.5,66.0 679.3,73.4 680.1,72.7 680.9,68.6 681.8,71.2 682.6,68.7 683.3,68.9 684.1,65.0 684.9,67.3 685.7,67.4 686.5,79.4 687.2,69.8 688.0,65.0 688.9,76.9 689.7,76.4 690.5,72.6 691.2,74.5 692.0,67.8 692.8,65.0 693.6,65.6 694.4,68.7 695.1,66.0 695.9,67.3 696.7,71.7 697.8,84.0 698.6,86.8 699.4,75.4 700.1,85.0 701.0,65.0 701.8,65.0 702.6,71.9 703.5,81.4 704.3,94.5 705.0,72.9 705.8,70.8 706.6,81.8 707.5,85.7 708.3,65.0 709.1,87.6 709.8,86.4 710.6,67.3 711.4,77.0 712.2,72.6 713.0,65.0 713.8,77.3 714.6,89.1 715.4,93.1 716.2,108.8 717.0,109.4 717.7,90.1 718.9,88.9 719.6,112.2 720.5,118.7 721.3,117.0 722.2,149.9 723.0,147.4 723.8,148.8 724.5,138.1 725.3,141.9 726.1,129.8 726.9,131.8 727.7,132.3 728.4,152.3 729.3,159.5 730.1,164.2 730.9,175.1 731.7,185.8 732.4,173.1 733.2,180.1 734.0,193.1 734.8,179.9 735.6,192.0 736.3,177.3 737.1,179.1 738.0,178.3 738.8,166.7 739.6,176.3 740.3,181.3 741.1,183.6 742.4,184.2 743.1,169.9 744.0,162.2 744.8,151.1 745.6,144.4 746.4,161.8 747.1,165.8 748.0,173.7 748.8,177.2 749.6,181.6 750.4,174.6 751.2,165.3 751.9,157.0 752.7,150.8 753.6,146.1 754.4,150.4 755.2,149.4 755.9,144.9 756.7,151.3 757.5,151.1 758.3,157.5 759.4,156.0 760.2,151.1 761.1,149.5 761.8,153.9 762.7,150.9 763.5,141.8 764.3,133.3 765.1,133.9 765.8,144.8 766.6,148.1 767.4,157.9 768.2,153.2 769.0,144.6 769.9,152.9 770.6,148.8 771.4,159.4 772.2,167.4 773.0,182.5 773.8,172.7 774.5,172.7 775.3,185.9 776.1,175.3 776.9,182.8 777.7,176.1 778.5,169.5 779.3,162.4 780.1,168.1 780.9,151.9 781.7,148.5 782.9,148.0 783.7,154.1 784.6,161.7 785.3,157.7 786.1,157.1 786.9,151.1 787.7,155.1 788.6,143.4 789.3,141.6 790.1,131.4 790.9,135.8 791.7,128.1 792.5,125.8 793.4,124.6 794.1,130.7 794.9,138.5 795.7,135.3 796.5,129.5 797.3,122.4 798.0,110.3 798.8,115.2 799.9,119.0 800.7,119.9 801.5,118.8 802.4,117.5 803.2,115.3 804.0,101.9 804.8,98.6 805.6,115.8 806.4,104.2 807.2,130.5 807.9,109.4 808.7,92.5 809.5,95.5 810.4,98.0 811.2,85.7 812.0,77.7 812.7,71.6 813.5,71.6 814.3,80.2 815.1,71.1 815.8,69.3 816.6,77.3 817.4,70.1 818.2,82.8 819.0,70.9 819.9,65.0 820.6,70.9 821.4,74.8 822.2,90.3 823.3,93.0 824.2,91.6 825.1,85.5 826.0,69.6 826.8,67.1 827.5,65.0 828.3,65.0 829.2,72.2 830.0,86.1 830.8,88.9 831.5,87.9 832.3,83.0 833.1,80.9 833.9,91.0 834.7,84.7 835.8,68.0 836.6,69.3 837.3,75.2 838.1,82.5 838.9,78.1 839.8,70.2 840.6,68.0 841.3,65.0 842.1,73.2 843.0,69.0 843.8,65.0 844.7,66.9 845.5,65.4 846.2,69.0 847.0,86.3 847.8,70.2 848.6,68.9 849.4,69.4 850.1,67.0 851.0,65.0 851.8,65.5 852.6,66.1 853.4,68.3 854.2,65.0 854.9,82.9 855.7,68.2 856.5,77.0 857.3,80.1 858.1,86.1 858.8,80.0 859.6,91.8 860.7,72.3 861.5,72.3 862.3,69.7 863.1,65.0 864.0,75.1 864.8,69.3 865.6,65.2 866.5,65.0 867.3,65.8 868.1,99.5 868.9,79.6 869.7,65.3 870.5,65.0 871.3,72.0 872.1,73.6 872.9,96.0 873.6,95.5 874.8,81.2 875.5,66.9 876.3,65.8 877.1,65.3 877.9,67.6 878.7,65.0 879.4,80.1 880.3,80.2 881.1,70.4 881.9,96.8 882.7,89.4 883.6,107.8 884.3,106.3"/><line x1="80" x2="104" y1="452" y2="452" stroke="#334155" stroke-width="3"/><text x="110" y="457" class="l">SPY buy and hold</text><line x1="285" x2="309" y1="452" y2="452" stroke="#0f766e" stroke-width="3"/><text x="315" y="457" class="l">Top 1 momentum</text><line x1="490" x2="514" y1="452" y2="452" stroke="#2563eb" stroke-width="3"/><text x="520" y="457" class="l">Top 3 momentum</text><text x="75" y="492" class="a">2006-08-07 to 2026-07-07; 5 bps costs</text></svg>