<svg xmlns="http://www.w3.org/2000/svg" viewBox="0 0 960 520" role="img">
<title>Multi-Asset ETF Momentum Rotation</title><desc>Common complete-universe sample; one-day-lagged weights</desc>
<style>text{font-family:Arial,sans-serif;fill:#0f172a}.a{font-size:12px;fill:#64748b}.l{font-size:13px}</style>
<rect width="960" height="520" fill="white"/><text x="70" y="30" font-size="20" font-weight="700">Multi-Asset ETF Momentum Rotation</text>
<text x="70" y="50" class="a">Common complete-universe sample; one-day-lagged weights</text><rect x="75" y="65" width="810" height="350" fill="white" stroke="#cbd5e1"/><line x1="75" x2="885" y1="65.0" y2="65.0" stroke="#e2e8f0"/><text x="67" y="69.0" text-anchor="end" class="a">$87,262</text><line x1="75" x2="885" y1="152.5" y2="152.5" stroke="#e2e8f0"/><text x="67" y="156.5" text-anchor="end" class="a">$43,934</text><line x1="75" x2="885" y1="240.0" y2="240.0" stroke="#e2e8f0"/><text x="67" y="244.0" text-anchor="end" class="a">$22,119</text><line x1="75" x2="885" y1="327.5" y2="327.5" stroke="#e2e8f0"/><text x="67" y="331.5" text-anchor="end" class="a">$11,136</text><line x1="75" x2="885" y1="415.0" y2="415.0" stroke="#e2e8f0"/><text x="67" y="419.0" text-anchor="end" class="a">$5,607</text><polyline fill="none" stroke="#334155" stroke-width="2.2" points="75.0,341.2 75.8,342.1 76.6,339.1 77.3,338.8 78.2,337.6 79.0,337.6 79.8,336.9 80.6,335.2 81.3,335.4 82.1,333.6 82.9,332.5 83.7,331.1 84.5,331.2 85.2,330.5 86.0,329.5 86.8,328.6 87.7,328.8 88.5,327.6 89.3,327.5 90.0,326.6 90.9,326.5 92.1,327.4 93.0,325.8 93.8,326.0 94.6,326.0 95.4,324.1 96.2,324.3 97.0,323.2 97.8,327.6 98.6,328.9 99.4,329.2 100.2,325.0 100.9,326.3 101.7,324.5 102.6,323.8 103.4,321.6 104.2,319.5 105.0,318.9 105.7,319.5 106.5,318.1 107.3,318.3 108.2,315.8 109.0,318.3 109.7,316.1 110.5,318.2 111.3,318.3 112.4,316.0 113.2,314.6 114.0,315.3 114.8,320.9 115.5,321.9 116.3,322.8 117.1,323.3 117.9,321.3 118.8,319.4 119.5,320.8 120.3,316.6 121.1,316.9 121.9,314.6 122.7,312.6 123.4,314.9 124.2,316.6 125.0,315.5 125.8,316.3 126.6,319.7 127.3,322.7 128.2,320.5 129.0,319.1 129.8,318.6 130.6,321.6 131.5,319.4 132.3,325.0 133.1,326.0 133.9,333.6 135.0,330.6 135.8,328.2 136.6,332.0 137.5,330.3 138.2,327.7 139.0,332.7 139.8,333.1 140.6,332.1 141.5,331.9 142.3,328.6 143.0,329.4 143.8,328.4 144.6,327.6 145.4,327.1 146.2,326.0 146.9,324.8 147.7,326.0 148.6,325.5 149.4,324.8 150.2,330.7 150.9,330.7 151.7,336.1 152.5,338.0 153.4,340.5 154.2,338.4 155.0,338.9 155.7,338.2 156.5,335.0 157.3,334.2 158.1,334.7 158.9,335.5 160.0,337.3 160.7,344.5 161.5,342.4 162.3,353.3 163.1,361.2 163.9,365.4 164.6,368.6 165.4,389.4 166.2,370.8 167.0,376.8 167.8,387.1 168.5,387.7 169.4,387.4 170.2,381.2 171.0,377.9 171.8,385.0 172.7,379.1 173.5,378.0 174.3,387.7 175.2,389.6 176.0,390.1 176.8,383.8 177.6,390.2 178.7,403.3 179.5,410.4 180.2,415.0 181.0,401.3 181.8,390.1 182.6,395.5 183.3,388.0 184.2,386.8 185.0,385.8 185.8,385.0 186.6,377.8 187.4,377.2 188.1,377.0 189.0,379.0 189.8,373.5 190.6,372.5 191.4,376.4 192.1,377.7 192.9,374.6 193.8,380.5 194.6,373.5 195.4,367.4 196.2,366.1 196.9,364.5 197.7,362.4 198.5,363.1 199.3,360.1 200.1,363.6 200.9,358.5 201.7,355.5 202.5,358.2 203.3,360.7 204.1,354.9 204.8,352.9 205.6,353.9 206.4,359.3 207.2,355.0 208.0,352.1 208.7,352.3 209.9,351.7 210.6,350.7 211.4,349.5 212.2,349.4 213.1,348.0 214.0,346.7 214.8,345.7 215.6,349.0 216.4,352.6 217.2,355.2 218.0,353.1 218.9,349.6 219.7,350.1 220.4,346.1 221.2,344.8 222.0,343.7 222.8,343.0 223.9,340.7 224.7,339.6 225.4,339.5 226.2,337.9 227.0,339.0 227.8,343.5 228.6,345.9 229.3,353.1 230.2,353.3 231.0,354.4 231.8,348.1 232.6,350.3 233.3,356.7 234.2,354.4 235.0,350.2 235.8,353.3 236.6,348.9 237.4,346.4 238.1,350.6 238.9,350.1 239.7,354.6 240.5,351.6 241.4,348.8 242.1,346.3 242.9,346.3 243.7,344.5 244.5,342.5 245.3,340.8 246.0,340.1 246.8,339.8 247.6,335.7 248.4,336.3 249.2,338.1 250.1,339.3 250.8,335.0 251.6,333.4 252.4,332.9 253.5,331.5 254.3,330.1 255.1,330.2 256.0,327.7 256.7,328.0 257.5,326.5 258.3,324.7 259.1,324.3 260.0,326.2 260.7,326.0 261.5,324.9 262.3,331.0 263.1,327.0 263.9,323.9 264.6,323.1 265.4,325.2 266.2,323.6 267.1,320.8 267.9,323.1 268.6,321.7 269.4,322.1 270.2,323.7 271.1,326.2 271.9,329.0 272.7,328.9 273.4,329.2 274.2,322.2 275.3,324.1 276.1,325.4 276.9,322.3 277.7,327.2 278.4,344.7 279.2,335.5 280.0,344.2 280.8,334.8 281.7,339.4 282.5,338.6 283.2,335.4 284.0,338.2 284.8,344.0 285.6,335.9 286.4,332.8 287.1,332.3 287.9,333.4 288.7,327.4 289.5,329.2 290.3,336.4 291.1,330.4 291.9,328.6 292.7,333.7 293.5,330.4 294.4,328.4 295.3,326.8 296.0,325.7 297.2,323.0 297.9,323.2 298.7,320.2 299.5,319.4 300.4,318.3 301.2,317.3 301.9,320.0 302.7,315.0 303.5,314.1 304.3,313.5 305.1,313.4 306.0,317.3 306.7,315.8 307.5,315.3 308.3,314.2 309.1,318.5 309.8,321.2 310.6,321.8 311.5,322.5 312.3,322.0 313.1,320.6 313.9,320.9 314.6,320.6 315.5,318.0 316.3,317.8 317.1,317.1 317.9,315.1 318.6,314.5 319.4,313.1 320.2,311.9 321.0,312.5 321.8,312.8 322.9,310.7 323.7,307.9 324.4,308.1 325.2,309.3 326.0,308.2 326.8,309.5 327.6,310.1 328.6,312.0 329.3,313.4 330.1,317.0 330.9,313.7 331.8,311.3 332.6,311.4 333.3,310.8 334.1,308.6 335.0,312.3 336.1,307.0 336.9,306.1 337.8,304.2 338.6,302.9 339.4,302.6 340.1,301.8 341.0,302.4 341.8,301.9 342.6,299.7 343.4,298.6 344.1,298.2 344.9,297.8 345.8,298.0 346.6,295.3 347.4,299.5 348.2,295.9 348.9,294.9 349.7,292.4 350.5,290.5 351.3,290.4 352.2,292.0 352.9,290.9 353.7,292.2 354.5,294.8 355.3,293.7 356.4,290.9 357.2,287.7 358.0,286.7 358.7,287.4 359.5,285.8 360.3,287.0 361.1,290.3 361.9,289.3 362.7,290.6 363.5,287.1 364.3,285.5 365.1,286.0 365.9,286.2 366.6,289.1 367.4,285.9 368.2,281.7 369.0,280.4 369.8,281.1 370.5,280.6 371.3,279.1 372.1,277.9 373.0,278.6 373.8,279.3 374.5,277.2 375.4,275.0 376.3,275.7 377.1,274.8 377.9,275.1 379.0,279.1 379.8,281.9 380.6,277.7 381.5,274.7 382.2,274.3 383.0,272.4 383.8,272.7 384.6,272.4 385.3,272.7 386.1,271.4 386.9,273.6 387.7,274.2 388.6,272.0 389.4,271.4 390.1,271.7 390.9,270.9 391.7,270.8 392.6,268.7 393.4,267.3 394.1,267.9 394.9,266.0 395.7,266.0 396.5,264.2 397.4,265.3 398.2,264.6 398.9,264.6 399.7,268.0 400.5,267.5 401.3,265.8 402.1,263.6 402.8,262.6 403.9,262.7 404.7,263.7 405.5,263.0 406.3,264.1 407.1,264.9 407.8,270.8 408.6,268.8 409.4,265.0 410.2,261.4 411.0,260.0 411.7,259.7 412.5,257.9 413.4,258.1 414.2,258.4 415.0,263.8 415.7,256.9 416.6,258.3 417.5,258.1 418.3,262.4 419.2,258.7 420.0,262.1 420.8,258.3 421.5,255.7 422.7,254.8 423.4,254.4 424.2,256.6 425.0,256.4 425.8,255.0 426.5,256.1 427.4,256.7 428.2,255.3 429.0,255.2 429.8,254.1 430.6,255.7 431.3,255.0 432.1,253.2 433.0,253.4 433.8,253.8 434.6,254.4 435.3,254.6 436.1,254.1 436.9,255.9 437.8,257.5 438.6,253.0 439.4,254.3 440.1,253.9 440.9,255.4 441.7,255.2 442.5,258.1 443.3,261.1 444.0,263.5 444.9,262.7 445.7,262.9 446.5,264.6 447.3,263.2 448.0,259.1 448.8,257.9 449.6,255.2 450.4,255.0 451.2,253.7 451.9,258.3 452.7,254.1 453.8,254.5 454.6,254.7 455.4,258.1 456.2,258.1 457.1,254.6 458.0,259.9 458.7,266.5 459.6,268.0 460.4,266.3 461.2,264.7 462.0,270.6 462.9,264.4 463.6,262.4 464.4,258.9 465.2,257.4 466.0,255.8 467.1,256.5 467.9,254.6 468.6,256.0 469.4,252.8 470.2,253.2 471.0,253.6 471.8,254.8 472.5,254.3 473.3,255.3 474.2,252.4 475.0,251.3 475.8,253.5 476.5,252.6 477.3,255.8 478.2,251.9 479.0,248.7 479.8,247.4 480.6,247.8 481.3,248.0 482.1,247.1 482.9,246.7 483.7,247.0 484.5,247.2 485.3,246.6 486.1,248.5 486.9,246.7 487.7,248.2 488.5,247.5 489.2,249.2 490.0,248.7 490.8,249.1 491.6,251.8 492.4,246.9 493.1,245.7 494.0,244.2 494.8,245.3 495.6,241.4 496.4,241.4 497.1,241.1 498.4,241.3 499.2,240.6 500.0,240.5 500.8,238.9 501.6,240.0 502.4,239.1 503.2,236.0 504.1,235.1 504.8,234.2 505.6,234.9 506.4,234.0 507.2,235.9 508.0,234.7 508.7,235.1 509.5,236.7 510.4,235.6 511.2,233.7 512.0,232.8 512.7,233.2 513.5,233.6 514.3,231.8 515.4,230.6 516.2,230.9 517.0,229.6 517.7,230.3 518.5,230.9 519.4,230.9 520.2,229.1 521.0,228.2 521.8,228.2 522.5,228.3 523.3,228.6 524.1,229.2 524.9,229.5 525.8,228.4 526.5,226.8 527.3,226.2 528.1,226.2 528.9,224.6 529.7,223.7 530.4,223.3 531.2,223.6 532.0,222.5 532.8,221.7 533.6,223.0 534.3,221.3 535.2,218.8 536.0,219.2 536.8,218.5 537.6,216.9 538.5,217.3 539.6,213.9 540.5,212.5 541.2,209.6 542.0,210.3 542.8,216.2 543.6,217.7 544.5,215.7 545.3,215.0 546.0,214.5 546.8,213.3 547.6,215.0 548.4,220.1 549.3,217.3 550.0,217.2 550.8,215.8 551.6,217.0 552.4,218.8 553.2,214.3 553.9,214.3 554.7,213.9 555.6,213.6 556.4,211.4 557.2,211.4 557.9,212.5 558.7,214.1 559.8,211.0 560.6,210.3 561.4,209.9 562.2,210.1 563.0,207.9 563.7,209.1 564.5,207.5 565.3,205.7 566.2,205.6 567.0,206.0 567.7,205.2 568.5,204.7 569.3,204.3 570.1,206.1 570.9,209.3 571.6,212.4 572.4,215.2 573.2,211.7 574.0,213.1 574.8,216.9 575.7,212.0 576.5,214.2 577.3,216.3 578.1,225.4 579.0,224.3 580.1,221.0 580.9,219.5 581.8,216.8 582.6,216.5 583.3,211.9 584.1,211.4 585.0,209.4 585.8,209.1 586.6,209.9 587.3,208.1 588.1,207.5 588.9,208.3 589.7,205.3 590.5,204.4 591.2,203.9 592.1,202.8 592.9,203.2 593.7,205.2 594.5,204.7 595.3,207.2 596.1,210.3 596.9,204.7 597.7,204.0 598.5,201.3 599.3,201.8 600.4,200.1 601.2,198.4 601.9,199.6 602.7,198.1 603.5,205.8 604.3,203.9 605.1,202.0 605.8,204.0 606.7,202.7 607.5,199.5 608.3,198.4 609.1,199.9 609.8,201.1 610.6,203.1 611.4,198.6 612.2,198.6 613.0,196.8 613.7,195.2 614.5,194.4 615.3,193.2 616.1,192.3 617.0,193.4 617.7,192.2 618.5,190.1 619.4,188.1 620.3,188.3 621.1,187.0 621.9,184.6 623.0,187.9 623.8,187.7 624.5,183.6 625.4,182.8 626.2,192.3 627.0,197.4 627.8,202.6 628.5,219.4 629.3,223.6 630.1,216.1 630.9,212.5 631.8,206.6 632.6,206.0 633.3,199.7 634.1,203.7 634.9,204.9 635.7,198.1 636.6,195.5 637.3,192.0 638.1,196.5 638.9,191.9 639.7,193.1 640.5,191.1 641.4,189.0 642.1,187.3 642.9,187.6 643.7,185.4 644.5,182.3 645.3,181.5 646.0,180.5 646.8,176.4 647.6,179.3 648.7,180.8 649.5,184.7 650.3,182.0 651.0,179.8 651.8,175.2 652.6,179.0 653.4,180.0 654.2,183.5 654.9,174.4 655.7,171.6 656.5,173.4 657.4,170.4 658.2,168.9 658.9,169.1 659.7,169.4 660.6,167.7 661.5,165.3 662.3,165.6 663.2,164.1 664.0,168.4 664.7,162.5 665.5,160.9 666.6,162.7 667.4,161.9 668.2,164.5 669.0,159.6 669.7,160.5 670.5,159.4 671.4,156.1 672.2,154.0 673.0,154.3 673.8,152.6 674.5,153.2 675.3,153.6 676.1,154.3 676.9,152.4 677.8,151.8 678.5,151.4 679.3,151.2 680.1,150.7 680.9,149.0 681.8,148.2 682.6,147.0 683.3,146.8 684.1,145.3 684.9,145.0 685.7,144.0 686.5,145.5 687.2,143.7 688.0,141.7 688.9,143.9 689.7,144.7 690.5,144.0 691.2,146.8 692.0,145.7 692.8,143.4 693.6,141.4 694.4,139.6 695.1,137.1 695.9,137.4 696.7,137.0 697.8,138.2 698.6,139.8 699.4,137.6 700.1,140.4 701.0,134.4 701.8,134.2 702.6,136.3 703.5,141.3 704.3,146.6 705.0,139.7 705.8,139.7 706.6,142.8 707.5,148.1 708.3,145.9 709.1,148.9 709.8,144.3 710.6,141.3 711.4,140.9 712.2,141.7 713.0,144.9 713.8,148.4 714.6,152.6 715.4,152.8 716.2,155.9 717.0,159.8 717.7,151.6 718.9,152.7 719.6,164.6 720.5,164.1 721.3,162.2 722.2,161.3 723.0,162.8 723.8,157.5 724.5,155.5 725.3,151.3 726.1,149.6 726.9,147.6 727.7,151.6 728.4,157.4 729.3,155.7 730.1,159.0 730.9,163.8 731.7,167.8 732.4,164.2 733.2,166.7 734.0,166.9 734.8,161.9 735.6,164.9 736.3,157.0 737.1,157.2 738.0,154.6 738.8,153.2 739.6,157.5 740.3,160.2 741.1,160.3 742.4,161.0 743.1,157.8 744.0,157.5 744.8,154.6 745.6,151.4 746.4,151.4 747.1,150.4 748.0,154.5 748.8,155.5 749.6,157.5 750.4,156.0 751.2,156.5 751.9,153.1 752.7,151.4 753.6,150.4 754.4,150.4 755.2,149.3 755.9,150.3 756.7,150.6 757.5,148.5 758.3,148.0 759.4,145.9 760.2,143.9 761.1,142.5 761.8,142.8 762.7,140.7 763.5,139.9 764.3,137.3 765.1,137.2 765.8,138.7 766.6,140.0 767.4,141.7 768.2,140.8 769.0,138.5 769.9,140.2 770.6,138.7 771.4,143.7 772.2,144.6 773.0,145.8 773.8,143.0 774.5,145.2 775.3,149.4 776.1,143.9 776.9,143.0 777.7,138.3 778.5,136.8 779.3,135.8 780.1,135.5 780.9,132.4 781.7,131.3 782.9,131.5 783.7,131.2 784.6,131.6 785.3,128.2 786.1,128.8 786.9,124.9 787.7,124.7 788.6,122.5 789.3,122.3 790.1,120.7 790.9,120.6 791.7,118.4 792.5,118.2 793.4,119.4 794.1,121.2 794.9,125.2 795.7,121.9 796.5,121.1 797.3,118.8 798.0,116.7 798.8,116.7 799.9,117.1 800.7,115.2 801.5,112.5 802.4,112.6 803.2,111.6 804.0,108.8 804.8,109.8 805.6,113.5 806.4,111.2 807.2,118.9 807.9,112.9 808.7,109.0 809.5,109.5 810.4,111.5 811.2,109.3 812.0,106.6 812.7,106.0 813.5,107.0 814.3,105.1 815.1,103.7 815.8,104.4 816.6,106.8 817.4,100.9 818.2,101.4 819.0,101.3 819.9,99.4 820.6,98.3 821.4,99.0 822.2,101.4 823.3,102.0 824.2,101.9 825.1,101.0 826.0,97.4 826.8,98.4 827.5,98.2 828.3,97.5 829.2,99.5 830.0,100.7 830.8,104.7 831.5,107.7 832.3,107.0 833.1,108.9 833.9,121.0 834.7,114.0 835.8,118.9 836.6,110.0 837.3,107.1 838.1,102.8 838.9,100.2 839.8,101.0 840.6,100.0 841.3,98.5 842.1,99.6 843.0,97.2 843.8,94.5 844.7,93.4 845.5,92.9 846.2,91.6 847.0,92.1 847.8,92.1 848.6,89.5 849.4,91.4 850.1,88.8 851.0,89.1 851.8,87.1 852.6,85.5 853.4,85.9 854.2,84.5 854.9,87.6 855.7,85.4 856.5,82.9 857.3,82.0 858.1,84.1 858.8,84.0 859.6,86.4 860.7,82.4 861.5,81.8 862.3,82.3 863.1,81.2 864.0,80.7 864.8,80.3 865.6,80.1 866.5,80.4 867.3,79.5 868.1,82.5 868.9,81.8 869.7,80.3 870.5,80.9 871.3,83.5 872.1,85.4 872.9,87.7 873.6,90.6 874.8,85.7 875.5,80.6 876.3,76.4 877.1,75.3 877.9,74.8 878.7,71.0 879.4,71.2 880.3,69.1 881.1,67.6 881.9,71.4 882.7,69.2 883.6,71.8 884.3,69.6"/><polyline fill="none" stroke="#0f766e" stroke-width="2.2" points="75.0,341.2 75.8,341.2 76.6,341.2 77.3,341.2 78.2,340.7 79.0,339.1 79.8,338.1 80.6,339.5 81.3,337.8 82.1,335.6 82.9,333.6 83.7,333.3 84.5,331.3 85.2,336.4 86.0,333.4 86.8,326.5 87.7,326.7 88.5,325.8 89.3,327.2 90.0,328.6 90.9,328.4 92.1,331.4 93.0,330.0 93.8,326.9 94.6,328.7 95.4,325.3 96.2,325.0 97.0,324.7 97.8,331.4 98.6,337.0 99.4,335.0 100.2,332.0 100.9,336.1 101.7,330.4 102.6,328.0 103.4,328.6 104.2,326.4 105.0,325.4 105.7,327.4 106.5,324.0 107.3,326.4 108.2,320.0 109.0,324.1 109.7,317.8 110.5,318.8 111.3,318.6 112.4,311.1 113.2,309.5 114.0,307.1 114.8,315.0 115.5,320.1 116.3,321.3 117.1,327.8 117.9,318.6 118.8,314.2 119.5,315.4 120.3,308.1 121.1,305.2 121.9,297.6 122.7,295.4 123.4,298.1 124.2,295.7 125.0,290.9 125.8,292.4 126.6,297.5 127.3,301.3 128.2,297.7 129.0,294.1 129.8,295.4 130.6,303.3 131.5,299.0 132.3,296.1 133.1,291.0 133.9,292.7 135.0,286.6 135.8,290.3 136.6,287.1 137.5,286.8 138.2,283.9 139.0,281.9 139.8,280.8 140.6,280.1 141.5,283.7 142.3,285.5 143.0,279.9 143.8,277.4 144.6,278.2 145.4,281.1 146.2,276.4 146.9,275.9 147.7,267.0 148.6,273.4 149.4,271.1 150.2,262.5 150.9,263.4 151.7,258.0 152.5,255.3 153.4,256.7 154.2,267.9 155.0,273.6 155.7,274.5 156.5,283.9 157.3,283.8 158.1,279.2 158.9,281.7 160.0,277.2 160.7,287.9 161.5,286.3 162.3,290.8 163.1,279.0 163.9,284.4 164.6,283.0 165.4,281.1 166.2,283.0 167.0,281.5 167.8,279.4 168.5,276.9 169.4,271.3 170.2,271.0 171.0,267.7 171.8,266.8 172.7,267.2 173.5,269.0 174.3,266.9 175.2,270.3 176.0,272.3 176.8,273.5 177.6,272.1 178.7,271.2 179.5,275.7 180.2,276.2 181.0,275.9 181.8,274.1 182.6,277.1 183.3,279.1 184.2,277.5 185.0,278.5 185.8,279.4 186.6,271.2 187.4,270.2 188.1,266.0 189.0,267.4 189.8,262.8 190.6,260.3 191.4,267.7 192.1,268.6 192.9,262.2 193.8,268.3 194.6,260.6 195.4,251.9 196.2,251.8 196.9,249.8 197.7,249.0 198.5,251.2 199.3,249.6 200.1,260.1 200.9,250.1 201.7,239.7 202.5,246.7 203.3,251.6 204.1,245.1 204.8,247.0 205.6,246.5 206.4,250.7 207.2,246.8 208.0,243.6 208.7,246.0 209.9,245.9 210.6,242.5 211.4,239.7 212.2,238.3 213.1,234.9 214.0,237.8 214.8,236.3 215.6,239.9 216.4,243.4 217.2,247.0 218.0,246.5 218.9,238.3 219.7,237.2 220.4,235.8 221.2,239.1 222.0,238.7 222.8,238.4 223.9,234.6 224.7,233.4 225.4,236.1 226.2,227.1 227.0,225.1 227.8,229.1 228.6,232.3 229.3,242.2 230.2,238.9 231.0,242.7 231.8,230.6 232.6,236.7 233.3,241.7 234.2,247.4 235.0,246.8 235.8,249.5 236.6,251.8 237.4,246.1 238.1,251.3 238.9,250.0 239.7,252.9 240.5,247.5 241.4,247.3 242.1,244.5 242.9,247.9 243.7,246.0 244.5,243.7 245.3,239.5 246.0,244.6 246.8,242.9 247.6,238.3 248.4,236.8 249.2,242.1 250.1,241.1 250.8,232.5 251.6,234.0 252.4,234.5 253.5,233.3 254.3,229.6 255.1,230.7 256.0,228.2 256.7,231.0 257.5,224.8 258.3,224.6 259.1,226.2 260.0,222.4 260.7,218.1 261.5,218.7 262.3,225.2 263.1,218.7 263.9,219.2 264.6,214.7 265.4,215.4 266.2,213.2 267.1,212.8 267.9,225.0 268.6,223.7 269.4,223.3 270.2,219.7 271.1,218.3 271.9,218.1 272.7,222.6 273.4,226.9 274.2,221.8 275.3,220.7 276.1,222.2 276.9,218.8 277.7,222.6 278.4,215.2 279.2,211.7 280.0,202.5 280.8,210.1 281.7,203.7 282.5,206.7 283.2,208.7 284.0,220.2 284.8,221.9 285.6,224.9 286.4,224.8 287.1,224.0 287.9,224.2 288.7,219.6 289.5,219.7 290.3,225.7 291.1,222.1 291.9,222.6 292.7,235.7 293.5,232.2 294.4,237.8 295.3,237.3 296.0,236.5 297.2,238.2 297.9,236.0 298.7,236.4 299.5,236.8 300.4,237.7 301.2,236.4 301.9,239.2 302.7,234.2 303.5,233.3 304.3,232.7 305.1,232.7 306.0,237.1 306.7,234.0 307.5,230.4 308.3,228.3 309.1,229.7 309.8,233.0 310.6,235.2 311.5,235.4 312.3,235.0 313.1,233.7 313.9,233.5 314.6,231.8 315.5,226.9 316.3,226.0 317.1,227.4 317.9,226.4 318.6,225.3 319.4,228.0 320.2,226.8 321.0,226.9 321.8,226.0 322.9,225.1 323.7,222.6 324.4,226.9 325.2,228.3 326.0,228.5 326.8,231.2 327.6,231.8 328.6,232.4 329.3,232.6 330.1,232.1 330.9,231.8 331.8,232.1 332.6,232.2 333.3,231.2 334.1,227.6 335.0,229.6 336.1,226.8 336.9,224.9 337.8,224.7 338.6,222.6 339.4,223.7 340.1,223.4 341.0,223.9 341.8,224.5 342.6,222.8 343.4,222.6 344.1,222.1 344.9,223.6 345.8,222.8 346.6,219.6 347.4,223.7 348.2,218.6 348.9,217.0 349.7,215.9 350.5,213.8 351.3,217.6 352.2,224.7 352.9,223.8 353.7,225.1 354.5,227.6 355.3,226.6 356.4,223.8 357.2,220.6 358.0,219.5 358.7,220.2 359.5,218.6 360.3,219.8 361.1,223.1 361.9,222.2 362.7,223.4 363.5,220.0 364.3,218.4 365.1,218.9 365.9,219.5 366.6,222.4 367.4,219.1 368.2,214.2 369.0,214.9 369.8,215.9 370.5,215.4 371.3,213.9 372.1,212.7 373.0,215.1 373.8,215.8 374.5,214.5 375.4,211.5 376.3,212.0 377.1,210.4 377.9,210.4 379.0,214.8 379.8,219.7 380.6,215.5 381.5,212.5 382.2,212.1 383.0,210.2 383.8,210.5 384.6,210.2 385.3,210.6 386.1,209.2 386.9,211.4 387.7,212.0 388.6,209.8 389.4,209.2 390.1,209.5 390.9,208.7 391.7,208.6 392.6,206.5 393.4,203.5 394.1,207.2 394.9,205.3 395.7,205.6 396.5,205.3 397.4,203.8 398.2,202.1 398.9,202.9 399.7,204.3 400.5,205.3 401.3,203.0 402.1,202.3 402.8,201.4 403.9,200.7 404.7,205.7 405.5,208.0 406.3,211.7 407.1,212.3 407.8,218.2 408.6,216.3 409.4,212.4 410.2,207.9 411.0,208.1 411.7,209.3 412.5,208.3 413.4,206.0 414.2,205.1 415.0,207.9 415.7,202.4 416.6,204.1 417.5,197.8 418.3,195.6 419.2,193.7 420.0,195.6 420.8,197.6 421.5,197.9 422.7,197.5 423.4,199.7 424.2,204.1 425.0,200.6 425.8,195.1 426.5,197.1 427.4,198.4 428.2,200.9 429.0,201.7 429.8,201.2 430.6,206.7 431.3,205.0 432.1,203.3 433.0,204.3 433.8,204.8 434.6,206.0 435.3,207.7 436.1,205.3 436.9,209.0 437.8,212.3 438.6,206.0 439.4,207.6 440.1,208.0 440.9,207.4 441.7,209.0 442.5,214.3 443.3,216.0 444.0,216.7 444.9,216.8 445.7,216.0 446.5,216.4 447.3,214.5 448.0,215.5 448.8,214.8 449.6,215.5 450.4,216.0 451.2,218.9 451.9,221.8 452.7,217.2 453.8,217.0 454.6,217.8 455.4,219.2 456.2,217.0 457.1,213.1 458.0,214.1 458.7,220.3 459.6,223.6 460.4,221.7 461.2,218.5 462.0,216.4 462.9,217.5 463.6,217.6 464.4,215.5 465.2,216.7 466.0,216.2 467.1,219.7 467.9,219.0 468.6,219.9 469.4,218.7 470.2,220.7 471.0,222.3 471.8,225.0 472.5,223.8 473.3,226.3 474.2,229.9 475.0,226.9 475.8,222.8 476.5,224.8 477.3,220.1 478.2,215.2 479.0,217.1 479.8,220.1 480.6,217.4 481.3,219.1 482.1,218.8 482.9,220.8 483.7,221.9 484.5,221.5 485.3,216.6 486.1,220.8 486.9,216.2 487.7,219.0 488.5,216.8 489.2,216.6 490.0,216.4 490.8,216.5 491.6,222.0 492.4,225.9 493.1,227.6 494.0,225.8 494.8,226.3 495.6,222.5 496.4,226.2 497.1,227.9 498.4,224.4 499.2,223.7 500.0,223.5 500.8,221.9 501.6,221.8 502.4,222.8 503.2,221.9 504.1,223.4 504.8,222.6 505.6,223.4 506.4,222.5 507.2,224.3 508.0,223.1 508.7,223.6 509.5,225.2 510.4,224.0 511.2,222.2 512.0,221.3 512.7,221.7 513.5,222.0 514.3,220.2 515.4,219.0 516.2,220.5 517.0,219.3 517.7,220.0 518.5,219.5 519.4,218.8 520.2,214.3 521.0,213.5 521.8,212.6 522.5,211.7 523.3,214.2 524.1,211.5 524.9,210.5 525.8,210.0 526.5,209.0 527.3,207.8 528.1,211.5 528.9,208.1 529.7,206.1 530.4,205.4 531.2,207.4 532.0,205.3 532.8,204.6 533.6,207.8 534.3,201.9 535.2,206.5 536.0,208.9 536.8,209.2 537.6,206.9 538.5,203.1 539.6,197.9 540.5,197.4 541.2,193.2 542.0,194.2 542.8,198.6 543.6,202.2 544.5,198.7 545.3,200.8 546.0,200.4 546.8,199.3 547.6,201.0 548.4,206.1 549.3,205.3 550.0,205.2 550.8,205.8 551.6,208.1 552.4,208.3 553.2,205.4 553.9,204.3 554.7,203.2 555.6,205.9 556.4,206.3 557.2,210.5 557.9,209.4 558.7,207.5 559.8,208.4 560.6,215.0 561.4,212.5 562.2,209.9 563.0,209.2 563.7,211.4 564.5,207.5 565.3,209.0 566.2,209.1 567.0,208.8 567.7,209.2 568.5,211.8 569.3,210.8 570.1,212.6 570.9,215.7 571.6,218.9 572.4,221.6 573.2,218.3 574.0,216.6 574.8,217.6 575.7,215.8 576.5,212.7 577.3,216.4 578.1,223.7 579.0,225.5 580.1,225.4 580.9,225.4 581.8,225.8 582.6,225.3 583.3,225.0 584.1,225.5 585.0,222.8 585.8,224.6 586.6,227.8 587.3,225.5 588.1,225.1 588.9,225.7 589.7,226.8 590.5,226.4 591.2,230.6 592.1,228.7 592.9,228.5 593.7,234.4 594.5,236.6 595.3,240.1 596.1,237.6 596.9,234.6 597.7,233.6 598.5,232.9 599.3,235.7 600.4,232.1 601.2,232.9 601.9,235.8 602.7,234.1 603.5,239.7 604.3,237.8 605.1,235.9 605.8,237.8 606.7,234.2 607.5,239.2 608.3,237.9 609.1,235.3 609.8,239.7 610.6,237.6 611.4,239.7 612.2,239.2 613.0,239.1 613.7,239.5 614.5,241.7 615.3,240.5 616.1,241.4 617.0,242.6 617.7,241.4 618.5,239.3 619.4,237.4 620.3,237.6 621.1,236.3 621.9,233.9 623.0,237.1 623.8,236.9 624.5,232.8 625.4,232.0 626.2,241.5 627.0,246.6 627.8,252.4 628.5,271.6 629.3,275.0 630.1,270.4 630.9,271.0 631.8,269.9 632.6,269.8 633.3,269.8 634.1,270.1 634.9,268.1 635.7,265.7 636.6,267.9 637.3,268.3 638.1,267.4 638.9,267.5 639.7,264.8 640.5,263.9 641.4,262.2 642.1,261.5 642.9,255.2 643.7,250.5 644.5,246.9 645.3,252.5 646.0,252.9 646.8,251.2 647.6,253.1 648.7,251.6 649.5,254.6 650.3,256.6 651.0,254.6 651.8,250.0 652.6,253.8 653.4,254.8 654.2,258.2 654.9,250.1 655.7,248.3 656.5,247.6 657.4,246.3 658.2,243.4 658.9,243.0 659.7,244.7 660.6,240.0 661.5,236.1 662.3,231.8 663.2,230.2 664.0,236.1 664.7,229.2 665.5,225.8 666.6,230.2 667.4,236.3 668.2,232.2 669.0,230.5 669.7,234.7 670.5,234.7 671.4,235.4 672.2,233.4 673.0,230.0 673.8,226.5 674.5,223.1 675.3,220.3 676.1,222.0 676.9,223.5 677.8,218.8 678.5,217.6 679.3,219.5 680.1,219.0 680.9,217.3 681.8,219.6 682.6,218.8 683.3,218.6 684.1,214.9 684.9,217.8 685.7,217.8 686.5,223.6 687.2,219.2 688.0,215.2 688.9,220.5 689.7,220.5 690.5,221.6 691.2,223.8 692.0,220.3 692.8,216.3 693.6,216.8 694.4,218.3 695.1,219.3 695.9,218.4 696.7,221.3 697.8,226.4 698.6,229.2 699.4,227.1 700.1,229.8 701.0,223.8 701.8,225.6 702.6,230.6 703.5,235.0 704.3,239.2 705.0,234.8 705.8,233.1 706.6,233.1 707.5,228.0 708.3,217.3 709.1,219.3 709.8,219.2 710.6,212.3 711.4,216.6 712.2,215.0 713.0,207.0 713.8,211.4 714.6,209.6 715.4,206.1 716.2,207.3 717.0,207.7 717.7,203.0 718.9,198.6 719.6,199.2 720.5,204.9 721.3,207.6 722.2,224.0 723.0,222.0 723.8,218.8 724.5,217.1 725.3,220.8 726.1,218.3 726.9,219.0 727.7,212.6 728.4,218.3 729.3,223.5 730.1,222.1 730.9,222.7 731.7,226.0 732.4,218.3 733.2,218.5 734.0,222.7 734.8,218.9 735.6,226.6 736.3,218.7 737.1,218.8 738.0,216.2 738.8,214.8 739.6,219.1 740.3,221.8 741.1,222.0 742.4,221.1 743.1,216.6 744.0,213.1 744.8,211.0 745.6,210.1 746.4,212.5 747.1,211.9 748.0,213.7 748.8,214.3 749.6,215.2 750.4,217.8 751.2,215.8 751.9,212.0 752.7,210.6 753.6,208.3 754.4,207.6 755.2,207.6 755.9,207.2 756.7,208.5 757.5,207.6 758.3,210.2 759.4,213.1 760.2,213.3 761.1,214.8 761.8,216.2 762.7,216.0 763.5,215.2 764.3,212.6 765.1,212.5 765.8,214.0 766.6,215.2 767.4,217.0 768.2,216.0 769.0,213.7 769.9,215.5 770.6,213.9 771.4,219.0 772.2,219.8 773.0,221.0 773.8,218.3 774.5,220.4 775.3,224.7 776.1,221.5 776.9,226.2 777.7,227.8 778.5,225.6 779.3,225.6 780.1,225.3 780.9,222.3 781.7,221.1 782.9,219.7 783.7,222.4 784.6,225.9 785.3,227.1 786.1,227.4 786.9,223.6 787.7,223.4 788.6,221.2 789.3,221.0 790.1,219.4 790.9,219.3 791.7,217.1 792.5,216.9 793.4,218.1 794.1,219.9 794.9,223.9 795.7,220.6 796.5,219.8 797.3,217.5 798.0,215.4 798.8,215.4 799.9,215.8 800.7,213.9 801.5,211.2 802.4,211.3 803.2,210.4 804.0,207.5 804.8,208.5 805.6,212.2 806.4,209.9 807.2,213.5 807.9,210.3 808.7,206.9 809.5,207.2 810.4,206.8 811.2,204.7 812.0,203.2 812.7,199.1 813.5,203.7 814.3,206.2 815.1,202.0 815.8,202.2 816.6,205.6 817.4,205.1 818.2,206.1 819.0,203.7 819.9,200.3 820.6,203.6 821.4,206.0 822.2,212.3 823.3,212.5 824.2,210.3 825.1,208.0 826.0,205.4 826.8,203.4 827.5,200.8 828.3,197.5 829.2,197.3 830.0,200.9 830.8,198.4 831.5,195.2 832.3,193.7 833.1,191.2 833.9,193.1 834.7,185.1 835.8,177.7 836.6,180.4 837.3,181.3 838.1,185.0 838.9,185.0 839.8,182.3 840.6,180.5 841.3,181.4 842.1,179.2 843.0,181.2 843.8,180.3 844.7,181.6 845.5,181.0 846.2,179.9 847.0,183.0 847.8,178.7 848.6,181.2 849.4,181.1 850.1,178.0 851.0,171.6 851.8,170.0 852.6,168.6 853.4,165.7 854.2,160.7 854.9,166.2 855.7,160.9 856.5,158.7 857.3,158.2 858.1,160.0 858.8,159.0 859.6,163.4 860.7,160.0 861.5,161.5 862.3,158.1 863.1,154.1 864.0,157.1 864.8,153.8 865.6,148.7 866.5,141.2 867.3,129.3 868.1,144.0 868.9,141.3 869.7,136.5 870.5,132.5 871.3,135.2 872.1,138.7 872.9,152.5 873.6,152.1 874.8,145.2 875.5,147.5 876.3,148.8 877.1,142.6 877.9,137.5 878.7,138.6 879.4,137.3 880.3,142.9 881.1,142.5 881.9,147.0 882.7,152.3 883.6,159.1 884.3,161.8"/><polyline fill="none" stroke="#2563eb" stroke-width="2.2" points="75.0,341.2 75.8,341.2 76.6,341.2 77.3,341.2 78.2,339.8 79.0,343.8 79.8,344.7 80.6,343.3 81.3,341.8 82.1,341.2 82.9,340.2 83.7,339.6 84.5,338.0 85.2,339.6 86.0,338.0 86.8,335.4 87.7,335.4 88.5,333.3 89.3,334.4 90.0,333.7 90.9,332.6 92.1,335.0 93.0,331.7 93.8,329.9 94.6,329.2 95.4,326.2 96.2,326.5 97.0,324.7 97.8,331.0 98.6,334.0 99.4,333.0 100.2,327.4 100.9,330.3 101.7,326.1 102.6,325.4 103.4,324.7 104.2,323.2 105.0,323.4 105.7,325.5 106.5,324.4 107.3,325.5 108.2,321.7 109.0,324.9 109.7,321.4 110.5,322.9 111.3,322.4 112.4,318.1 113.2,316.8 114.0,316.4 114.8,323.0 115.5,326.5 116.3,328.3 117.1,331.7 117.9,326.5 118.8,323.6 119.5,324.9 120.3,320.3 121.1,318.7 121.9,317.0 122.7,315.7 123.4,313.6 124.2,312.7 125.0,308.4 125.8,304.3 126.6,309.3 127.3,308.2 128.2,308.0 129.0,307.6 129.8,304.9 130.6,308.9 131.5,305.0 132.3,303.9 133.1,302.2 133.9,306.8 135.0,303.0 135.8,304.1 136.6,301.4 137.5,300.4 138.2,297.4 139.0,295.9 139.8,293.1 140.6,292.6 141.5,295.1 142.3,298.1 143.0,294.5 143.8,293.7 144.6,295.9 145.4,298.3 146.2,297.3 146.9,297.6 147.7,291.0 148.6,296.6 149.4,295.0 150.2,295.3 150.9,293.9 151.7,293.4 152.5,292.1 153.4,291.1 154.2,295.5 155.0,298.5 155.7,299.0 156.5,300.7 157.3,300.0 158.1,299.6 158.9,299.7 160.0,300.1 160.7,306.2 161.5,303.7 162.3,307.7 163.1,310.3 163.9,314.7 164.6,321.7 165.4,332.6 166.2,326.9 167.0,326.9 167.8,329.9 168.5,324.3 169.4,324.7 170.2,322.9 171.0,316.4 171.8,319.4 172.7,315.6 173.5,316.9 174.3,321.4 175.2,319.0 176.0,318.4 176.8,317.5 177.6,317.9 178.7,319.3 179.5,325.1 180.2,326.7 181.0,322.2 181.8,316.7 182.6,319.6 183.3,318.4 184.2,315.8 185.0,316.9 185.8,317.4 186.6,311.5 187.4,310.0 188.1,308.6 189.0,309.2 189.8,306.3 190.6,305.5 191.4,310.1 192.1,311.0 192.9,307.8 193.8,314.9 194.6,308.9 195.4,302.0 196.2,301.4 196.9,298.4 197.7,296.9 198.5,298.2 199.3,295.2 200.1,299.6 200.9,291.5 201.7,285.9 202.5,290.3 203.3,293.5 204.1,287.2 204.8,286.1 205.6,285.9 206.4,293.0 207.2,289.4 208.0,284.2 208.7,285.7 209.9,285.4 210.6,284.2 211.4,284.1 212.2,286.2 213.1,283.6 214.0,281.8 214.8,281.6 215.6,286.0 216.4,290.3 217.2,293.5 218.0,291.5 218.9,286.7 219.7,286.5 220.4,283.0 221.2,282.0 222.0,280.7 222.8,279.8 223.9,277.4 224.7,275.9 225.4,277.4 226.2,273.2 227.0,271.8 227.8,274.0 228.6,275.2 229.3,281.6 230.2,278.8 231.0,279.3 231.8,275.6 232.6,277.1 233.3,278.0 234.2,279.7 235.0,277.6 235.8,279.0 236.6,276.8 237.4,273.3 238.1,276.8 238.9,274.3 239.7,276.4 240.5,274.6 241.4,275.1 242.1,273.1 242.9,273.0 243.7,271.7 244.5,269.2 245.3,267.4 246.0,268.3 246.8,268.8 247.6,264.4 248.4,265.2 249.2,268.7 250.1,269.8 250.8,263.8 251.6,265.3 252.4,265.5 253.5,263.9 254.3,260.0 255.1,262.6 256.0,258.9 256.7,261.1 257.5,259.0 258.3,257.6 259.1,257.7 260.0,255.9 260.7,254.8 261.5,254.8 262.3,263.0 263.1,256.6 263.9,254.9 264.6,253.3 265.4,255.1 266.2,252.3 267.1,249.4 267.9,257.0 268.6,255.2 269.4,255.4 270.2,254.1 271.1,255.4 271.9,258.1 272.7,258.8 273.4,260.5 274.2,256.2 275.3,252.9 276.1,251.1 276.9,249.4 277.7,251.4 278.4,260.7 279.2,251.7 280.0,250.6 280.8,250.2 281.7,247.8 282.5,248.8 283.2,248.9 284.0,254.8 284.8,257.1 285.6,256.1 286.4,254.1 287.1,251.4 287.9,249.8 288.7,247.0 289.5,248.2 290.3,252.0 291.1,249.6 291.9,249.0 292.7,254.5 293.5,252.5 294.4,253.3 295.3,251.9 296.0,250.6 297.2,248.9 297.9,246.0 298.7,245.2 299.5,245.5 300.4,245.8 301.2,244.9 301.9,250.1 302.7,245.1 303.5,245.7 304.3,245.1 305.1,244.8 306.0,249.1 306.7,247.0 307.5,245.9 308.3,244.7 309.1,246.2 309.8,247.9 310.6,248.8 311.5,248.5 312.3,248.4 313.1,247.4 313.9,247.4 314.6,246.6 315.5,244.7 316.3,244.7 317.1,244.8 317.9,242.8 318.6,242.9 319.4,243.6 320.2,243.2 321.0,243.0 321.8,242.4 322.9,241.7 323.7,240.4 324.4,241.5 325.2,242.5 326.0,242.4 326.8,243.1 327.6,243.8 328.6,244.1 329.3,244.3 330.1,244.9 330.9,244.0 331.8,242.5 332.6,242.4 333.3,241.9 334.1,239.6 335.0,240.2 336.1,238.4 336.9,237.5 337.8,236.9 338.6,236.4 339.4,236.3 340.1,236.0 341.0,236.6 341.8,236.9 342.6,235.4 343.4,235.5 344.1,236.0 344.9,235.9 345.8,234.9 346.6,231.8 347.4,235.2 348.2,231.5 348.9,230.0 349.7,228.2 350.5,226.9 351.3,228.5 352.2,232.7 352.9,232.2 353.7,233.3 354.5,237.7 355.3,235.3 356.4,233.6 357.2,229.5 358.0,228.0 358.7,229.8 359.5,229.6 360.3,230.1 361.1,234.5 361.9,232.9 362.7,234.5 363.5,232.6 364.3,232.3 365.1,231.9 365.9,231.2 366.6,233.3 367.4,229.8 368.2,225.8 369.0,226.2 369.8,228.4 370.5,229.5 371.3,226.8 372.1,227.1 373.0,228.4 373.8,229.1 374.5,227.3 375.4,226.2 376.3,227.2 377.1,226.2 377.9,226.8 379.0,231.5 379.8,233.6 380.6,230.7 381.5,228.3 382.2,227.9 383.0,226.6 383.8,227.9 384.6,227.8 385.3,228.3 386.1,226.3 386.9,226.9 387.7,227.6 388.6,225.8 389.4,224.7 390.1,224.2 390.9,223.7 391.7,224.0 392.6,222.3 393.4,220.4 394.1,221.9 394.9,220.0 395.7,220.6 396.5,220.2 397.4,219.5 398.2,219.6 398.9,220.0 399.7,222.5 400.5,222.5 401.3,220.5 402.1,219.2 402.8,218.4 403.9,217.8 404.7,222.2 405.5,223.0 406.3,224.7 407.1,224.6 407.8,225.1 408.6,223.0 409.4,220.9 410.2,218.9 411.0,218.5 411.7,218.8 412.5,217.7 413.4,216.9 414.2,216.5 415.0,218.7 415.7,215.3 416.6,216.0 417.5,213.2 418.3,212.9 419.2,211.3 420.0,212.6 420.8,212.9 421.5,212.3 422.7,211.9 423.4,212.6 424.2,215.1 425.0,213.5 425.8,210.6 426.5,211.7 427.4,212.1 428.2,212.4 429.0,212.7 429.8,212.4 430.6,214.9 431.3,214.7 432.1,213.1 433.0,214.2 433.8,216.3 434.6,217.2 435.3,217.3 436.1,216.5 436.9,218.9 437.8,221.8 438.6,218.4 439.4,220.0 440.1,221.0 440.9,220.7 441.7,221.1 442.5,223.4 443.3,225.2 444.0,226.7 444.9,227.1 445.7,225.7 446.5,226.2 447.3,225.4 448.0,223.6 448.8,222.4 449.6,222.0 450.4,223.0 451.2,224.1 451.9,226.4 452.7,223.4 453.8,223.3 454.6,223.7 455.4,225.3 456.2,224.4 457.1,222.3 458.0,223.9 458.7,227.6 459.6,229.0 460.4,227.7 461.2,224.0 462.0,223.0 462.9,221.8 463.6,221.1 464.4,218.7 465.2,218.7 466.0,217.2 467.1,218.6 467.9,217.3 468.6,218.0 469.4,215.4 470.2,216.7 471.0,217.1 471.8,215.8 472.5,216.1 473.3,218.9 474.2,219.2 475.0,217.4 475.8,215.6 476.5,215.7 477.3,212.6 478.2,210.4 479.0,210.9 479.8,212.6 480.6,213.2 481.3,212.6 482.1,211.5 482.9,211.8 483.7,213.4 484.5,214.4 485.3,211.0 486.1,215.7 486.9,211.6 487.7,212.4 488.5,213.3 489.2,214.3 490.0,213.1 490.8,213.7 491.6,216.4 492.4,216.3 493.1,216.8 494.0,214.4 494.8,213.3 495.6,210.7 496.4,211.9 497.1,212.6 498.4,210.2 499.2,208.5 500.0,207.9 500.8,205.3 501.6,206.0 502.4,205.6 503.2,203.2 504.1,203.1 504.8,204.4 505.6,206.4 506.4,204.2 507.2,204.8 508.0,203.6 508.7,204.3 509.5,205.3 510.4,204.5 511.2,201.8 512.0,200.2 512.7,199.5 513.5,199.1 514.3,198.0 515.4,197.1 516.2,198.0 517.0,197.0 517.7,196.9 518.5,197.5 519.4,197.2 520.2,194.4 521.0,193.7 521.8,192.9 522.5,192.7 523.3,194.1 524.1,193.4 524.9,193.1 525.8,191.9 526.5,191.4 527.3,191.4 528.1,193.4 528.9,191.8 529.7,190.3 530.4,189.8 531.2,190.9 532.0,189.5 532.8,188.1 533.6,190.7 534.3,187.3 535.2,189.2 536.0,190.8 536.8,190.1 537.6,188.1 538.5,186.0 539.6,182.9 540.5,181.8 541.2,179.0 542.0,179.5 542.8,183.8 543.6,186.7 544.5,184.0 545.3,184.5 546.0,183.7 546.8,182.6 547.6,182.3 548.4,186.2 549.3,184.6 550.0,183.4 550.8,182.6 551.6,183.8 552.4,184.9 553.2,181.3 553.9,181.8 554.7,181.5 555.6,183.0 556.4,182.3 557.2,184.2 557.9,184.5 558.7,185.1 559.8,183.9 560.6,186.1 561.4,185.6 562.2,185.0 563.0,183.4 563.7,185.1 564.5,183.6 565.3,182.4 566.2,182.4 567.0,182.2 567.7,182.1 568.5,181.7 569.3,180.4 570.1,181.2 570.9,183.9 571.6,186.8 572.4,187.1 573.2,186.6 574.0,186.3 574.8,187.5 575.7,185.3 576.5,184.4 577.3,186.4 578.1,191.3 579.0,191.2 580.1,190.2 580.9,188.7 581.8,188.1 582.6,185.6 583.3,184.4 584.1,184.5 585.0,183.1 585.8,184.2 586.6,185.1 587.3,183.1 588.1,183.0 588.9,182.0 589.7,182.4 590.5,181.5 591.2,184.4 592.1,183.4 592.9,183.4 593.7,186.5 594.5,186.0 595.3,188.1 596.1,188.8 596.9,186.5 597.7,186.2 598.5,184.0 599.3,184.4 600.4,182.6 601.2,182.3 601.9,183.9 602.7,182.7 603.5,185.1 604.3,181.5 605.1,180.8 605.8,180.6 606.7,178.7 607.5,181.7 608.3,180.9 609.1,179.5 609.8,181.0 610.6,179.7 611.4,181.0 612.2,180.0 613.0,180.5 613.7,181.7 614.5,183.3 615.3,181.2 616.1,181.4 617.0,181.7 617.7,181.0 618.5,179.5 619.4,177.6 620.3,177.0 621.1,176.2 621.9,174.4 623.0,174.7 623.8,175.1 624.5,172.7 625.4,170.5 626.2,174.6 627.0,180.5 627.8,183.8 628.5,196.1 629.3,197.5 630.1,193.1 630.9,189.8 631.8,185.8 632.6,185.6 633.3,183.5 634.1,185.8 634.9,185.2 635.7,182.3 636.6,182.2 637.3,181.5 638.1,182.3 638.9,180.8 639.7,180.3 640.5,179.2 641.4,177.9 642.1,177.0 642.9,174.9 643.7,172.4 644.5,170.7 645.3,172.6 646.0,172.4 646.8,170.9 647.6,173.6 648.7,173.3 649.5,176.1 650.3,176.5 651.0,173.8 651.8,169.9 652.6,173.0 653.4,173.5 654.2,175.9 654.9,168.9 655.7,166.8 656.5,166.6 657.4,164.4 658.2,162.4 658.9,161.4 659.7,162.0 660.6,159.2 661.5,155.7 662.3,154.0 663.2,153.3 664.0,158.3 664.7,152.8 665.5,149.6 666.6,149.7 667.4,151.3 668.2,152.7 669.0,149.6 669.7,151.1 670.5,152.0 671.4,150.3 672.2,149.7 673.0,148.4 673.8,145.9 674.5,145.9 675.3,145.5 676.1,146.4 676.9,145.4 677.8,142.0 678.5,140.7 679.3,141.8 680.1,141.6 680.9,140.8 681.8,140.6 682.6,139.1 683.3,139.2 684.1,137.0 684.9,137.4 685.7,137.5 686.5,139.9 687.2,137.9 688.0,134.5 688.9,136.9 689.7,136.8 690.5,136.0 691.2,136.4 692.0,135.1 692.8,131.5 693.6,129.9 694.4,129.9 695.1,129.0 695.9,128.9 696.7,129.8 697.8,132.1 698.6,132.7 699.4,130.3 700.1,132.3 701.0,126.5 701.8,125.8 702.6,127.2 703.5,129.1 704.3,131.9 705.0,127.4 705.8,127.0 706.6,129.2 707.5,130.0 708.3,124.8 709.1,125.1 709.8,124.9 710.6,121.0 711.4,122.9 712.2,122.0 713.0,118.8 713.8,120.8 714.6,123.2 715.4,124.0 716.2,127.4 717.0,127.5 717.7,123.4 718.9,123.2 719.6,128.1 720.5,129.5 721.3,129.2 722.2,136.6 723.0,136.0 723.8,136.3 724.5,133.9 725.3,134.7 726.1,132.0 726.9,132.4 727.7,132.5 728.4,137.1 729.3,138.8 730.1,140.0 730.9,142.6 731.7,145.2 732.4,142.1 733.2,143.8 734.0,147.0 734.8,143.7 735.6,146.7 736.3,143.1 737.1,143.5 738.0,143.3 738.8,140.5 739.6,142.9 740.3,144.1 741.1,144.7 742.4,144.8 743.1,141.3 744.0,139.5 744.8,136.9 745.6,135.3 746.4,139.4 747.1,140.3 748.0,142.2 748.8,143.1 749.6,144.2 750.4,142.4 751.2,140.2 751.9,138.2 752.7,136.8 753.6,135.7 754.4,136.7 755.2,136.5 755.9,135.4 756.7,136.9 757.5,136.9 758.3,138.4 759.4,138.0 760.2,136.9 761.1,136.5 761.8,137.5 762.7,136.8 763.5,134.7 764.3,132.8 765.1,132.9 765.8,135.4 766.6,136.2 767.4,138.5 768.2,137.3 769.0,135.4 769.9,137.3 770.6,136.3 771.4,138.8 772.2,140.7 773.0,144.4 773.8,142.0 774.5,142.0 775.3,145.2 776.1,142.6 776.9,144.4 777.7,142.8 778.5,141.2 779.3,139.5 780.1,140.9 780.9,137.0 781.7,136.3 782.9,136.1 783.7,137.5 784.6,139.3 785.3,138.4 786.1,138.3 786.9,136.9 787.7,137.8 788.6,135.1 789.3,134.7 790.1,132.3 790.9,133.3 791.7,131.6 792.5,131.1 793.4,130.8 794.1,132.2 794.9,134.0 795.7,133.2 796.5,131.9 797.3,130.4 798.0,127.7 798.8,128.8 799.9,129.6 800.7,129.8 801.5,129.6 802.4,129.3 803.2,128.8 804.0,125.9 804.8,125.2 805.6,128.9 806.4,126.4 807.2,132.2 807.9,127.5 808.7,123.9 809.5,124.5 810.4,125.1 811.2,122.5 812.0,120.8 812.7,119.6 813.5,119.6 814.3,121.3 815.1,119.5 815.8,119.1 816.6,120.7 817.4,119.3 818.2,121.9 819.0,119.4 819.9,117.8 820.6,119.0 821.4,119.8 822.2,123.0 823.3,123.6 824.2,123.3 825.1,122.0 826.0,118.7 826.8,118.2 827.5,117.2 828.3,115.2 829.2,115.3 830.0,118.2 830.8,118.8 831.5,118.6 832.3,117.6 833.1,117.1 833.9,119.2 834.7,117.9 835.8,114.5 836.6,114.7 837.3,116.0 838.1,117.4 838.9,116.6 839.8,114.9 840.6,113.9 841.3,112.3 842.1,112.7 843.0,111.9 843.8,110.1 844.7,110.5 845.5,110.2 846.2,108.4 847.0,111.9 847.8,108.6 848.6,108.2 849.4,108.3 850.1,106.8 851.0,104.5 851.8,101.9 852.6,100.8 853.4,100.2 854.2,97.2 854.9,98.7 855.7,93.9 856.5,93.7 857.3,94.3 858.1,95.6 858.8,94.3 859.6,96.8 860.7,92.7 861.5,92.7 862.3,92.2 863.1,90.0 864.0,90.1 864.8,87.4 865.6,84.9 866.5,81.7 867.3,75.9 868.1,82.9 868.9,78.7 869.7,75.8 870.5,74.1 871.3,74.5 872.1,73.9 872.9,78.6 873.6,78.5 874.8,75.5 875.5,72.6 876.3,70.8 877.1,69.7 877.9,69.1 878.7,65.0 879.4,68.1 880.3,68.1 881.1,66.1 881.9,71.6 882.7,70.0 883.6,73.9 884.3,73.6"/><line x1="80" x2="104" y1="452" y2="452" stroke="#334155" stroke-width="3"/><text x="110" y="457" class="l">SPY buy and hold</text><line x1="285" x2="309" y1="452" y2="452" stroke="#0f766e" stroke-width="3"/><text x="315" y="457" class="l">Top 1 momentum</text><line x1="490" x2="514" y1="452" y2="452" stroke="#2563eb" stroke-width="3"/><text x="520" y="457" class="l">Top 3 momentum</text><text x="75" y="492" class="a">2006-08-07 to 2026-07-07; 5 bps costs</text></svg>